<svg width="551" height="348" viewBox="0 0 551 348" fill="none" xmlns="http://www.w3.org/2000/svg">
<path d="M171.821 287.255C184.363 287.255 194.301 282.84 206.169 279.633C209.454 278.745 212.899 276.093 216.3 275.967C219.486 275.849 223.835 274.784 227.01 274.037C238.31 271.378 250.3 271.074 261.454 267.476C271.244 264.318 282.151 261.928 292.184 260.385C301.425 258.963 310.659 257.461 319.874 256.043C323.922 255.42 328.063 255.091 332.031 254.21C333.962 253.781 339.595 253.417 340.956 252.328C342.475 251.113 346.128 251.937 342.017 250.109C339.684 249.072 337.32 248.695 335.07 247.504C330.462 245.064 325.435 240.961 320.308 239.496C314.186 237.747 309.075 232.477 303.376 229.944C297.527 227.345 291.322 226.227 285.575 223.673C282.763 222.423 279.747 221.855 276.891 220.586C274.827 219.668 271.331 218.038 269.076 217.788C266.668 217.52 262.985 215.114 260.682 214.121C255.779 212.008 249.408 211.125 245.197 207.85C238.252 202.448 227.57 202.84 219.58 199.986C212.276 197.378 204.363 195.56 197.679 191.351C190.921 187.096 185.147 180.992 177.032 178.905C171.09 177.377 161.355 180.174 157.06 174.804C155.489 172.841 150.384 175.517 148.762 176.107C144.785 177.553 140.436 178.143 136.268 178.664C131.616 179.245 127.144 181.304 122.664 182.668C118.134 184.046 112.076 184.696 107.998 186.961C102.584 189.969 95.483 189.581 89.6665 191.351C86.0753 192.444 82.204 193.625 78.5228 194.294C75.4707 194.849 72.5936 194.116 69.5499 195.018C60.3407 197.746 52.1069 199.552 42.4382 199.552C39.8485 199.552 37.2077 199.4 34.6231 199.552C32.0424 199.704 29.3559 202.157 26.3739 202.157C19.3462 202.157 30.3299 209.356 33.3206 210.021C38.1157 211.086 45.134 216.113 48.7096 219.331C58.9487 228.546 74.1331 230.62 86.2896 236.023C93.4447 239.203 99.509 242.612 106.213 246.443C112.923 250.277 119.699 253.572 126.668 257.056C131.571 259.508 136.727 261.513 141.429 264.003C145.917 266.378 150.01 271.037 154.937 272.445C159.142 273.646 162.793 277.601 166.177 280.308C167.389 281.278 169.117 283.319 170.567 283.733C172.055 284.159 176.477 285.277 177.032 286.387" stroke="#FF4F43" stroke-width="3" stroke-linecap="round"/>
<path d="M173.558 285.518C171.366 291.063 166.566 298.602 168.396 305.008C169.198 307.813 171.534 313.814 173.365 316.103C174.822 317.925 174.432 319.384 177.466 319.384C179.781 319.384 182.097 319.384 184.413 319.384C188.04 319.384 194.571 320.658 197.872 319.191C201.553 317.555 207.708 317.406 211.765 316.827C217.886 315.953 224.173 313.483 230.386 313.305C243.425 312.933 256.082 304.475 269.076 303.754C274.663 303.443 280.165 301.148 286.009 301.148C292.715 301.148 301.292 300.401 307.766 298.736C314.429 297.023 319.925 293.054 326.483 291.597C329.175 290.998 332.544 289.921 335.07 288.799C336.688 288.08 339.677 288.085 340.956 287.062C342.248 286.028 344.622 286.578 344.622 284.216C344.622 282.082 345.816 279.384 346.407 277.317C347.268 274.302 350.5 271.561 350.7 268.151C350.877 265.154 353.322 258.439 350.266 255.995C349.121 255.078 344.286 250.113 343.754 249.048" stroke="#FF4F43" stroke-width="3" stroke-linecap="round"/>
<path d="M173.558 320.251C163.368 318.263 155.454 314.81 146.206 310.7C138.813 307.414 133.116 300.949 125.607 298.35C115.94 295.004 109.22 286.929 100.183 282.913C92.6484 279.564 85.5862 273.979 78.4266 269.887C67.6227 263.714 57.0307 257.019 45.9119 251.459C42.619 249.813 37.5098 246.961 34.8164 244.512C30.7784 240.842 24.8942 239.365 20.2475 236.408C16.6012 234.088 12.2439 233.012 9.44148 229.509C6.94933 226.394 7.70479 222.712 7.70479 218.655C7.70479 215.003 9.02774 211.758 10.744 208.669C12.0278 206.358 15.2963 200.42 18.1249 200.42" stroke="#FF4F43" stroke-width="3" stroke-linecap="round"/>
<path d="M13.7832 240.364C13.7832 245.719 13.7832 251.074 13.7832 256.429C13.7832 258.599 13.7832 260.77 13.7832 262.941C13.7832 265.247 16.0765 264.596 17.739 265.546C24.6923 269.52 31.7426 272.629 38.531 276.401C42.6676 278.699 46.2469 280.939 50.6878 282.913C55.0676 284.86 60.0431 288.9 64.5813 289.908C69.5466 291.012 75.3882 295.531 80.2115 297.675C84.6717 299.657 89.3381 301.975 93.2367 305.008C96.7589 307.747 102.677 309.366 106.696 311.375C110.706 313.38 116.387 316.576 119.721 319.384C124.169 323.129 130.171 327.021 135.351 329.611C138.333 331.102 143.533 334.831 146.64 335.014C150.665 335.251 155.015 338.35 158.797 340.031C162.266 341.573 167.315 343.483 170.953 343.697C171.966 343.757 175.295 346.197 175.295 344.131C175.295 341.96 175.295 339.79 175.295 337.619C175.295 333.277 175.295 328.935 175.295 324.594" stroke="#FF4F43" stroke-width="3" stroke-linecap="round"/>
<path d="M177.032 346.302C188.403 346.302 196.376 341.666 206.99 339.307C210.935 338.431 215.87 336.305 219.581 334.821C223.239 333.357 227.278 333.245 230.869 331.734C233.105 330.792 239.467 328.067 241.723 328.067C245.148 328.067 248.65 325.462 252.143 325.462C259.508 325.462 266.517 321.12 273.852 321.12C283.946 321.12 293.926 314.894 304.003 314.174C307.952 313.892 311.923 311.326 315.967 310.749C319.517 310.241 323.327 310.56 326.821 309.784C330.104 309.054 344.622 310.075 344.622 306.359C344.622 299.925 345.49 293.2 345.49 286.387" stroke="#FF4F43" stroke-width="3" stroke-linecap="round"/>
<path d="M247.367 176.975C253.711 176.975 261.213 176.09 267.339 178.278C270.1 179.264 274.863 180.288 277.759 180.449C280.355 180.593 283.438 181.662 286.009 182.234C289.062 182.912 292.21 183.301 295.126 184.598C300.401 186.942 307.21 186.109 312.493 188.457C318.342 191.056 325.241 192.016 331.404 194.149C338.681 196.668 343.231 202.137 349.832 205.438C356.996 209.02 363.788 213.926 371.348 216.726C380.148 219.986 389.078 224.368 397.591 228.401C400.691 229.869 403.283 231.115 406.66 231.729C408.345 232.036 413.48 233.452 414.765 234.479C423.783 241.694 434.705 234.965 443.613 231.006C457.262 224.939 472.542 224.515 485.486 216.051C496.746 208.689 509.839 207.367 522.825 207.367C525.869 207.367 528.938 206.499 531.75 206.499C533.11 206.499 533.953 206.647 534.982 205.824C535.462 205.44 536.977 203.946 537.394 203.894C538.615 203.741 543.671 201.965 543.424 200.855C542.997 198.933 539.621 195.785 537.78 195.259C532.773 193.828 525.614 193.474 520.413 193.474C515.018 193.474 507.365 190.234 503.095 186.913C493.423 179.391 478.628 182.922 467.058 181.269C459.215 180.148 452.452 175.225 444.916 173.55C439.405 172.326 434.164 169.224 428.417 168.34C421.956 167.346 416.196 164.232 410.134 163.13C405.838 162.349 402.632 160.311 398.652 158.933C396.169 158.074 393.517 155.857 391.078 155.315C388.667 154.779 385.999 152.624 383.697 151.601C380.892 150.354 377.905 149.787 375.014 148.754C370.012 146.968 365.202 145.715 359.77 145.715C353.24 145.715 344.892 144.412 338.64 146.149C335.301 147.077 330.664 148.32 327.255 148.32C324.397 148.32 321.825 150.057 319.006 150.057C303.946 150.057 290.593 161.345 275.588 161.345C268.252 161.345 260.507 163.61 253.88 166.555C251.577 167.579 240.646 171.444 246.499 174.37" stroke="#FF4F43" stroke-width="3" stroke-linecap="round"/>
<path d="M246.499 174.37C243.974 180.46 240.421 184.665 240.421 191.303C240.421 193.357 242.117 204.803 243.026 203.894" stroke="#FF4F43" stroke-width="3" stroke-linecap="round"/>
<path d="M349.832 255.994C355.082 255.994 361.547 255.138 366.524 256.67C369.933 257.719 374.976 259.273 378.487 259.468C380.622 259.586 382.704 259.897 384.759 260.529C386.002 260.912 389.547 260.674 390.451 261.397C392.67 263.172 397.004 262.298 399.135 264.002C401.469 265.87 405.128 265.324 407.336 267.09C408.654 268.145 413.349 269.793 414.958 269.888C421.699 270.284 418.191 285.088 419.348 290.294C420.159 293.944 421.63 297.162 417.177 295.89C414.019 294.987 410.769 293.315 407.625 292.417C404.682 291.576 401.212 290.616 398.025 289.908C394.283 289.076 389.419 289.281 385.917 287.689C382.744 286.247 378.027 286.236 374.58 285.47C371.579 284.803 369.417 282.865 366.716 282.093C363.68 281.225 360.909 279.441 358.033 278.619C355.659 277.941 350.965 277.365 349.832 275.098" stroke="#FF4F43" stroke-width="3" stroke-linecap="round"/>
<path d="M421.905 240.364C421.905 245.753 426.538 267.571 420.168 270.756" stroke="#FF4F43" stroke-width="3" stroke-linecap="round"/>
<path d="M419.3 271.624C423.443 271.624 428.138 272.233 432.132 270.949C434.948 270.044 437.508 268.453 440.333 267.476C446.904 265.201 473.37 261.54 480 259.5C488.93 256.752 531.5 251 542 245.5" stroke="#FF4F43" stroke-width="3" stroke-linecap="round"/>
<path d="M542.604 244.706C544.3 240.36 546.946 236.43 546.946 231.68C546.946 230.258 547.192 222.472 548.008 221.453C549.731 219.299 548.793 214.05 547.622 211.708C546.846 210.157 547.133 208.808 545.885 207.56C544.958 206.633 544.035 205.886 543.473 204.762" stroke="#FF4F43" stroke-width="3" stroke-linecap="round"/>
<path d="M420.168 300.28C427.124 300.28 435.418 298.851 441.877 296.131C445.084 294.781 450.136 293.333 453.599 293.333C460.399 293.333 541.5 274 541.5 266V247" stroke="#FF4F43" stroke-width="3" stroke-linecap="round"/>
<path d="M5.96775 35.4352C16.9094 29.0303 28.8562 25.745 39.8332 20.8663C52.6666 15.1625 67.0727 15.2852 80.6453 12.1829C90.7925 9.86352 101.869 10.002 111.906 7.21402C120.969 4.69644 130.969 5.27316 139.886 2.6311C146.828 0.574196 156.786 2.43813 164.006 2.43813C171.788 2.43813 179.622 4.17482 187.452 4.17482C192.416 4.17482 196.83 5.04316 201.779 5.04316C206.315 5.04316 203.19 15.8096 203.082 18.7437C202.648 30.4479 197.872 41.1654 197.872 52.8021C197.872 64.0905 197.872 75.379 197.872 86.6675C197.872 93.139 196.012 91.4637 191.359 94.0484C187.042 96.4471 178.348 97.6898 173.558 97.956C163.788 98.4987 153.225 100.165 144.034 103.841C133.423 108.086 120.639 107.508 109.301 107.508C104.068 107.508 98.7779 109.431 93.6705 110.161C88.4582 110.906 81.9487 112.524 77.1719 114.647C70.451 117.635 62.233 119.263 54.9809 120.581C50.558 121.385 43.8584 122.41 39.8332 124.199C35.5637 126.097 29.596 124.773 25.5055 127.045C21.636 129.195 16.024 128.124 12.0462 129.892C7.18224 132.053 7.26219 120.577 6.78786 117.494C5.76905 110.871 4.23106 103.914 4.23106 97.2806C4.23106 86.1858 2.49438 75.0237 2.49438 63.8976C2.49438 54.226 1.25016 43.5096 4.23106 34.5669" stroke="#FF4F43" stroke-width="3" stroke-linecap="round"/>
<path d="M45.9117 57.1437C41.0132 56.1879 32.2965 54.77 27.6765 57.3366C23.102 59.878 21.4412 66.5386 25.0715 70.1688C27.7924 72.8898 35.1311 77.7584 38.965 77.9839C41.6281 78.1406 49.3194 80.5068 51.1218 82.7598C52.5348 84.5261 55.6311 85.0587 57.0072 87.5357C58.3861 90.0177 58.9369 91.1684 58.9369 94.0483C58.9369 96.1833 59.2835 99.4764 57.8756 101.236C56.7657 102.624 54.6257 103.345 53.7268 104.468C51.9049 106.746 43.9633 107.508 41.1358 107.508C38.2532 107.508 32.8866 103.877 32.8866 100.561" stroke="#FF4F43" stroke-width="3" stroke-linecap="round"/>
<path d="M68.4889 93.6141C68.4889 87.9804 67.9678 83.671 66.8005 78.4181C65.9008 74.3697 66.7396 70.329 65.8356 66.2612C64.8878 61.9959 65.0155 57.7228 65.0155 53.2361C65.0155 47.5135 67.209 47.5919 72.3964 47.5919C90.0121 47.5919 95.4076 73.0502 95.4076 86.6673" stroke="#FF4F43" stroke-width="3" stroke-linecap="round"/>
<path d="M65.0151 70.1683C67.2636 70.1683 76.7667 71.5346 78.7157 69.9754C80.0643 68.8965 85.7303 68.4316 87.5921 68.4316" stroke="#FF4F43" stroke-width="3" stroke-linecap="round"/>
<path d="M101.486 43.25C101.486 49.7324 100.925 56.5728 102.306 62.7877C103.303 67.2754 104.701 72.7339 104.959 77.1154C105.036 78.4232 106.328 81.2538 106.744 82.7114C107.422 85.0836 108.433 86.6051 111.423 85.7506C114.036 85.0041 124.063 84.9979 124.063 81.4571" stroke="#FF4F43" stroke-width="3" stroke-linecap="round"/>
<path d="M130.141 37.1719C130.141 46.8018 133.614 55.2371 133.614 64.5247C133.614 73.6979 141.815 73.6423 149.245 73.6423" stroke="#FF4F43" stroke-width="3" stroke-linecap="round"/>
<path d="M134.483 59.7486C139.473 59.7486 143.059 58.6267 147.508 57.1436" stroke="#FF4F43" stroke-width="3" stroke-linecap="round"/>
<path d="M129.273 36.3031C131.93 36.3031 142.661 37.3138 144.035 34.5664" stroke="#FF4F43" stroke-width="3" stroke-linecap="round"/>
<path d="M170.953 53.6701C170.953 48.5693 171.483 42.7039 169.41 38.0399C168.412 35.7945 169.819 30.526 167.48 29.3564" stroke="#FF4F43" stroke-width="3" stroke-linecap="round"/>
<path d="M167.48 70.1687C170.7 71.4254 174.993 72.367 173.51 67.1777C173.124 65.8253 168.769 66.7215 168.348 67.5636" stroke="#FF4F43" stroke-width="3" stroke-linecap="round"/>
<path d="M18.9929 113.586C18.2757 112.668 16.3974 109.225 15.5195 110.981" stroke="#FF4F43" stroke-width="3" stroke-linecap="round"/>
<path d="M14.6513 45.8547C8.12032 41.1049 8.9602 46.5294 13.783 44.118" stroke="#FF4F43" stroke-width="3" stroke-linecap="round"/>
</svg>
