<svg width="643" height="252" viewBox="0 0 643 252" fill="none" xmlns="http://www.w3.org/2000/svg">
<path d="M166.717 46.3812C158.154 46.3812 150.428 42.5707 142.16 42.5707C132.152 42.5707 122.299 41.8086 112.227 41.8086C105.846 41.8086 99.9297 43.1299 94.3172 45.7885C88.399 48.5918 81.5815 50.5345 85.934 58.1515C87.8033 61.4227 91.1781 61.4313 94.9946 62.3854C102.415 64.2404 110.352 66.0723 117.942 66.9157C127.574 67.9858 137.16 68.4822 146.902 68.4822C151.399 68.4822 155.862 68.6505 160.239 67.6778C162.62 67.1488 167.467 66.2113 169.003 64.2906C171.211 61.5307 173.884 50.9538 167.479 50.9538" stroke="#FF4F43" stroke-width="3" stroke-linecap="round"/>
<path d="M356.481 44.0945C336.31 44.0945 316.789 42.5703 296.656 42.5703C293.319 42.5703 290.828 45.6187 287.51 45.6187C285.314 45.6187 281.655 47.7062 280.101 49.2599C276.035 53.3256 276.691 63.1471 284.081 63.1471C288.585 63.1471 294.637 64.7624 299.154 65.6028C307.441 67.1446 316.068 66.9258 324.43 67.7621C336.621 68.9812 350.233 69.6586 362.197 67C367.174 65.8937 375.191 61.3621 371.892 54.764C369.791 50.5607 360.989 44.8566 356.481 44.8566" stroke="#FF4F43" stroke-width="3" stroke-linecap="round"/>
<path d="M544.72 42.5703C532.781 42.5703 520.676 43.3324 508.901 43.3324C503.951 43.3324 498.957 44.8566 494.04 44.8566C489.965 44.8566 484.681 45.5258 481.085 47.524C478.607 48.9003 473.872 49.4981 473.125 52.8587C472.195 57.0428 474.431 57.8124 478.036 57.8124C482.617 57.8124 487.435 59.3366 492.135 59.3366C497.92 59.3366 503.429 60.0987 509.24 60.0987C525.14 60.0987 541.25 60.258 556.914 59.3366C559.449 59.1875 562.47 57.3829 565.297 57.0503C566.794 56.8741 567.129 54.89 566.779 53.6631C566.566 52.9193 563.587 53.2436 562.841 52.647C561.932 51.9193 560.051 52.3985 559.2 51.3345C558.382 50.3113 557.321 49.4213 556.152 48.8365C553.729 47.6251 551.536 44.8566 548.531 44.8566" stroke="#FF4F43" stroke-width="3" stroke-linecap="round"/>
<path d="M474.607 60.8605C474.607 67.6504 475.369 74.4779 475.369 81.0563C475.369 86.1408 483.387 87.3021 487.563 87.5341C499.925 88.2209 511.967 89.0583 524.525 89.0583C535.695 89.0583 547.556 85.1454 558.015 82.1571C559.689 81.6789 562.406 80.6752 564.154 80.6752C567.765 80.6752 566.821 77.342 566.821 74.5784C566.821 69.2437 566.821 63.9089 566.821 58.5742" stroke="#FF4F43" stroke-width="3" stroke-linecap="round"/>
<path d="M277.222 63.9091C277.222 70.6411 277.222 77.373 277.222 84.1049C277.222 87.846 279.408 86.3778 282.176 87.9154C284.197 89.0381 288.229 90.0227 290.559 90.5404C295.645 91.6706 301.183 91.3449 306.563 91.3449C313.395 91.3449 320.433 91.8369 327.098 90.6251C333.432 89.4733 340.092 88.6051 346.574 88.2964C352.746 88.0025 361.538 87.1497 367.15 84.6553C371.532 82.7079 376.007 81.1703 373.417 75.3407C372.391 73.0322 373.724 70.1265 372.654 67.7197C371.795 65.787 372.485 62.21 372.485 60.0986" stroke="#FF4F43" stroke-width="3" stroke-linecap="round"/>
<path d="M82.1235 54.002C82.1235 61.7906 82.8242 68.3958 84.4522 75.7219C85.7102 81.3832 94.2669 83.0833 99.6519 83.6816C103.303 84.0873 107.033 86.0103 110.702 86.0103C113.716 86.0103 116.254 86.1009 119.086 86.73C123.794 87.7765 129.874 86.7724 134.709 86.7724C145.228 86.7724 157.228 87.01 166.717 82.7925C171.878 80.4987 171.744 76.7674 172.052 71.5303C172.224 68.5969 174.88 60.3695 171.29 58.5746" stroke="#FF4F43" stroke-width="3" stroke-linecap="round"/>
<path d="M117.181 89.0586C117.181 110.106 120.229 130.663 120.229 151.551C120.229 160.696 120.229 169.842 120.229 178.987C120.229 188.117 118.503 197.459 117.223 206.422C116.766 209.623 116.588 211.927 115.064 214.806C112.203 220.209 106.51 224.139 103.293 229.286C100.659 233.501 89.3769 236.2 95.2489 242.072C100.501 247.324 113.923 249.862 120.822 249.862C128.912 249.862 135.056 249.582 142.669 246.814C145.553 245.765 148.15 243.674 150.713 242.072C153.209 240.512 152.237 236.013 152.237 233.477C152.237 227.571 150.197 222.906 146.564 218.235C142.179 212.597 141.44 205.887 138.138 199.945C136.715 197.382 135.632 193.318 135.471 190.418C135.355 188.333 135.34 182.714 134.328 180.892C133.005 178.51 133.947 173.474 133.947 170.773C133.947 167.541 133.947 164.309 133.947 161.077C133.947 152.68 133.947 144.283 133.947 135.886C133.947 121.638 134.709 107.255 134.709 92.8691" stroke="#FF4F43" stroke-width="3" stroke-linecap="round"/>
<path d="M116.418 208.709C124.66 208.709 132.8 211.252 140.044 206.423" stroke="#FF4F43" stroke-width="3" stroke-linecap="round"/>
<path d="M313.041 96.6797C313.041 124.249 310.644 153.362 314.523 180.511C315.364 186.398 314.565 193.035 314.565 198.971C314.565 202.929 315.18 207.405 313.972 211.164C312.929 214.41 311.128 219.064 310.754 222.427C310.32 226.336 305.761 231.451 302.752 233.858C301.138 235.15 300.085 239.231 300.085 241.098C300.085 243.716 304.173 244.447 305.801 245.713C309.309 248.442 319.143 250.283 323.329 247.957C325.251 246.889 329.474 246.592 331.712 246.094C334.214 245.538 337.051 246.177 339.333 244.909C344.09 242.266 348.097 243.886 348.097 236.907C348.097 231.296 348.265 226.744 344.118 222.596C340.206 218.684 338.066 214.43 335.523 209.852C332.125 203.735 333.78 195.543 330.95 189.318C329.223 185.518 329.161 178.579 329.045 174.414C328.909 169.512 328.283 164.844 328.283 159.934C328.283 150.987 328.283 142.039 328.283 133.091C328.283 125.273 328.283 117.454 328.283 109.635C328.283 104.012 326.759 98.6393 326.759 92.8691" stroke="#FF4F43" stroke-width="3" stroke-linecap="round"/>
<path d="M315.327 210.233C318.874 210.233 332.217 214.559 334.38 210.233" stroke="#FF4F43" stroke-width="3" stroke-linecap="round"/>
<path d="M518.047 94.393C518.047 117.195 518.809 140.138 518.809 162.813C518.809 167.096 519.571 171.468 519.571 175.938C519.571 178.44 520.416 182.8 519.401 185.083C516.921 190.664 518.407 197.037 515.93 202.612C515.113 204.448 513.697 209.099 513.474 210.995C513.148 213.766 510.582 216.929 509.494 219.378C507.074 224.824 504.309 231.024 500.688 235.551C495.427 242.127 502.236 242.412 507.377 244.697C513.083 247.232 521.278 246.814 527.573 246.814C533.142 246.814 541.662 246.635 545.482 241.86C549.15 237.276 544.251 229.649 543.238 225.094C541.947 219.284 535.575 213.509 535.575 207.565C535.575 203.91 534.813 200.481 534.813 196.896C534.813 194.405 534.807 187.511 533.67 185.464C532.042 182.535 533.559 177.862 532.145 174.753C530.497 171.125 531.517 166.122 530.96 162.22C529.948 155.134 530.24 147.776 530.24 140.5C530.24 124.729 529.478 109.307 529.478 93.6309" stroke="#FF4F43" stroke-width="3" stroke-linecap="round"/>
<path d="M514.236 208.709C516.859 209.191 539.386 216.491 539.386 210.233" stroke="#FF4F43" stroke-width="3" stroke-linecap="round"/>
<path d="M2.86475 2.17871H627.789" stroke="#FF4F43" stroke-width="3" stroke-linecap="round"/>
<path d="M2.86475 21.9932H640.745" stroke="#FF4F43" stroke-width="3" stroke-linecap="round"/>
<path d="M2.10303 183.56H113.37" stroke="#FF4F43" stroke-width="3" stroke-linecap="round"/>
<path d="M4.38916 197.277H117.18" stroke="#FF4F43" stroke-width="3" stroke-linecap="round"/>
<path d="M135.471 185.084H312.279" stroke="#FF4F43" stroke-width="3" stroke-linecap="round"/>
<path d="M138.519 200.325H311.516" stroke="#FF4F43" stroke-width="3" stroke-linecap="round"/>
<path d="M331.332 185.846H518.047" stroke="#FF4F43" stroke-width="3" stroke-linecap="round"/>
<path d="M334.38 200.325H514.236" stroke="#FF4F43" stroke-width="3" stroke-linecap="round"/>
<path d="M534.051 185.846H630.838" stroke="#FF4F43" stroke-width="3" stroke-linecap="round"/>
<path d="M536.337 201.088H630.076" stroke="#FF4F43" stroke-width="3" stroke-linecap="round"/>
</svg>
