<svg width="811" height="404" viewBox="0 0 811 404" fill="none" xmlns="http://www.w3.org/2000/svg">
<path d="M87.4119 323.101C87.4119 332.405 83.5036 340.417 83.0318 349.382C82.7949 353.883 80.6917 360.67 78.8951 364.712C75.0918 373.269 75.3667 383.391 75.3667 393.182" stroke="#FFE8BA" stroke-width="3" stroke-linecap="round"/>
<path d="M696.243 328.576C652.951 328.576 608.968 326.891 565.935 332.47C533.466 336.679 500.69 336.321 468.235 340.378C438.093 344.146 407.422 342.89 377.105 345.549C346.753 348.212 316.683 349.382 286.219 349.382C261.212 349.382 236.367 350.118 211.697 345.549C201.365 343.636 190.018 340.621 179.515 340.621C171.062 340.621 162.623 337.501 154.208 337.336C130.334 336.868 110.069 330.322 88.1028 323" stroke="#FFE8BA" stroke-width="3" stroke-linecap="round"/>
<path d="M92.3396 318.174C122.081 318.174 146.417 322.413 175.561 327.481C203.328 332.31 233.103 329.671 261.277 329.671C280.438 329.671 299.908 328.864 318.948 331.01C347.067 334.178 375.597 332.956 403.873 332.956C435.311 332.956 466.085 325.715 497.436 324.257C513.704 323.5 529.525 319.733 545.374 316.288C569.489 311.045 595.711 309.85 620.078 314.28C630.657 316.204 642 315.436 652.929 315.436C662.622 315.436 672.315 315.436 682.008 315.436C688.949 315.436 684.175 302.267 683.103 297.977C681.534 291.701 678.589 283.58 672.639 280.335C663.73 275.475 655.845 268.902 646.967 263.97C638.202 259.101 630.494 252.093 621.782 247.301C614.845 243.486 607.139 240.339 600.49 236.108C592.077 230.755 580.298 231.513 570.802 232.762C552.789 235.132 535.645 238.785 517.39 238.785C483.491 238.785 450.161 239.513 416.465 242.009C400.285 243.207 383.745 245.81 367.676 248.153C347.672 251.07 327.465 253.05 307.511 256.062C294.661 258.001 280.235 256.305 267.239 256.305C249.671 256.305 232.102 257.4 214.495 257.4C198.589 257.4 180.42 253.268 164.915 258.252C143.642 265.09 122.78 282.489 108.765 299.619C103.521 306.028 98.2238 312.289 92.3396 318.174ZM92.3396 318.174C90.8388 319.674 83.032 330.341 83.032 325.291" stroke="#FFE8BA" stroke-width="3" stroke-linecap="round"/>
<path d="M395.112 248.64C395.112 260.766 395.112 272.893 395.112 285.019C395.112 291.956 393.119 302.465 395.964 308.866C397.534 312.399 396.207 319.227 396.207 323.101C396.207 326.178 398.838 332.743 398.397 331.861" stroke="#FFE8BA" stroke-width="3" stroke-linecap="round"/>
<path d="M696.242 330.766C696.242 344.008 698.544 356.813 702.569 369.335C704.859 376.46 707.193 383.561 707.193 390.992" stroke="#FFE8BA" stroke-width="3" stroke-linecap="round"/>
<path d="M527.609 372.377C523.814 376.647 521.008 383.596 518.849 388.802C508.348 388.802 498.311 389.393 487.945 391.236C465.279 395.265 440.854 395.372 417.864 395.372C390.235 395.372 362.549 398.658 334.886 398.658C321.688 398.658 308.67 399.753 295.465 399.753C287.599 399.753 276.892 399.403 269.428 401.699C260.87 404.333 258.629 394.953 253.855 389.897C246.633 382.251 240.762 372.592 235.483 363.617C233.391 360.061 232.78 360.769 235.848 362.522C239.313 364.502 241.014 365.807 245.094 365.807C252.353 365.807 259.486 365.564 266.508 366.841C272.206 367.877 278.678 365.547 284.272 367.145C289.745 368.709 295.858 368.611 301.549 369.153C317.42 370.664 333.172 370.212 349.06 369.153C378.838 367.168 407.844 368.519 437.27 363.069C462.961 358.312 489.194 357.379 515.017 353.214C524.808 351.635 534.205 352.089 544.035 351.572C549.045 351.308 548.29 350.358 545.13 354.309C541.569 358.76 534.837 361.431 531.99 366.415C530.402 369.193 529.902 369.798 527.609 372.377Z" stroke="#FFE8BA" stroke-width="3" stroke-linecap="round"/>
<path d="M212.244 392.087C207.096 385.086 203.416 377.751 198.86 370.43C195.162 364.487 189.284 359.85 185.963 353.762C183.085 348.484 178.815 343.846 176.108 338.432" stroke="#FFE8BA" stroke-width="3" stroke-linecap="round"/>
<path d="M212.244 390.992C179.032 390.992 145.626 389.897 112.597 389.897C104.799 389.897 96.6117 390.421 89.054 388.742C83.3617 387.477 74.6218 387.576 69.8911 384.422" stroke="#FFE8BA" stroke-width="3" stroke-linecap="round"/>
<path d="M577.98 389.897C584.231 374.454 592.68 361.69 602.679 348.834C607.138 343.101 612.114 344.944 618.01 342.264C623.454 339.789 631.211 342.535 636.625 340.074C641.339 337.931 647.77 339.645 652.685 338.188C659.644 336.126 667.263 337.493 674.099 335.39C682.237 332.886 703.719 332.308 696.103 328.5" stroke="#FFE8BA" stroke-width="3" stroke-linecap="round"/>
<path d="M576.885 390.992C609.391 390.992 641.897 390.992 674.403 390.992C679.824 390.992 687.049 392.123 692.41 390.932C697.196 389.868 702.568 385.517 707.193 385.517" stroke="#FFE8BA" stroke-width="3" stroke-linecap="round"/>
<path d="M674.342 335.5V390.992" stroke="#FFE8BA" stroke-width="3" stroke-linecap="round"/>
<path d="M108.217 337.336C108.217 354.778 110.407 373.066 110.407 389.897" stroke="#FFE8BA" stroke-width="3" stroke-linecap="round"/>
<path d="M253.855 370.187C261.139 380.094 272.572 389.007 277.945 399.753" stroke="#FFE8BA" stroke-width="3" stroke-linecap="round"/>
<path d="M278.103 368C278.103 376.065 278.427 381.223 281.145 388.562C282.288 391.648 285.768 395.499 285.768 398.661" stroke="#FFE8BA" stroke-width="3" stroke-linecap="round"/>
<path d="M292.103 371C292.103 377.385 292.523 382.237 294.536 388.277C295.507 391.188 297.578 395.335 297.578 398.375" stroke="#FFE8BA" stroke-width="3" stroke-linecap="round"/>
<path d="M315.176 370.187C315.176 381.091 317.103 387.947 317.103 398.5" stroke="#FFE8BA" stroke-width="3" stroke-linecap="round"/>
<path d="M302.103 375C302.103 382.943 304.28 392.501 308.673 399.09" stroke="#FFE8BA" stroke-width="3" stroke-linecap="round"/>
<path d="M330.506 371.282C330.506 382.979 331.603 386.638 331.603 398" stroke="#FFE8BA" stroke-width="3" stroke-linecap="round"/>
<path d="M346.103 370C346.103 379.286 347.103 389.013 347.103 398" stroke="#FFE8BA" stroke-width="3" stroke-linecap="round"/>
<path d="M364.103 372L364.754 396.528" stroke="#FFE8BA" stroke-width="3" stroke-linecap="round"/>
<path d="M374.307 375.662V395.373" stroke="#FFE8BA" stroke-width="3" stroke-linecap="round"/>
<path d="M390.103 368L390.103 396" stroke="#FFE8BA" stroke-width="3" stroke-linecap="round"/>
<path d="M403.103 368L403.103 394" stroke="#FFE8BA" stroke-width="3" stroke-linecap="round"/>
<path d="M417.103 369L417.103 395" stroke="#FFE8BA" stroke-width="3" stroke-linecap="round"/>
<path d="M429.058 364.712V393.183" stroke="#FFE8BA" stroke-width="3" stroke-linecap="round"/>
<path d="M445.103 363V395" stroke="#FFE8BA" stroke-width="3" stroke-linecap="round"/>
<path d="M458.623 365.807L458.103 393" stroke="#FFE8BA" stroke-width="3" stroke-linecap="round"/>
<path d="M475.103 359V392" stroke="#FFE8BA" stroke-width="3" stroke-linecap="round"/>
<path d="M492.103 357L493.103 389" stroke="#FFE8BA" stroke-width="3" stroke-linecap="round"/>
<path d="M513.375 354.857L514.103 389" stroke="#FFE8BA" stroke-width="3" stroke-linecap="round"/>
<path d="M527.609 357.047L527.103 373" stroke="#FFE8BA" stroke-width="3" stroke-linecap="round"/>
<path d="M161.873 257.4C161.873 251.292 160.776 243.723 162.116 237.69C163.391 231.952 165.254 226.833 166.801 221.264C169.863 210.239 173.961 199.501 177.447 188.657C185.712 162.944 197.974 138.472 203.727 112.006C204.673 107.653 208.449 94.2421 213.887 94.2421C219.703 94.2421 226.659 93.4302 231.954 91.2004C239.764 87.912 250.467 88.3343 258.782 87.6112C273.378 86.342 287.479 85.482 302.279 85.482C373.715 85.482 445.527 85.9102 516.659 89.862C532.794 90.7584 549.615 92.0521 565.935 92.0521C578.573 92.0521 574.696 109.76 574.696 118.333" stroke="#FFE8BA" stroke-width="3" stroke-linecap="round"/>
<path d="M571.103 99C583.023 115.211 594.696 135.511 599.881 154.955C603.068 166.905 610.348 179.395 610.831 191.942C611.217 201.971 614.116 211.512 614.116 221.812C614.116 229.765 616.306 237.917 616.306 245.355" stroke="#FFE8BA" stroke-width="3" stroke-linecap="round"/>
<path d="M596.596 237.69C596.596 225.421 597.615 212.663 596.352 200.459C595.286 190.15 591.553 179.664 587.836 170.042C585.388 163.707 582.032 155.508 581.266 148.993C580.708 144.252 576.885 140.012 576.885 134.758C576.885 131.759 575.358 121.949 572.505 120.523" stroke="#FFE8BA" stroke-width="3" stroke-linecap="round"/>
<path d="M572.505 120.523C564.394 120.523 556.283 120.523 548.171 120.523C543.513 120.523 538.836 120.645 534.179 120.523C529.707 120.405 525.444 118.333 520.978 118.333C505.965 118.333 491.146 111.762 476.143 111.762C456.46 111.762 436.739 107.382 417.012 107.382C408.852 107.382 400.907 106.287 392.679 106.287C384.958 106.287 375.191 107.811 367.737 105.74C356.938 102.74 342.026 105.192 330.749 105.192C317.891 105.192 305.042 109.215 292.18 109.572C284.833 109.777 277.627 111.762 270.28 111.762C265.574 111.762 257.043 110.102 252.759 112.006C249.539 113.437 243.671 113.953 240.167 113.953C237.45 113.953 227.566 115.063 226.479 117.238" stroke="#FFE8BA" stroke-width="3" stroke-linecap="round"/>
<path d="M226.479 117.238C221.263 124.123 215.152 130.259 211.149 138.043C207.502 145.134 204.584 152.382 200.807 159.396C195.199 169.811 190.806 180.962 185.72 191.699C180.163 203.429 177.729 216.923 176.047 229.538C174.748 239.279 170.633 250.255 170.633 259.59" stroke="#FFE8BA" stroke-width="3" stroke-linecap="round"/>
<path d="M166.253 220.169C162.099 210.767 158.654 203.744 148.186 203.744C144.718 203.744 141.25 203.744 137.783 203.744C135.016 203.744 128.245 203.968 125.738 205.082C120.12 207.579 111.692 204.734 106.575 207.577C104.418 208.775 100.468 207.597 99.5181 210.923C98.6338 214.017 99.4572 218.622 99.4572 221.812C99.4572 232.809 106.924 245.355 119.715 245.355C122.912 245.355 125.667 247.545 129.023 247.545C133.024 247.545 136.891 248.64 141.068 248.64C144.569 248.64 157.847 252.312 159.683 248.64" stroke="#FFE8BA" stroke-width="3" stroke-linecap="round"/>
<path d="M615.211 205.934C629.24 199.063 645.739 201.554 661.202 201.554C665.744 201.554 674.938 201.836 677.627 206.543C680.706 211.93 678.722 221.699 678.722 227.835C678.722 230.937 678.722 234.04 678.722 237.142C678.722 240.507 673.824 241.385 671.605 242.617C664.594 246.512 653.995 247.545 646.115 247.545C638.884 247.545 610.831 251.42 610.831 240.975" stroke="#FFE8BA" stroke-width="3" stroke-linecap="round"/>
<path d="M362.262 130.378C362.262 141.561 368.684 139.138 377.835 139.138C386.15 139.138 394.464 139.138 402.778 139.138C409.165 139.138 415.553 139.138 421.94 139.138C424.5 139.138 427.963 140.222 427.963 136.948C427.963 133.216 426.035 132.996 423.826 131.229C414.857 124.054 402.355 125.998 391.28 125.998C386.281 125.998 358.977 124.968 358.977 130.378" stroke="#FFE8BA" stroke-width="3" stroke-linecap="round"/>
<path d="M388.542 127.093C390.463 124.452 391.733 119.82 394.869 122.956C395.748 123.835 397.598 126.332 397.242 127.579C396.947 128.609 392.182 128.609 391.888 127.579C390.958 124.324 395.186 124.878 391.827 125.998" stroke="#FFE8BA" stroke-width="3" stroke-linecap="round"/>
<path d="M15.1401 94.2422C28.1993 94.2422 41.2584 94.2422 54.3175 94.2422C61.4977 94.2422 69.0527 93.2755 75.3662 96.4322" stroke="#FFE8BA" stroke-width="3" stroke-linecap="round"/>
<path d="M75.3662 96.4322C87.5277 91.5097 97.6458 83.5862 109.312 78.0602C118.698 73.6141 128.014 70.903 137.782 67.4141C141.253 66.1746 145.697 66.8666 149.341 66.8666C150.562 66.8666 160.496 67.118 157.493 65.5283C147.777 60.3848 137.184 54.8214 125.737 54.8214C106.751 54.8214 88.7267 50.4413 69.6478 50.4413C63.3847 50.4413 57.6743 52.1917 51.5191 52.6314C47.2066 52.9394 39.3603 54.6906 35.4588 56.464C31.5215 58.2536 16.9218 60.0183 15.1401 63.5816" stroke="#FFE8BA" stroke-width="3" stroke-linecap="round"/>
<path d="M157.493 70.1517C163.623 80.2049 173.148 87.3364 178.846 97.4664C180.619 100.618 184.75 108.383 187.606 110.667C189.959 112.55 190.466 117.787 191.682 120.523C193.219 123.982 195.819 129.832 195.819 133.663" stroke="#FFE8BA" stroke-width="3" stroke-linecap="round"/>
<path d="M78.6517 203.744C78.6517 196.31 77.6834 187.967 81.3893 181.296C84.4852 175.723 94.2031 171.228 100.552 170.893C111.413 170.322 126.833 170.875 126.833 185.129C126.833 191.388 126.776 197.015 120.749 200.459C114.887 203.809 108.508 203.615 102.742 206.177C98.0342 208.27 92.0925 209.219 86.8644 209.219C81.9668 209.219 73.3038 206.188 70.9866 201.554" stroke="#FFE8BA" stroke-width="3" stroke-linecap="round"/>
<path d="M62.2262 198.269C48.4638 198.269 34.825 208.669 23.9005 216.641C17.9736 220.966 7.50933 226.671 4.19019 233.31" stroke="#FFE8BA" stroke-width="3" stroke-linecap="round"/>
<path d="M8.57031 256.305C19.4218 256.305 27.732 251.379 35.4591 243.651C39.0494 240.061 43.913 235.365 48.5385 233.31C52.5804 231.513 54.7576 228.114 58.8804 226.739C65.194 224.635 69.3226 218.399 76.4615 217.979C80.9047 217.718 87.7936 214.503 91.7918 212.504" stroke="#FFE8BA" stroke-width="3" stroke-linecap="round"/>
<path d="M124.642 194.984C133.012 194.785 143.546 191.746 150.679 187.319C157.385 183.157 165.843 179.444 171.728 174.179C175.512 170.793 181.003 169.892 184.625 166.27C186.286 164.609 191.247 162.133 193.629 162.133" stroke="#FFE8BA" stroke-width="3" stroke-linecap="round"/>
<path d="M108.217 171.988C132.552 163.715 156.169 153.49 176.656 137.556C180.272 134.743 183.639 133.705 187.545 131.473C190.016 130.06 198.186 124.903 192.533 124.903" stroke="#FFE8BA" stroke-width="3" stroke-linecap="round"/>
<path d="M136.687 154.468C136.687 134.297 127.348 117.636 122.209 98.6222C121.506 96.0214 112.706 77.7076 112.597 77.8169" stroke="#FFE8BA" stroke-width="3" stroke-linecap="round"/>
<path d="M65.5113 198.269C65.5113 182.296 65.4911 166.512 66.6671 150.636C67.5935 138.129 75.0134 126.559 76.4006 114.074C76.8904 109.666 79.5032 104.949 79.7465 100.812C79.8813 98.5212 81.3106 98.1214 79.199 96.4321C78.4186 95.8078 76.9619 93.0529 76.4614 92.0521" stroke="#FFE8BA" stroke-width="3" stroke-linecap="round"/>
<path d="M64.4163 194.984C64.2116 186.589 60.1559 186.099 56.7512 180.14C54.4288 176.076 48.5644 174.895 45.801 171.441C42.1455 166.872 22.1302 165.12 17.9388 169.312C14.7467 172.504 14.0454 176.151 14.0454 180.749C14.0454 187.527 20.6263 186.715 24.9956 188.657C31.4387 191.521 40.1919 189.626 47.1393 191.942C50.7627 193.15 60.5249 193.771 62.2263 197.174" stroke="#FFE8BA" stroke-width="3" stroke-linecap="round"/>
<path d="M14.0454 118.333C24.4785 118.333 35.7938 116.021 44.1584 122.713C47.1063 125.071 53.5776 140.506 57.6029 133.663C62.0355 126.127 63.6597 117.35 69.2831 110.12C71.1206 107.757 73.4989 105.884 75.3665 103.55C76.5422 102.08 78.6453 101.433 79.5032 99.7172C80.5679 97.5878 79.7466 93.2142 79.7466 90.957" stroke="#FFE8BA" stroke-width="3" stroke-linecap="round"/>
<path d="M93.9817 99.7173C103.494 108.95 106.364 114.214 107.122 127.093C107.525 133.95 122.611 134.287 126.832 131.473" stroke="#FFE8BA" stroke-width="3" stroke-linecap="round"/>
<path d="M3.09546 301.201C13.4735 301.201 23.2008 299.958 32.1135 306.128C35.7869 308.672 40.0332 311.405 42.2728 315.436C44.0208 318.582 44.4395 322.527 46.8962 325.291C49.8835 328.652 53.4664 337.836 53.4664 342.264C53.4664 345.732 53.4664 349.199 53.4664 352.667C53.4664 353.867 53.4664 361.187 53.4664 357.047" stroke="#FFE8BA" stroke-width="3" stroke-linecap="round"/>
<path d="M8.57031 335.146C17.0813 338.73 22.3852 342.14 26.334 350.477C28.6052 355.272 31.5657 360.964 31.5657 366.355C31.5657 375.986 31.442 385.765 27.1856 394.278" stroke="#FFE8BA" stroke-width="3" stroke-linecap="round"/>
<path d="M45.8011 398.658C45.8011 385.555 42.4198 370.928 58.9413 369.092C61.7164 368.784 63.3214 366.638 63.3214 370.735C63.3214 373.107 63.3214 375.48 63.3214 377.852C63.3214 383.172 64.4164 388.052 64.4164 393.182" stroke="#FFE8BA" stroke-width="3" stroke-linecap="round"/>
<path d="M35.9456 306.676C52.1326 295.774 67.5673 282.902 84.3698 272.974C92.7294 268.034 101.624 264.713 109.859 260.138C112.407 258.722 116.683 258.949 118.924 257.157C120.74 255.704 125.632 255.067 126.832 253.567C130.059 249.534 145.138 245.355 139.972 245.355" stroke="#FFE8BA" stroke-width="3" stroke-linecap="round"/>
<path d="M33.7559 312.151C41.2089 311.969 48.9045 307.004 55.7171 303.938C62.7522 300.773 69.1125 296.618 75.6099 292.441C84.9643 286.427 98.0077 282.928 108.461 279.057C116.668 276.017 142.163 269.077 142.163 257.4" stroke="#FFE8BA" stroke-width="3" stroke-linecap="round"/>
<path d="M686.387 158.848C686.387 137.324 696.217 110.788 711.33 95.0938C717.076 89.1268 719.814 84.387 728.242 84.387C739.422 84.387 750.779 84.9746 761.944 84.387C770.644 83.9291 779.955 78.9119 788.224 78.9119" stroke="#FFE8BA" stroke-width="3" stroke-linecap="round"/>
<path d="M695.148 185.129C695.148 188.571 693.618 194.097 697.885 195.045C701.86 195.928 705.252 198.55 709.322 199.364C712.529 200.005 716.274 200.48 719.238 201.797C720.986 202.574 724.147 204.404 721.185 200.702C719.89 199.084 720.062 194.986 718.691 193.889C716.111 191.825 714.152 190.898 711.026 189.509C705.551 187.076 700.415 183.382 695.148 180.749" stroke="#FFE8BA" stroke-width="3" stroke-linecap="round"/>
<path d="M763.039 221.264C756.16 226.476 754.79 232.142 764.134 233.31C767.726 233.759 774.336 239.887 777.031 242.313C778.745 243.856 776.593 231.363 774.841 229.173C771.716 225.267 767.575 222.437 763.039 220.169" stroke="#FFE8BA" stroke-width="3" stroke-linecap="round"/>
<path d="M753.184 325.291C735.362 325.291 720.549 315.544 705.003 307.771C703.099 306.819 693.093 302.41 692.958 300.106C692.765 296.83 690.776 294.631 687.482 294.631" stroke="#FFE8BA" stroke-width="3" stroke-linecap="round"/>
<path d="M679.817 240.975C695.55 241.349 696.242 254.376 696.242 266.708C696.242 277.84 696.242 288.973 696.242 300.106" stroke="#FFE8BA" stroke-width="3" stroke-linecap="round"/>
<path d="M701.718 279.3C712.468 281.408 720.824 288.015 730.736 291.893C736.996 294.343 744.022 297.665 749.351 301.809C753.405 304.962 757.345 308.339 761.335 311.604C763.77 313.596 758.973 306.535 758.05 304.425C748.957 283.641 748.804 261.22 748.804 238.785C748.804 228.477 746.199 213.022 752.94 204.596C753.687 203.662 753.184 194.214 753.184 199.912C753.184 204.877 746.129 197.689 744.971 197.174C740.295 195.096 736.157 190.901 731.283 189.509C727.089 188.311 720.997 185.098 717.595 182.452C711.244 177.512 701.374 175.486 694.053 172.232C688.942 169.961 673.13 165.418 678.722 165.418" stroke="#FFE8BA" stroke-width="3" stroke-linecap="round"/>
<path d="M686.387 161.038C709.341 170.004 729.885 183.624 751.054 195.531C763.043 202.275 775.205 208.5 787.19 215.242C791.656 217.754 796.295 219.81 800.756 222.359C802.91 223.59 808.075 225.925 809.03 227.834" stroke="#FFE8BA" stroke-width="3" stroke-linecap="round"/>
<path d="M750.993 191.699C750.993 179.999 752.284 169.769 754.278 158.301C755.307 152.385 758.04 140.446 761.944 135.853C765.631 131.515 768.113 125.845 771.19 121.009C772.979 118.199 774.533 110.943 777.274 109.572" stroke="#FFE8BA" stroke-width="3" stroke-linecap="round"/>
<path d="M795.89 109.572C786.195 107.827 776.88 104.47 767.662 101.056C763.765 99.6121 759.682 97.207 755.921 96.3713C748.019 94.6153 740.211 86.577 732.378 86.577" stroke="#FFE8BA" stroke-width="3" stroke-linecap="round"/>
<path d="M677.627 164.323C668.417 164.323 659.496 164.752 650.495 165.418C642.849 165.985 633.768 169.033 626.405 171.137C621.519 172.533 613.362 173.03 609.493 176.125C606.664 178.388 606.451 184.106 606.451 188.414" stroke="#FFE8BA" stroke-width="3" stroke-linecap="round"/>
<path d="M646.967 161.038C640.653 152.704 630.801 149.253 623.485 141.936C618.978 137.43 613.604 133.987 608.094 130.925C602.875 128.026 591.576 123.624 588.931 118.333" stroke="#FFE8BA" stroke-width="3" stroke-linecap="round"/>
<path d="M588.931 118.333C594.771 118.333 600.611 118.333 606.451 118.333C610.552 118.333 609.736 116.458 609.736 112.857C609.736 106.71 605.961 102.999 601.828 98.8655C597.448 94.4855 592.837 93.1471 586.741 93.1471C582.449 93.1471 572.389 93.3797 570.315 97.5272" stroke="#FFE8BA" stroke-width="3" stroke-linecap="round"/>
<path d="M571.41 97.5272C571.41 86.3629 569.441 73.4507 574.148 63.0949C576.942 56.9474 579.54 50.8398 583.456 44.9663" stroke="#FFE8BA" stroke-width="3" stroke-linecap="round"/>
<path d="M583.456 44.9663C596.892 44.9663 608.361 45.1736 619.591 51.7797C623.965 54.3523 626.036 66.5844 628.108 71.2467C630.717 77.1166 631.637 86.7346 631.637 93.1471C631.637 99.0582 633.827 106.111 633.827 111.762" stroke="#FFE8BA" stroke-width="3" stroke-linecap="round"/>
<path d="M629.446 115.048C629.446 100.22 628.856 83.9801 622.876 70.1517C621.425 66.7962 620.127 62.8387 619.53 59.2624C618.939 55.7105 616.703 57.2331 615.211 55.369C610.595 49.5986 595.264 50.4414 588.383 50.4414C586.748 50.4414 573.927 50.2644 579.623 54.8215C583.066 57.5759 578.562 68.7663 576.886 71.4901C571.529 80.1951 570.315 88.5399 570.315 98.6222" stroke="#FFE8BA" stroke-width="3" stroke-linecap="round"/>
<path d="M596.596 97.5272C596.596 92.2818 595.911 86.3226 596.657 81.1019C597.201 77.2918 600.491 73.1593 602.071 69.6042C603.157 67.1615 604.49 65.2466 606.208 63.3382C607.217 62.2164 609.884 58.1065 609.736 58.1065" stroke="#FFE8BA" stroke-width="3" stroke-linecap="round"/>
<path d="M614.116 123.808C627.43 123.275 640.392 119.592 653.598 118.272C661.654 117.466 669.48 117.238 677.627 117.238C683.304 117.238 689.202 116.143 694.6 116.143C696.984 116.143 697.05 116.606 698.103 114.5" stroke="#FFE8BA" stroke-width="3" stroke-linecap="round"/>
<path d="M692.103 126C681.94 126 671.778 126 661.615 126C654.501 126 648.504 127.391 641.602 128.312C637.251 128.893 629.646 130.022 625.743 131.875C621.75 133.771 616.844 133.002 613.103 135" stroke="#FFE8BA" stroke-width="3" stroke-linecap="round"/>
<path d="M621.781 52.6314C664.852 52.6314 707.923 52.6314 750.994 52.6314C765.385 52.6314 784.506 57.2389 791.51 71.2467" stroke="#FFE8BA" stroke-width="3" stroke-linecap="round"/>
<path d="M798.079 66.8667C781.927 57.2523 764.204 46.0654 745.518 44.9663C739.017 44.5838 731.886 42.7763 724.774 42.7763C715.017 42.7763 705.316 40.5862 695.391 40.5862C687.593 40.5862 680.117 42.7763 672.7 42.7763C669.037 42.7763 664.868 43.4084 661.202 43.9321C657.55 44.4538 652.523 44.4008 649.157 45.818C643.441 48.2248 634.038 47.1563 627.804 47.1563C621.776 47.1563 616.525 50.4414 610.831 50.4414" stroke="#FFE8BA" stroke-width="3" stroke-linecap="round"/>
<path d="M587.836 44.9662C596.349 44.9662 605.394 45.7486 613.569 43.932C617.388 43.0833 621.986 42.7762 625.918 42.7762C630.106 42.7762 634.149 40.8116 638.207 40.5861C644.642 40.2287 653.562 40.1556 659.56 37.8486C667.4 34.833 680.188 37.3011 688.578 37.3011C695.822 37.3011 702.997 36.9161 709.931 38.4569C713.574 39.2665 721.174 40.3829 723.862 42.5328C724.762 43.2527 729.5 43.8712 730.736 43.8712C732.443 43.8712 735.738 45.7377 737.306 46.6087C739.484 47.8189 743.041 48.1055 745.519 48.2513C747.694 48.3792 749.721 50.4413 752.089 50.4413" stroke="#FFE8BA" stroke-width="3" stroke-linecap="round"/>
<path d="M627.256 89.862C629.479 87.0165 632.531 84.7126 632.731 81.1019C632.819 79.5315 634.749 76.4075 635.773 75.3834C637.497 73.6591 637.703 71.2467 640.397 71.2467C643.487 71.2467 645.998 70.1517 649.157 70.1517C654.8 70.1517 661.202 68.2169 661.202 75.6268C661.202 78.4926 660.34 82.8557 661.445 85.4819C662.369 87.6768 661.199 92.322 662.54 93.9988C669.065 102.155 680.851 99.1123 689.672 98.6222C693.628 98.4024 700.32 96.0798 703.908 94.4854C705.463 93.7943 708.487 92.8592 709.626 93.9988C710.666 95.0385 711.573 98.7959 711.573 95.3371" stroke="#FFE8BA" stroke-width="3" stroke-linecap="round"/>
<path d="M545.103 91C541.352 86.1995 537.953 84.8768 535.275 79.5202C532.532 74.0343 528.149 66.311 523.777 61.9391C520.201 58.3624 517.692 54.7935 512.827 52.6314C507.858 50.4232 502.024 44.2967 496.706 43.8713C487.52 43.1364 478.776 41.6812 469.33 41.6812C460.489 41.6812 451.648 41.6812 442.807 41.6812C426.826 41.6812 410.727 42.7762 394.565 42.7762C368.971 42.7762 343.262 44.9663 317.914 44.9663C307.149 44.9663 296.18 49.4984 291.329 59.2015C288.477 64.9046 284.927 70.3202 282.325 76.1743C281.351 78.3667 278.646 80.5649 278.006 82.8053C277.175 85.7139 277.945 85.8765 277.945 88.7671" stroke="#FFE8BA" stroke-width="3" stroke-linecap="round"/>
<path d="M289.99 87.672C293.089 80.0154 298.79 69.0398 304.469 62.7299C308.746 57.9771 318.069 55.9164 324.483 55.9164C336.261 55.9164 348.647 54.1752 360.315 53.7264C376.381 53.1085 392.604 53.7264 408.678 53.7264C443.56 53.7264 478.423 52.6314 513.374 52.6314C520.106 52.6314 526.063 65.0129 527.67 70.6384C529.506 77.0622 535.275 83.8076 535.275 90.9571" stroke="#FFE8BA" stroke-width="3" stroke-linecap="round"/>
<path d="M526.603 90.5001C508.416 90.5001 486.319 89.2977 470.06 80.0069C467.701 78.6589 464.847 75.3495 462.76 73.6801C459.473 71.0508 446.875 71.2468 442.806 71.2468C431.447 71.2468 418.715 69.9558 407.705 72.4026C395.856 75.0357 383.334 76.7219 371.022 76.7219C363.173 76.7219 354.464 78.8825 349.973 71.2468C346.089 64.6442 330.685 65.9864 325.031 68.8134C318.263 72.197 310.88 77.2547 305.32 82.197C300.139 86.8029 285.41 91.6512 281.23 83.292" stroke="#FFE8BA" stroke-width="3" stroke-linecap="round"/>
<path d="M249.475 72.3418C227.939 72.3418 206.404 72.3418 184.869 72.3418C180.13 72.3418 160.778 74.7599 160.778 69.0567C160.778 58.9334 166.056 50.3587 170.877 41.6812C173.486 36.984 176.742 32.6949 179.393 28.0543C181.692 24.0317 186.871 25.2559 190.83 25.2559C196.293 25.2559 201.36 27.446 206.769 27.446C211.696 27.446 216.624 27.446 221.552 27.446C226.56 27.446 231.569 27.446 236.578 27.446C241.405 27.446 243.659 28.5218 247.771 29.6969C249.648 30.233 254.851 37.5893 255.801 39.4912C258.15 44.1883 258.842 48.4456 258.174 53.7873C257.437 59.6853 253.411 64.9558 250.813 70.1517C249.662 72.4538 248.173 74.4589 247.041 76.7219C246.321 78.1631 245.095 82.4006 245.095 78.9119" stroke="#FFE8BA" stroke-width="3" stroke-linecap="round"/>
<path d="M257.14 73.4367C257.14 68.7831 255.66 60.8635 257.687 56.4031C259.156 53.1728 261.47 50.751 263.163 47.7038C266.341 41.9828 273.461 37.3011 280.135 37.3011C286.616 37.3011 293.755 34.7918 300.393 36.2669C305.058 37.3036 311.891 44.7606 311.891 49.3463" stroke="#FFE8BA" stroke-width="3" stroke-linecap="round"/>
<path d="M321.746 49.3463C314.228 44.8712 304.844 41.0576 298.507 35.3544C296.619 33.6552 292.367 32.0307 289.991 30.9743C287.728 29.9685 281.517 28.6258 280.135 26.8984C276.002 21.7311 261.456 23.0658 255.497 23.0658C246.571 23.0658 237.809 21.9708 228.669 21.9708C216.877 21.9708 206.224 26.2354 194.724 27.4459C190.15 27.9274 175.826 28.6197 172.823 32.3735C170.49 35.2901 166.858 35.9939 164.611 40.0386C162.781 43.3321 161.224 46.4281 159.683 49.8938C158.081 53.4997 156.318 57.0179 155.242 60.7832C154.845 62.1726 153.509 63.5658 153.052 65.1633C152.826 65.9544 152.018 68.9493 152.018 67.9616" stroke="#FFE8BA" stroke-width="3" stroke-linecap="round"/>
<path d="M183.773 98.6222H210.054" stroke="#FFE8BA" stroke-width="3" stroke-linecap="round"/>
<path d="M165.158 57.0115C170.706 57.0115 176.197 56.6457 181.097 58.0457C182.895 58.5595 184.612 59.2015 186.511 59.2015C191.071 59.2015 194.892 57.0264 198.009 53.7264C200.325 51.2736 198.483 44.5872 200.746 42.7762C203.792 40.3394 208.831 40.5862 212.792 40.5862C224.434 40.5862 216.045 56.3105 220.518 60.7832C222.451 62.717 230.374 61.3916 233.049 61.3916C237.621 61.3916 241.573 62.4866 246.19 62.4866" stroke="#FFE8BA" stroke-width="3" stroke-linecap="round"/>
<path d="M121.357 61.3915C111.207 35.4527 94.7491 16.4957 65.5111 16.4957C60.4419 16.4957 55.5235 15.1038 50.1809 15.4007C44.2197 15.7318 38.0076 19.7807 32.113 19.7807C27.6527 19.7807 21.4552 23.1833 16.7828 24.2217C11.9742 25.2902 6.16636 26.4577 2 28.5409" stroke="#FFE8BA" stroke-width="3" stroke-linecap="round"/>
<path d="M24.9959 59.2015C26.6667 53.2893 30.3056 47.93 34.6077 43.6279C36.2132 42.0224 37.0411 41.3047 37.0411 38.9437C37.0411 32.4497 34.7297 32.9211 28.8284 32.9211C20.4529 32.9211 10.355 32.5763 3.09546 36.2061" stroke="#FFE8BA" stroke-width="3" stroke-linecap="round"/>
<path d="M30.4707 55.9164C32.856 50.1635 36.8393 48.614 39.4742 43.8712C40.7429 41.5876 44.0213 37.5011 46.2877 36.206C49.1014 34.5982 49.7261 32.921 53.4661 32.921C56.5687 32.921 59.6712 32.921 62.7738 32.921C68.3102 32.921 71.7607 36.2279 72.0814 41.6811C72.2241 44.1066 73.1765 46.9506 73.1765 49.8938C73.1765 51.6727 74.2715 58.7125 74.2715 53.7263" stroke="#FFE8BA" stroke-width="3" stroke-linecap="round"/>
<path d="M85.2217 52.6314C85.2217 47.8863 85.2217 43.1412 85.2217 38.3962C85.2217 34.4755 86.3722 36.1617 88.7501 34.2594C91.1807 32.3149 101.025 34.6078 102.742 36.7536C108.425 43.8573 114.182 51.4215 118.072 59.2015" stroke="#FFE8BA" stroke-width="3" stroke-linecap="round"/>
<path d="M109.312 31.826C120.295 23.5054 132.91 20.8758 146.482 20.8758C150.168 20.8758 160.479 19.0787 160.778 24.1608C160.973 27.4809 166.767 32.6301 169.538 34.016" stroke="#FFE8BA" stroke-width="3" stroke-linecap="round"/>
<path d="M113.692 47.1563C116.654 47.1563 122.424 48.5222 124.095 45.5138C124.975 43.9297 126.094 40.5199 127.38 39.4912C130.288 37.1648 127.657 29.9552 133.403 29.636C135.44 29.5228 137.776 27.1404 139.425 27.5068C142.117 28.1049 144.976 30.6679 147.09 32.3127C149.341 34.0631 148.579 35.6175 148.733 38.3961C148.901 41.4263 152.919 43.0767 155.303 43.8712" stroke="#FFE8BA" stroke-width="3" stroke-linecap="round"/>
<path d="M125.738 55.9164H152.018" stroke="#FFE8BA" stroke-width="3" stroke-linecap="round"/>
<path d="M162.968 28.5409C168.637 24.4633 173.481 20.1815 178.846 16.009C182.686 13.0217 188.848 14.3056 193.628 14.3056C199.677 14.3056 219.909 10.9873 219.909 19.7807" stroke="#FFE8BA" stroke-width="3" stroke-linecap="round"/>
<path d="M230.859 19.7809C241.634 9.00575 250.662 3.35556 265.9 3.35556C268.235 3.35556 278.687 7.65106 279.892 9.92568C282.826 15.4676 287.8 16.7143 287.8 24.1609" stroke="#FFE8BA" stroke-width="3" stroke-linecap="round"/>
<path d="M285.61 25.2559C292.845 6.71731 306.544 4.45051 325.031 4.45051C327.795 4.45051 331.625 3.75348 334.278 4.51135C337.832 5.527 336.715 8.32288 338.719 9.92561C342.233 12.7371 344.858 19.8391 349.121 21.9708" stroke="#FFE8BA" stroke-width="3" stroke-linecap="round"/>
<path d="M332.696 46.0613C338.348 31.764 346.085 17.9393 360.071 10.169C378.784 -0.226771 400.168 2.26054 421.149 2.26054C428.895 2.26054 436.642 2.26054 444.388 2.26054C452.445 2.26054 454.317 3.34328 459.475 9.074C463.393 13.4279 464.746 19.8205 469.33 24.4043C473.334 28.4082 476.948 34.5313 479.428 39.4912" stroke="#FFE8BA" stroke-width="3" stroke-linecap="round"/>
<path d="M343.646 39.4911C347.363 29.1685 358.774 17.9468 368.284 12.6631C374.539 9.1885 383.071 13.2107 390.185 13.2107C393.47 13.2107 396.755 13.2107 400.04 13.2107C402.459 13.2107 407.958 11.8022 405.211 14.549C400.935 18.8251 392.213 23.7807 391.827 30.731C391.709 32.8662 390.187 38.3334 388.786 39.7345C387.711 40.8087 387.447 32.3916 387.447 31.2785C387.447 27.4406 388.748 24.1608 384.162 24.1608C380.496 24.1608 377.454 23.0658 373.76 23.0658C369.511 23.0658 369.16 24.4463 367.189 27.9934C364.732 32.4172 366.39 34.7212 360.315 37.0577C352.92 39.902 346.102 39.4911 338.171 39.4911" stroke="#FFE8BA" stroke-width="3" stroke-linecap="round"/>
<path d="M398.397 46.0613C398.55 39.1947 400.214 34.4211 402.777 28.2976C404.018 25.3337 407.389 21.982 408.192 19.1725C409.441 14.7992 414.385 14.8531 417.013 11.5682C419.351 8.64469 436.935 11.0207 441.103 11.0207C448.379 11.0207 457.812 6.7322 461.908 15.9483C465.119 23.1726 471.473 28.7638 473.954 36.2061" stroke="#FFE8BA" stroke-width="3" stroke-linecap="round"/>
<path d="M479.429 39.4911C492.181 23.9394 508.173 12.1612 528.705 11.0206C543.416 10.2033 558.378 11.0206 573.114 11.0206C593.179 11.0206 611.915 14.5613 631.211 17.5299C635.963 18.2611 641.207 19.5216 645.872 19.7808C649.217 19.9666 651.059 24.8588 654.632 25.2559C656.729 25.4888 666.8 32.0719 667.772 34.016" stroke="#FFE8BA" stroke-width="3" stroke-linecap="round"/>
<path d="M611.926 36.2061C602.804 23.1179 630.245 29.654 634.678 26.1076C640.453 21.4874 648.873 31.6843 653.537 34.0161" stroke="#FFE8BA" stroke-width="3" stroke-linecap="round"/>
<path d="M594.406 40.5862C587.135 40.4378 581.151 37.1284 574.695 34.2594C570.716 32.4906 566.558 32.7114 562.65 30.9743C558.924 29.3181 552.557 29.636 548.415 29.636C544.035 29.636 539.655 29.636 535.275 29.636C526.361 29.636 518.7 31.3476 510.089 31.826C505.587 32.0761 500.601 32.6573 495.854 32.921C492.858 33.0875 487.125 40.0545 490.379 41.6812" stroke="#FFE8BA" stroke-width="3" stroke-linecap="round"/>
<path d="M506.804 42.7762C513.088 38.2064 516.895 38.3961 524.325 38.3961C530.437 38.3961 531.99 41.1615 531.99 47.1562C531.99 51.8082 530.853 57.5779 534.423 61.1482C537.199 63.9242 542.086 66.4067 546.225 66.8666C549.679 67.2503 556.834 70.4771 557.175 64.6766C557.359 61.5547 562.896 57.2523 565.084 55.0647C567.039 53.1096 569.128 46.4834 572.506 46.0612C574.176 45.8525 576.918 44.2185 578.528 43.3237C581.547 41.6469 581.687 42.7762 584.551 42.7762" stroke="#FFE8BA" stroke-width="3" stroke-linecap="round"/>
<path d="M679.817 37.3011C686.917 28.2131 698.328 20.4214 708.227 14.8532C710.544 13.55 712.136 11.0207 714.858 11.0207C717.413 11.0207 719.968 11.0207 722.523 11.0207C734.386 11.0207 746.248 11.0207 758.111 11.0207C767.251 11.0207 777.338 22.6912 781.654 30.2443C786.34 38.4451 793.911 44.5061 796.984 53.7264" stroke="#FFE8BA" stroke-width="3" stroke-linecap="round"/>
<path d="M781.654 52.6314C781.654 44.1392 778.395 39.8566 776.24 32.3127C775.211 28.712 763.893 27.4459 760.301 27.4459C754.89 27.4459 750.266 24.9122 744.424 25.2559C741.755 25.4128 743.149 36.1162 745.519 37.3011" stroke="#FFE8BA" stroke-width="3" stroke-linecap="round"/>
<path d="M732.378 39.4912C725.53 34.4555 717.896 29.852 711.573 24.1609C703.569 16.9575 708.519 26.0796 703.908 26.3509C696.553 26.7835 686.947 27.9581 684.197 36.2061" stroke="#FFE8BA" stroke-width="3" stroke-linecap="round"/>
<path d="M221.631 235.692C221.631 228.65 220.305 219.934 223.231 213.352C224.126 211.338 224.73 209.36 225.713 207.394C227.145 204.531 231.813 203.545 234.539 202.181C245.848 196.527 256.844 190.036 267.801 184.557" stroke="#FFE8BA" stroke-width="3" stroke-linecap="round"/>
<path d="M268.298 184.557C268.298 179.804 268.493 175.078 267.774 170.408C267.309 167.388 266.809 164.843 266.809 161.72" stroke="#FFE8BA" stroke-width="3" stroke-linecap="round"/>
<path d="M266.809 162.217C266.809 155.571 267.997 149.864 270.67 143.848C272.618 139.465 271.595 133.753 276.517 130.94C281.356 128.175 288.787 127.961 294.224 127.961C298.066 127.961 301.887 127.465 305.78 127.465C308.086 127.465 312.289 126.735 314.22 128.237C317.924 131.118 321.871 133.13 323.901 137.697C325.65 141.633 323.652 147.058 323.901 151.295C323.937 151.899 324.872 152.486 325.28 152.894C326.055 153.669 325.887 154.451 325.887 155.515C325.887 158.742 324.817 161.573 324.37 164.699C323.833 168.46 323.054 172.262 322.908 176.117C322.812 178.677 321.915 181.216 321.915 183.785C321.915 184.697 322.248 186.129 321.419 186.543" stroke="#FFE8BA" stroke-width="3" stroke-linecap="round"/>
<path d="M320.922 186.543C324.636 186.543 328.35 186.543 332.064 186.543C336.094 186.543 340.385 188.912 344.255 190.018C348.446 191.216 353.515 192.388 355.784 196.472C356.866 198.419 358.525 200.953 359.866 202.678C361.525 204.811 362.083 208.812 362.872 211.338C364.148 215.421 366.099 220.5 366.099 224.77" stroke="#FFE8BA" stroke-width="3" stroke-linecap="round"/>
<path d="M268.298 183.068C269.55 185.09 271.331 187.729 273.262 189.246C274.557 190.263 276.319 191.144 277.455 192.28C278.524 193.35 280.628 195.387 282.199 195.479C287.662 195.801 292.934 198.741 298.471 198.954C300.659 199.038 302.962 199.451 305.284 199.451C308.485 199.451 311.266 197.368 313.972 195.865C315.369 195.089 317.667 193.033 318.66 191.756C320.006 190.025 319.025 187.358 319.929 185.55" stroke="#FFE8BA" stroke-width="3" stroke-linecap="round"/>
<path d="M265.319 160.727C261.296 160.727 258.709 160.902 255.004 162.327C252.511 163.286 249.909 164.708 247.447 165.802C245.507 166.664 244.444 167.088 243.089 168.781C241.667 170.558 241.567 173.488 240.607 175.621C238.017 181.376 238.899 187.638 237.132 193.383C236.651 194.944 236.525 197.373 236.525 198.954C236.525 201.177 236.028 203.148 236.028 205.408" stroke="#FFE8BA" stroke-width="3" stroke-linecap="round"/>
<path d="M192.341 177.11C199.291 177.11 206.241 177.11 213.192 177.11C216.924 177.11 220.542 175.621 224.114 175.621C226.896 175.621 229.797 174.628 232.443 174.628C234.962 174.628 237.481 174.628 240 174.628" stroke="#FFE8BA" stroke-width="3" stroke-linecap="round"/>
<path d="M326.383 159.238C330.713 161.033 332.525 167.447 329.472 171.263C328.175 172.885 328.658 175.125 325.886 175.125C324.307 175.125 321.95 176.684 320.922 174.628" stroke="#FFE8BA" stroke-width="3" stroke-linecap="round"/>
<path d="M329.362 170.656C348.595 170.656 367.828 170.656 387.061 170.656C393.441 170.656 399.821 170.656 406.202 170.656C409.952 170.656 413.413 169.518 417.013 168.671C421.557 167.602 427.021 165.692 431.521 165.692C433.952 165.692 439.912 165.513 441.064 163.21" stroke="#FFE8BA" stroke-width="3" stroke-linecap="round"/>
<path d="M421.206 222.784C421.206 217.295 420.301 210.958 422.088 205.794C422.974 203.234 426.316 200.619 428.652 199.451C432.204 197.675 436.192 194.852 440.071 193.99C446.266 192.613 452.441 188.381 457.916 185.302C463.399 182.218 468.856 178.603 474.823 176.614" stroke="#FFE8BA" stroke-width="3" stroke-linecap="round"/>
<path d="M439.078 192.5C439.078 184.897 439.078 177.294 439.078 169.691C439.078 166.174 440.949 162.709 444.291 161.224C450.293 158.556 456.847 155.266 463.404 155.266" stroke="#FFE8BA" stroke-width="3" stroke-linecap="round"/>
<path d="M477.305 175.621C477.305 170.212 477.732 165.077 476.285 160.01C475.403 156.924 474.326 153.189 474.326 149.805C474.326 146.625 473.4 141.797 474.933 138.884C476.847 135.247 480.871 132.262 484.642 131.051C493.625 128.163 502.16 126.115 511.533 128.458C519.16 130.365 521.986 142.798 521.986 149.364C521.986 155.671 521.986 161.978 521.986 168.285C521.986 171.872 520.497 175.172 520.497 178.6C520.497 180.514 520.441 185.231 519.228 186.791C517.064 189.573 512.202 191.011 508.83 191.011C504.445 191.011 500.059 191.011 495.674 191.011C493.509 191.011 492.049 191.358 490.461 189.77C489.228 188.537 487.477 186.8 486.848 185.164C484.897 180.091 478.298 178.831 478.298 173.139" stroke="#FFE8BA" stroke-width="3" stroke-linecap="round"/>
<path d="M523.475 162.217C542.507 162.217 599.599 162.713 580.567 162.713" stroke="#FFE8BA" stroke-width="3" stroke-linecap="round"/>
<path d="M520.993 183.068C525.056 184.653 528.866 186.831 533.184 187.646C539.319 188.804 545.251 191.242 551.277 192.749C556.728 194.111 562.107 196.995 567.163 199.451C569.001 200.343 570.886 201.188 572.376 202.678C576.011 206.313 577.458 210.263 578.692 215.337C579.524 218.759 579.769 222.384 580.816 225.735C581.457 227.788 582.553 230.575 582.553 232.713" stroke="#FFE8BA" stroke-width="3" stroke-linecap="round"/>
<path d="M471.844 219.309C474.914 214.349 481.335 211.098 486.627 208.883C490.257 207.364 494.343 206.768 497.88 205.16C500.583 203.931 504.615 203.919 507.561 203.919C511.333 203.919 514.746 204.641 518.4 204.912C520.531 205.07 524.818 206.475 526.343 208.001C526.992 208.65 528.038 209.317 528.936 209.766C530.151 210.373 530.865 211.782 532.163 212.359C537.211 214.602 538.258 220.578 540.354 224.77" stroke="#FFE8BA" stroke-width="3" stroke-linecap="round"/>
<path d="M170.497 255.55C177.664 255.55 185.323 253.434 192.23 251.578C202.711 248.763 213.109 245.665 223.59 242.89C227.157 241.946 230.615 240.691 234.153 239.664C237.501 238.692 241.269 238.242 244.468 236.933C251.596 234.017 259.74 233.536 267.305 232.603C286.188 230.275 305.36 230.231 324.37 230.231C332.521 230.231 340.867 230.764 348.999 230.203C353.522 229.891 358.108 229.238 362.624 229.238" stroke="#FFE8BA" stroke-width="3" stroke-linecap="round"/>
<path d="M361.631 229.238C391.693 229.238 421.69 229.054 451.71 227.776C468.613 227.057 485.584 227.252 502.514 227.252C515.545 227.252 528.623 227.749 541.596 227.749C548.75 227.749 556.029 228.245 563.247 228.245C564.413 228.245 570.063 227.591 570.638 228.742" stroke="#FFE8BA" stroke-width="3" stroke-linecap="round"/>
<path d="M570.638 228.742C573.038 228.742 575.855 228.357 578.085 229.348C579.727 230.078 581.728 231.224 583.546 231.224" stroke="#FFE8BA" stroke-width="3" stroke-linecap="round"/>
<path d="M523.475 158.742C523.475 150.37 524.567 141.528 519.228 134.664C517.286 132.168 515.924 127.304 512.305 126.5C507.531 125.439 502.954 124.983 498.046 124.983C488.112 124.983 478.217 126.186 471.623 134.664C469.893 136.888 467.055 139.211 466.41 142.11C465.906 144.381 464.741 150.483 466.273 152.398C466.786 153.04 466.383 152.936 466.383 151.791C466.383 150.667 466.241 149.419 466.493 148.316C467.236 145.068 468.862 141.593 470.354 138.608C473.564 132.188 478.591 128.15 483.979 123.742C491.216 117.821 503.617 121.862 511.45 124.1C515.387 125.225 520.444 126.017 523.585 128.844C526.405 131.382 526.935 135.367 528.191 138.883C530.176 144.442 527.943 150.132 527.943 155.735C527.943 157.979 527.943 160.222 527.943 162.465C527.943 163.59 526.95 166.817 526.95 165.692" stroke="#FFE8BA" stroke-width="3" stroke-linecap="round"/>
<path d="M322.908 153.281C317.339 149.061 311.15 146.154 304.567 144.096C301.898 143.262 298.172 141.366 295.355 141.366C292.376 141.366 289.397 141.366 286.419 141.366C281.433 141.366 277.014 144.542 274.642 148.813C273.007 151.756 271.621 154.694 270.174 157.749C269.632 158.892 269.074 160.006 268.298 160.976C267.621 161.822 266.201 161.944 265.816 162.713" stroke="#FFE8BA" stroke-width="3" stroke-linecap="round"/>
</svg>
