<svg width="447" height="526" viewBox="0 0 447 526" fill="none" xmlns="http://www.w3.org/2000/svg">
<path d="M5.13942 45.0403C5.13942 82.3665 2.45972 120.984 5.22058 158.256C6.7427 178.805 13.5376 199.149 18.6117 218.881C24.2334 240.743 28.9561 262.821 35.0868 284.619C43.5034 314.545 51.6273 345.736 54.7271 376.734C56.7598 397.061 54.0654 418.228 53.3474 438.333C52.9226 450.226 50.3293 458.245 40.9302 465.764C37.8474 468.23 35.9972 475.313 35.8172 478.912C35.345 488.355 31.8245 500.345 29.6492 509.59C29.0913 511.961 29.167 524.198 25.5913 524.198C21.0742 524.198 34.0896 521.12 38.4143 519.816C50.3368 516.22 61.9976 512.217 74.1238 509.265C96.8078 503.742 118.856 494.985 142.378 493.601C152.813 492.988 163.411 493.52 173.867 493.52C187.219 493.52 199.604 498.717 212.58 501.961C269.029 516.073 326.74 521.276 384.878 521.276C393.544 521.276 403.278 522.6 411.579 520.14C415.925 518.853 424.326 518.355 428.785 518.355C432.342 518.355 440.235 517.375 443.069 515.108C448.648 510.645 440.79 495.85 437.875 489.787C432.302 478.196 430.767 463.571 427.405 451.805C424.663 442.207 422.942 431.365 422.942 421.208C422.942 408.272 421.481 395.658 421.481 382.496C421.481 351.54 430.246 321.191 430.246 290.381C430.246 262.225 436.089 233.822 436.089 205.733C436.089 177.097 437.55 148.727 437.55 120.03C437.55 98.9314 436.678 78.4617 434.628 57.4575C433.346 44.3082 430.246 31.1094 430.246 17.9335C430.246 15.904 431.422 4.13662 428.785 4.13662C426.818 4.13662 425.275 6.92866 422.942 7.05831C419.017 7.27632 415.14 8.81532 411.255 9.65537C399.876 12.1157 385.708 9.98001 374.084 9.98001C363.101 9.98001 352.118 9.98001 341.134 9.98001C333.561 9.98001 326.749 7.05831 319.221 7.05831C310.307 7.05831 301.882 5.59747 292.926 5.59747C260.327 5.59747 228.325 2.67577 195.861 2.67577C184.312 2.67577 172.665 2.23195 161.125 2.67577C155.223 2.90278 147.769 4.99982 142.134 6.73368C136.802 8.37427 130.673 7.17637 125.253 8.84379C112.402 12.7981 98.9035 19.8312 85.486 21.7479C79.7734 22.564 74.3714 25.0821 68.6051 26.1305C64.97 26.7914 54.1086 28.3847 51.8865 31.1623C51.6023 31.5176 42.5132 34.7642 41.6606 34.8144C37.4745 35.0606 32.9251 37.491 28.513 37.7361C20.1199 38.2024 -4.72747 42.1186 3.67857 42.1186" stroke="#FF4F43" stroke-width="3" stroke-linecap="round"/>
<path d="M6.60059 72.7959C57.2343 72.7959 109.403 72.7959 159.99 72.7959" stroke="#FF4F43" stroke-width="3" stroke-linecap="round"/>
<path d="M158.609 67.5529C158.609 71.1258 157.973 75.5346 158.984 79.0002C159.843 81.9467 161.33 84.8634 161.987 87.8203C162.733 91.1784 163.998 94.3373 164.727 97.6163C166.076 103.688 167.657 109.715 168.78 115.895C169.793 121.467 171.105 128.098 173.321 133.084C175.325 137.592 178.56 143.934 184.281 144.569C187.833 144.964 191.305 145.245 195.053 145.245C199.287 145.245 205.268 146.339 209.277 144.907C215.905 142.54 224.112 142.602 229.883 138.114C232.831 135.821 236.926 135.017 239.679 132.409C242.183 130.037 246.041 127.692 248.987 125.653C253.725 122.373 260.392 118.879 260.622 112.667C260.777 108.477 261.297 104.273 261.297 99.9808C261.297 95.1501 258.875 89.932 257.919 85.1555C257.039 80.753 256.141 76.271 255.179 71.9442C254.434 68.5898 253.19 64.2079 253.19 60.7971C253.19 57.8978 250.795 55.4565 250.488 52.6901C250.282 50.8363 248.823 45.5417 247.635 44.0576C246.273 42.354 245.834 39.7291 244.258 37.9774C242.458 35.9775 240.505 36.4761 237.502 36.4761C226.847 36.4761 217.704 36.8647 207.626 40.5296C199.746 43.395 192.42 47.9823 184.956 51.7142C179.986 54.1996 174.657 56.5044 170.094 58.9204C165.759 61.2151 161.036 61.6237 159.284 66.8773" stroke="#FF4F43" stroke-width="3" stroke-linecap="round"/>
<path d="M258.595 79.037C293.907 79.037 329.059 77.5032 364.286 75.6967C373.794 75.2091 383.384 73.798 392.36 70.5923C395.401 69.5064 398.685 69.6713 401.668 68.7532C405.382 67.6104 409.513 68.4806 413.153 67.402C418.488 65.8213 425.256 65.5254 430.869 65.5254" stroke="#FF4F43" stroke-width="3" stroke-linecap="round"/>
<path d="M65.3785 212.803C65.3785 225.749 66.1659 238.635 68.9065 251.311C69.977 256.262 71.751 260.902 72.8474 265.836C73.477 268.669 75.0977 272.048 76.5256 274.619C78.998 279.069 83.7042 278.051 88.4984 277.133C98.643 275.191 108.2 271.469 118.074 268.726C122.245 267.567 128.348 264.675 130.234 260.431C131.71 257.111 136.201 254.928 138.341 251.836C141.936 246.644 142.395 241.898 142.395 235.435C142.395 231.731 143.166 226.915 142.357 223.274C141.371 218.834 138.636 214.57 137.14 210.251C136.033 207.05 134.559 202.552 132.261 199.967C128.502 195.738 124.821 194.223 119.05 193.173C110.041 191.535 101.839 193.193 93.2275 196.063C86.2449 198.391 79.3207 200.206 72.1719 201.993C70.0579 202.522 64.0273 203.508 64.0273 206.047" stroke="#FF4F43" stroke-width="3" stroke-linecap="round"/>
<path d="M94.4286 221.585C94.4286 227.215 94.4286 232.845 94.4286 238.475C94.4286 240.315 95.4522 245.666 96.6055 247.107C101.594 253.343 109.81 244.245 113.345 240.502C117.376 236.234 114.66 226.942 110.793 223.462C108.359 221.271 105.511 217.532 101.86 217.532C99.8806 217.532 93.2003 216.611 92.4019 218.208" stroke="#FF4F43" stroke-width="3" stroke-linecap="round"/>
<path d="M152.529 254.688C152.529 233.182 152.529 211.676 152.529 190.17C152.529 186.004 152.529 181.838 152.529 177.672C152.529 172.753 163.655 169.017 167.241 167.688C171.922 165.955 177.512 161.458 182.592 161.458C185.759 161.458 186.014 158.803 188.335 162.284C190.971 166.239 193.969 170.7 196.104 174.97C197.485 177.733 199.942 179.975 201.171 182.739C202.296 185.271 203.162 188.318 204.549 190.658C206.308 193.627 207.388 196.863 208.94 199.966C210.849 203.784 212.538 209.193 215.508 212.277C218.324 215.201 219.452 221.212 222.452 223.612C224.926 225.591 214.39 229.016 212.993 229.016C208.953 229.016 204.97 232.846 201.171 233.07C197.566 233.282 196.658 229.532 194.265 227.14C191.732 224.606 181.378 229.781 178.539 231.043C176.841 231.797 174.218 232.624 172.946 233.895C172.083 234.759 172.796 239.726 172.796 240.876C172.796 243.341 172.796 245.806 172.796 248.27C172.796 249.54 168.546 250.302 167.241 250.785C162.871 252.404 157.715 254.122 153.88 256.039" stroke="#FF4F43" stroke-width="3" stroke-linecap="round"/>
<path d="M174.823 191.184C174.823 197.127 174.823 203.07 174.823 209.012C174.823 215.005 179.215 209.993 182.93 209.463C183.69 209.354 187.412 208.433 187.622 207.699C187.931 206.616 184.82 203.857 184.281 203.195C181.232 199.449 178.272 195.309 174.861 191.897C173.541 190.578 171.569 188.73 170.77 187.131" stroke="#FF4F43" stroke-width="3" stroke-linecap="round"/>
<path d="M201.17 156.73C201.345 167.006 207.844 179.918 213.331 188.632C217.142 194.686 219.587 201.216 223.465 207.248C226.025 211.23 229.468 215.729 232.773 219.033C236.773 223.034 248.205 216.668 252.177 214.529C256.087 212.424 261.479 208.553 265.651 207.361C267.591 206.806 267.377 194.075 267.377 192.573C267.377 186.943 267.377 181.313 267.377 175.684C267.377 166.551 267.377 157.418 267.377 148.285C267.377 145.37 267.377 142.455 267.377 139.54C267.377 138.031 266.552 133.103 267.528 131.883C269.125 129.886 269.104 127.513 266.026 128.881C262.21 130.577 257.138 130.854 253.04 131.583C250.638 132.01 246.889 131.841 245.233 133.91C244.359 135.003 245.083 139.253 245.083 140.666C245.083 149.823 241.03 158.538 241.03 167.539C241.03 173.279 241.177 180.704 239.641 186.08C238.979 188.396 237.181 182.817 237.014 182.064C236.306 178.88 233.399 175.923 231.909 172.944C229.668 168.462 226.984 164.28 224.478 159.77C223.529 158.061 223.347 155.908 222.113 154.365C220.458 152.295 219.587 154.703 217.722 154.703C215.641 154.703 212.361 155.632 210.291 156.092C207.888 156.625 205.745 156.73 203.197 156.73" stroke="#FF4F43" stroke-width="3" stroke-linecap="round"/>
<path d="M274.809 126.329C274.809 138.069 280.033 148.267 282.09 159.582C283.801 168.992 284.443 179.278 287.307 188.445C287.659 189.571 288.582 195.174 289.672 195.238C291.124 195.323 291.772 193.856 293.2 193.361C295.638 192.517 297.981 191.373 300.481 190.659C304.818 189.42 310.273 185.151 308.926 180.3C307.047 173.536 307.206 166.259 305.06 159.582C303.92 156.037 303.113 151.976 302.545 148.285C301.634 142.364 301.439 135.24 298.98 129.707C298.013 127.531 296.971 124.89 296.465 122.613C295.786 119.559 292.486 121.18 289.972 121.637C285.083 122.526 278.436 124.177 274.133 126.329" stroke="#FF4F43" stroke-width="3" stroke-linecap="round"/>
<path d="M313.993 130.72C312.937 124.648 311.966 119.004 311.966 112.817C315.488 111.056 319.694 110.942 323.451 109.064C329.51 106.034 334.716 100.671 340.866 97.954C344.143 96.5059 347.663 92.8187 351.3 92.5493C354.549 92.3086 357.738 91.0536 360.946 90.5601C365.551 89.8516 369.562 90.8985 373.782 91.8362C379.635 93.137 379.769 98.8065 381.401 103.884C382.602 107.62 384.253 110.605 384.253 114.506C384.253 124.743 382.992 136.166 377.497 145.095C375.18 148.86 372.501 152.62 369.053 155.378C365.948 157.862 363.617 161.493 359.932 163.335C348.947 168.828 339.469 176.252 327.166 178.986C326.132 179.216 322.775 180.905 322.775 178.686C322.775 176.782 322.313 174.699 321.574 172.944C320.672 170.801 320.663 168.258 319.923 166.038C318.819 162.728 318.44 158.794 318.009 155.341C317.4 150.471 316.2 145.553 316.019 140.666C315.896 137.332 314.57 134.042 313.993 130.72Z" stroke="#FF4F43" stroke-width="3" stroke-linecap="round"/>
<path d="M338.314 124.978C338.314 127.067 338.163 153.419 341.692 151.851C345.408 150.199 357.23 145.176 357.23 140.178C357.23 134.251 356.861 129.411 352.163 125.653C347.684 122.07 343.291 121.6 337.638 121.6" stroke="#FF4F43" stroke-width="3" stroke-linecap="round"/>
<path d="M432.219 192.535C426.444 206.804 417.485 222.057 406.51 233.033C398.61 240.932 391.425 249.255 382.639 256.34C373.62 263.614 364.193 269.946 354.002 275.482C341.003 282.543 327.182 287.812 313.542 293.347C297.465 299.871 280.498 303.009 263.962 308.097C235.418 316.88 205.835 321.952 176.849 329.003C166.733 331.463 156.675 332.867 146.974 336.96C136.043 341.571 124.914 345.811 114.358 351.259C104.635 356.278 94.3725 360.014 85.4957 366.16C82.5337 368.21 79.7752 370.356 76.7131 372.24C73.2634 374.363 68.5791 375.795 65.7162 378.658C64.0853 380.289 62.1002 381.573 60.6493 383.387C59.1966 385.203 56.0647 385.463 55.2446 387.103" stroke="#FF4F43" stroke-width="3" stroke-linecap="round"/>
<path d="M141.719 416.152C141.719 418.976 142.399 424.259 146.448 424.259C149.094 424.259 151.771 425.611 154.555 425.611C162.475 425.611 168.881 425.838 176.174 422.383C185.122 418.144 195.152 416.215 204.398 412.775C209.341 410.935 215.346 409.993 219.937 407.37C225.198 404.363 232.129 404.49 237.652 401.965C243.391 399.342 250.437 398.243 256.568 396.711C262.141 395.318 267.835 394.279 273.308 392.657C283.315 389.692 293.209 386.537 303.033 382.899C312.352 379.448 319.425 372.714 328.18 368.336C330.892 366.98 333.017 364.981 335.611 363.607C337.686 362.509 340.678 360.926 341.842 358.728C343.415 355.757 344.394 354.213 344.394 350.621C344.394 347.451 339.175 348.594 336.962 348.594C327.887 348.594 317.221 353.773 309.789 358.728C305.817 361.376 300.758 362.607 296.428 364.658C291.114 367.175 284.534 369.28 278.862 370.738C271.865 372.538 264.732 375.556 257.769 377.794C252.607 379.454 247.052 382.373 241.555 382.373C235.324 382.373 229.067 385.403 222.789 385.751C217.005 386.073 210.847 388.249 205.224 389.655C199.734 391.027 194.423 392.575 189.01 394.008C184.04 395.324 178.736 398.194 173.622 398.587C170.282 398.844 167.268 401.109 164.013 401.29C160.964 401.459 156.72 403.555 153.88 404.818C148.845 407.055 141.719 410.693 141.719 416.828" stroke="#FF4F43" stroke-width="3" stroke-linecap="round"/>
<path d="M141.044 419.531C133.211 420.726 126.423 423.564 119.425 426.963C114.983 429.12 109.72 430.482 105.913 433.718C100.464 438.35 93.7924 440.69 87.8227 444.528C83.5013 447.306 77.9487 449.901 74.1609 453.31C70.9353 456.213 66.5554 457.716 63.3516 460.742C60.5517 463.386 56.6017 464.605 53.2179 466.297C48.0154 468.898 41.5748 470.531 37.0039 473.578" stroke="#FF4F43" stroke-width="3" stroke-linecap="round"/>
<path d="M345.745 350.622C366.591 339.798 385.8 326.303 397.765 305.696C401.56 299.16 404.43 292.599 407.223 285.616C408.738 281.829 411.532 278.115 412.628 274.281C413.321 271.853 415.503 269.878 416.343 267.525C417.318 264.796 418.608 262.02 419.909 259.418C420.641 257.955 421.85 255.013 423.099 254.014C424.366 253.001 425.976 251.894 426.815 250.636" stroke="#FF4F43" stroke-width="3" stroke-linecap="round"/>
<path d="M161.987 427.638C167.845 435.605 173.843 442.407 182.254 447.08C189.405 451.053 198.954 451.615 206.725 453.836C211.218 455.119 216.222 454.449 220.762 455.487C226.261 456.744 232.518 456.012 238.177 456.012C250.173 456.012 261.894 456.712 273.308 452.484C276.571 451.276 279.203 448.79 282.24 447.23C285.789 445.408 289.401 444.039 292.674 441.675C298.323 437.595 304.757 433.124 309.114 427.638C310.973 425.297 313.579 424.258 315.344 421.708C316.416 420.16 318.003 418.736 319.247 417.354C321.619 414.719 322.886 410.5 324.277 407.37C327.24 400.704 329.8 395.095 330.207 387.779C330.549 381.622 330.882 375.216 330.882 368.862" stroke="#FF4F43" stroke-width="3" stroke-linecap="round"/>
<path d="M23.4922 223.612C23.6421 216.115 28.451 209.289 32.2748 203.007C33.8985 200.339 35.4781 197.344 37.3792 194.9C41.1096 190.104 46.6955 185.388 51.8666 182.064C57.9831 178.132 63.9438 173.866 70.1074 169.903C76.5777 165.744 82.5767 159.701 90.037 157.405C96.9164 155.288 104.187 151.088 110.642 147.947C119.26 143.754 127.872 140.491 136.84 137.288C142.919 135.117 150.206 133.758 155.906 130.907C159.471 129.125 164.137 129.174 167.391 127.004" stroke="#FF4F43" stroke-width="3" stroke-linecap="round"/>
<path d="M430.868 5.39941C426.868 8.54263 423.718 12.3282 419.759 15.4956C413.952 20.141 407.982 25.3674 402.644 30.5461C391.277 41.5742 378.815 51.7002 365.787 60.6846C353.178 69.381 337.704 73.577 323.676 79.188C316.579 82.0267 308.625 83.3492 301.982 87.1449C297.159 89.9009 290.688 92.7365 285.281 93.9382C278.723 95.3954 271.191 100.656 264.675 100.656" stroke="#FF4F43" stroke-width="3" stroke-linecap="round"/>
<path d="M207.251 72.2812C195.628 72.2812 184.957 79.9084 184.957 92.5487C184.957 102.732 192.198 110.789 202.522 110.789C205.436 110.789 208.394 110.951 211.304 110.789C214.065 110.636 216.412 108.048 218.736 106.886C222.619 104.944 223.465 98.4233 223.465 94.5755C223.465 90.2265 223.952 83.8777 220.612 80.5384C217.946 77.8724 211.49 74.9836 207.926 74.9836" stroke="#FF4F43" stroke-width="3" stroke-linecap="round"/>
<path d="M195.766 71.606C195.766 66.9711 195.063 64.8951 196.441 60.7591C197.791 56.709 199.302 56.7432 203.197 56.7432C211.165 56.7432 205.224 66.6177 205.224 70.9304" stroke="#FF4F43" stroke-width="3" stroke-linecap="round"/>
<path d="M192.388 74.3084C188.398 71.2856 186.724 70.2549 181.916 70.2549C178.679 70.2549 176.849 70.7033 176.849 74.3084C176.849 76.6659 175.022 79.7928 176.849 82.0776C178.452 84.0807 179.428 86.4689 182.254 86.4689" stroke="#FF4F43" stroke-width="3" stroke-linecap="round"/>
<path d="M182.254 87.1445C174.518 87.1445 167.166 93.6179 169.456 101.632C170.587 105.591 172.729 106.061 176.512 106.061C178.131 106.061 180.173 106.389 181.729 105.911C182.52 105.667 184.098 104.04 183.981 104.86C183.93 105.214 182.593 106.018 182.254 106.061C178.694 106.506 177.525 111.378 177.525 114.168C177.525 117.967 176.589 121.862 180.528 122.988C187.659 125.025 189.51 116.37 193.739 112.141" stroke="#FF4F43" stroke-width="3" stroke-linecap="round"/>
<path d="M193.739 112.141C193.739 114.354 193.056 140.109 200.495 133.084C203.122 130.603 206.347 129.15 208.752 126.478C210.183 124.888 209.277 119.726 209.277 117.545" stroke="#FF4F43" stroke-width="3" stroke-linecap="round"/>
<path d="M209.277 117.545C214.952 121.979 220.641 125.634 227.18 120.548C232.065 116.749 227.683 108.17 223.465 106.061" stroke="#FF4F43" stroke-width="3" stroke-linecap="round"/>
<path d="M207.926 70.2553C207.926 66.7011 207.873 60.5694 210.966 58.0948C212.757 56.6621 218.958 55.7056 220.913 57.2691C224.43 60.0831 225.286 62.5745 222.114 66.5396C219.975 69.2122 218.736 71.2919 218.736 74.9844" stroke="#FF4F43" stroke-width="3" stroke-linecap="round"/>
<path d="M218.736 74.9838C222.128 72.3337 226.115 69.5791 230.559 69.5791C232.36 69.5791 234.162 69.5791 235.963 69.5791C238.167 69.5791 237.892 72.7567 239.153 74.158C241.554 76.8251 238.624 80.6936 236.977 82.753C235.17 85.011 229 84.4419 226.167 84.4419" stroke="#FF4F43" stroke-width="3" stroke-linecap="round"/>
<path d="M226.167 84.4426C230.12 84.4426 239.072 83.9061 240.317 89.5094C241.329 94.0642 240.819 98.2344 238.478 102.683C236.465 106.507 233.248 106.061 229.207 106.061C224.735 106.061 222.114 105.441 222.114 100.657" stroke="#FF4F43" stroke-width="3" stroke-linecap="round"/>
<path d="M390.333 156.729C388.653 157.098 383.617 158.11 382.939 160.483C382.612 161.628 380.444 164.356 381.888 165.512C382.884 166.308 383.991 168.732 384.929 169.903C385.291 170.356 389.924 171.592 390.671 171.592C392.757 171.592 394.458 173.348 395.888 170.917C397.35 168.432 397.765 167.867 397.765 164.836C397.765 160.682 393.023 159.432 389.658 159.432" stroke="#FF4F43" stroke-width="3" stroke-linecap="round"/>
<path d="M81.1143 450.22C87.8921 452.964 94.1501 456.125 101.525 455.715C106.133 455.459 113.212 451.815 116.833 448.999C122.318 444.733 129.908 441.148 134.147 435.697C135.832 433.53 138.559 432.185 139.816 429.81C140.514 428.491 142.573 426.556 143.916 425.885" stroke="#FF4F43" stroke-width="3" stroke-linecap="round"/>
<path d="M161.186 429.025C151.227 431.212 142.178 441.833 135.455 448.825C130.211 454.279 123.438 460.184 120.365 467.099C116.801 475.118 116.753 488.843 125.86 493.397" stroke="#FF4F43" stroke-width="3" stroke-linecap="round"/>
<path d="M207.502 500.462C208.19 494.094 210.508 488.536 211.383 482.407C211.759 479.777 211.789 477.123 212.605 474.513C214.213 469.367 213.782 462.703 213.782 457.286" stroke="#FF4F43" stroke-width="3" stroke-linecap="round"/>
<path d="M227.912 458.855C227.912 467.832 226.055 475.517 225.557 483.976C225.202 490.006 225.377 495.762 231.837 499.502C238.652 503.447 247.031 504.375 254.428 506.567C258.745 507.846 263.599 507.526 268.122 507.526C283.241 507.526 298.236 509.067 312.301 502.816C316.88 500.781 321.329 494.625 321.329 489.864C321.329 484.596 319.365 476.604 315.398 472.637C311.017 468.256 305.425 463.719 302.052 458.419C299.846 454.953 297.495 451.926 295.423 448.301C294.279 446.298 292.72 442.588 290.713 441.585" stroke="#FF4F43" stroke-width="3" stroke-linecap="round"/>
<path d="M300.919 439.23C315.181 450.035 325.805 465.389 340.17 475.952C347.001 480.974 359.407 487.117 368.082 487.117C377.152 487.117 390.094 489.262 396.342 481.229C402.137 473.778 410.5 422.5 399.5 415.5" stroke="#FF4F43" stroke-width="3" stroke-linecap="round"/>
<path d="M399.831 415.68C393.867 413.353 388.824 408.869 382.953 406.26C377.136 403.674 369.871 401.576 364.331 398.41C360.422 396.176 354.407 395.325 350.026 394.528C347.569 394.081 344.587 392.914 342.132 392.914C337.77 392.914 333.65 389.774 329.179 389.774" stroke="#FF4F43" stroke-width="3" stroke-linecap="round"/>
<path d="M394.336 316.768C395.132 323.315 397.636 328.281 399.002 334.43C399.518 336.752 399.271 340.229 400.223 342.324C402.04 346.322 400.616 353.575 400.616 357.981C400.616 363.183 398.929 367.074 396.865 371.719C394.863 376.223 390.31 377.065 386.049 378.958C382.481 380.544 376.759 379.569 372.748 379.569C367.907 379.569 362.877 380.354 357.832 380.354C352.73 380.354 347.627 380.354 342.524 380.354C339.984 380.354 330.187 380.8 329.179 378.784" stroke="#FF4F43" stroke-width="3" stroke-linecap="round"/>
<path d="M90.1271 322.42C85.4757 322.533 80.2197 324.347 80.2197 329.541C80.2197 335.101 85.1194 332.923 88.2695 334.323C100.567 339.788 83.2789 348.353 81.4582 344.712" stroke="#FF4F43" stroke-width="3" stroke-linecap="round"/>
<path d="M100.034 326.755C100.505 329.168 102.229 336.361 105.332 337.247C108.187 338.063 111.449 337.285 113.657 335.905C118.383 332.952 114.276 322.687 114.276 318.705" stroke="#FF4F43" stroke-width="3" stroke-linecap="round"/>
<path d="M124.184 314.989C125.037 319.362 127.28 332.448 127.28 327.993C127.28 323.345 126.66 318.902 126.66 314.06C126.66 308.176 134.044 309.626 136.877 311.893C140.623 314.89 138.982 321.088 141.522 324.897" stroke="#FF4F43" stroke-width="3" stroke-linecap="round"/>
<path d="M150.81 322.42C150.81 317.191 150.191 311.654 150.191 306.63C150.191 303.176 148.952 299.912 148.952 296.413C148.952 292.688 149.889 290.191 150.844 286.849C151.898 283.162 157.002 281.733 157.002 286.505" stroke="#FF4F43" stroke-width="3" stroke-linecap="round"/>
<path d="M157.621 298.271C152.286 298.271 148.575 301.865 144.618 303.843" stroke="#FF4F43" stroke-width="3" stroke-linecap="round"/>
<path d="M159.479 287.744C159.623 293.95 163.777 299.177 164.433 305.082C164.723 307.694 166.371 311.435 167.529 313.751" stroke="#FF4F43" stroke-width="3" stroke-linecap="round"/>
<path d="M181.77 290.84C177.497 294.178 175.578 298.521 175.578 303.843C175.578 307.543 179.092 312.512 183.009 312.512" stroke="#FF4F43" stroke-width="3" stroke-linecap="round"/>
<path d="M183.628 312.512C187.301 311.796 189.705 310.769 192.297 308.178C195.004 305.47 194.774 304.443 194.774 300.472C194.774 294.963 189.228 292.078 184.247 292.078" stroke="#FF4F43" stroke-width="3" stroke-linecap="round"/>
<path d="M198.489 282.79C200.473 286.072 204.262 291.111 207.777 293.179C209.054 293.93 210.136 297.082 211.183 296.035C211.996 295.221 211.493 292.225 211.493 291.184C211.493 288.077 211.493 284.969 211.493 281.861C211.493 278.897 210.808 276.206 213.213 279.213C213.707 279.83 214.103 281.664 214.589 282.515C215.234 283.644 216.282 284.828 217.203 285.749C219.179 287.724 221.159 291.302 223.602 292.698C224.994 293.493 225.115 294.423 225.115 292.078C225.115 290.725 225.115 289.372 225.115 288.019C225.115 282.767 225.115 277.516 225.115 272.264" stroke="#FF4F43" stroke-width="3" stroke-linecap="round"/>
<path d="M235.642 277.836C239.692 276.824 242.88 273.955 246.513 272.917C247.927 272.513 249.17 271.829 250.503 271.163C251.451 270.689 248.731 269.96 248.026 269.167C245.742 266.598 245.426 265.452 241.525 265.452C237.4 265.452 237.946 266.869 235.917 269.477C231.389 275.299 235.581 278.998 239.357 283.719C242.721 287.923 249.287 283.601 252.361 281.552" stroke="#FF4F43" stroke-width="3" stroke-linecap="round"/>
<path d="M256.076 262.356C256.076 265.257 255.573 270.127 258.243 272.263C258.643 272.583 259.791 274.173 259.791 273.502C259.791 271.94 259.172 270.729 259.172 269.167C259.172 265.863 259.299 264.028 260.754 261.118C262.529 257.569 263.401 257.402 267.222 257.402" stroke="#FF4F43" stroke-width="3" stroke-linecap="round"/>
<path d="M290.752 242.541C287.625 243.245 278.471 246.587 284.078 251.072C285.12 251.906 288.793 251.136 290.133 251.21C291.987 251.313 293.563 252.399 295.086 253.205C298.869 255.208 299.395 257.77 297.426 261.117C295.198 264.904 289.547 263.594 285.798 263.594" stroke="#FF4F43" stroke-width="3" stroke-linecap="round"/>
<path d="M304.375 249.352C305.752 248.016 307.115 246.68 308.434 245.362C309.2 244.596 310.669 244.735 311.186 244.089C312.279 242.723 316.006 242.529 314.282 240.374C311.994 237.514 304.375 236.616 304.375 241.612C304.375 246.529 305.601 248.476 309.191 251.348C310.257 252.201 314.78 252.296 316.14 251.692C318.916 250.458 319.855 250.095 319.855 246.876" stroke="#FF4F43" stroke-width="3" stroke-linecap="round"/>
<path d="M327.285 236.969C328.75 235.149 330.325 232.759 331.964 231.121C332.611 230.474 334.041 230.326 334.854 229.676C336.017 228.745 336.578 230.163 335.335 228.609C334.581 227.666 333.7 227.346 332.583 227.027C328.159 225.763 324.809 228.08 324.809 232.944C324.809 235.305 327.51 246.077 332.102 242.404C334.288 240.655 341.527 241.569 341.527 236.969" stroke="#FF4F43" stroke-width="3" stroke-linecap="round"/>
<path d="M357.627 217.154C355.01 217.154 349.168 218.529 348.958 222.107C348.872 223.57 347.467 230.157 350.506 230.157C351.884 230.157 353.496 230.776 355.15 230.776C357.184 230.776 357.812 229.39 359.175 228.299C362.014 226.028 363.031 224.359 361.48 220.869C360.053 217.659 360.774 213.552 359.347 210.342C358.445 208.314 358.197 205.99 357.593 203.875C356.919 201.518 355.888 202.051 356.423 204.46C357.19 207.911 357.669 211.639 359.175 214.952C360.339 217.512 361.077 224.452 363.819 225.823" stroke="#FF4F43" stroke-width="3" stroke-linecap="round"/>
<path d="M378.061 210.961C376.231 209.631 369.041 206.404 368.773 210.961C368.543 214.872 367.547 217.153 372.798 217.153C374.449 217.153 376.1 217.153 377.751 217.153C380.133 217.153 379.919 217.707 379.919 219.94C379.919 223.504 375.859 223.965 373.107 223.965" stroke="#FF4F43" stroke-width="3" stroke-linecap="round"/>
</svg>
