<svg width="864" height="513" viewBox="0 0 864 513" fill="none" xmlns="http://www.w3.org/2000/svg">
<path d="M110.177 299.687C110.177 290.204 109.839 280.635 110.177 271.158C110.42 264.371 114.849 257.234 117.548 251.16C121.269 242.789 128.152 238.132 134.475 233.073C143.208 226.087 155.379 226.935 164.847 221.675C170.15 218.729 177.787 220.479 182.661 216.147C187.647 211.715 189.884 207.814 193.103 202.019C198.875 191.629 199.946 179.053 204.501 168.234C210.714 153.479 214.616 134.448 215.899 118.41C216.442 111.624 230.368 40.4668 220.745 40.4668" stroke="#FF4F43" stroke-width="3" stroke-linecap="round"/>
<path d="M137.205 157.177C146.504 170.985 150.719 182.738 150.719 198.947" stroke="#FF4F43" stroke-width="3" stroke-linecap="round"/>
<path d="M128.605 154.72C113.799 167.411 102.515 188.645 94.7523 206.387C92.2188 212.178 88.1432 217.196 85.6066 222.904C83.3841 227.904 77.2486 231.392 75.7783 235.803" stroke="#FF4F43" stroke-width="3" stroke-linecap="round"/>
<path d="M5.75195 255.46C24.9262 255.46 44.7085 254.128 63.493 258.19C74.7815 260.631 90.2412 267.466 98.5061 275.731C104.045 281.27 110.133 286.129 115.706 291.701C119.759 295.755 125.141 300.618 130.38 303.1C134.542 305.071 142.408 307.636 144.576 311.972" stroke="#FF4F43" stroke-width="3" stroke-linecap="round"/>
<path d="M144.576 310.744C154.06 310.744 168.842 308.203 177.747 312.655C184.587 316.075 192.147 320.014 198.086 324.872C202.254 328.283 206.795 331.981 211.531 334.086C214.706 335.497 221.422 339.024 223.202 342.14C226.156 347.309 231.536 350.874 236.102 354.425C239.882 357.366 244.223 362.949 248.387 364.799C251.045 365.981 253.333 368.672 255.827 370.26C259.613 372.669 264.67 374.189 268.726 376.471C275.51 380.286 282.915 383.513 290.157 386.299C298.216 389.398 301.976 392.851 307.971 399.198C311.12 402.533 313.683 406.821 316.844 409.982C319.31 412.449 323.792 412.192 326.672 413.941C332.767 417.641 339.323 420.032 345.782 422.267C353.771 425.033 356.663 428.17 361.753 434.826C366.433 440.945 371.32 446.411 376.086 452.298C381.492 458.976 389.812 464.595 394.241 471.682C398.443 478.404 405.232 483.052 408.438 491.065C410.209 495.495 409.939 499.8 409.939 504.852" stroke="#FF4F43" stroke-width="3" stroke-linecap="round"/>
<path d="M2.06641 305.83C15.5929 305.83 22.1055 312.355 31.5512 321.801C39.8984 330.148 47.5649 339.043 55.8488 347.327C71.5091 362.987 83.7646 383.229 93.592 402.884C104.328 424.355 108.194 448.6 115.706 471.135C119.288 481.884 120.005 516.182 120.005 504.852" stroke="#FF4F43" stroke-width="3" stroke-linecap="round"/>
<path d="M163.004 330.4C150.326 330.4 137.335 332.534 125.193 336.27C114.74 339.486 123.376 350.057 131.062 350.057C146.044 350.057 161.327 351.285 176.518 351.285C181.552 351.285 208.46 350.334 208.46 358.042C208.46 363.051 207.852 367.344 207.163 372.17C206.275 378.386 205.691 378.001 210.303 382.613C215.465 387.775 224.141 391.917 231.256 393.056C243.514 395.017 255.623 400.326 267.429 404.112C281.634 408.669 294.423 413.927 307.971 419.469C319.407 424.147 333.424 427.108 342.37 436.054" stroke="#FF4F43" stroke-width="3" stroke-linecap="round"/>
<path d="M317.799 373.399C320.659 360.371 333.428 348.828 346.738 348.828C354.056 348.828 365.193 350.833 371.855 347.873C374.638 346.636 378.568 345.599 381.069 347.6C381.889 348.256 382.925 350.819 383.526 351.9C385.168 354.855 387.562 356.063 389.6 358.657C397.369 368.544 405.332 377.145 411.441 388.141C417.698 399.404 422.902 412.598 430.21 423.155C436.048 431.587 440.083 444.11 449.252 449.841C455.617 453.819 461.162 469.072 462.698 475.981C464.808 485.476 471.366 494.713 471.366 504.852" stroke="#FF4F43" stroke-width="3" stroke-linecap="round"/>
<path d="M315.342 375.856C315.342 383.979 314.898 391.975 316.639 399.812C317.415 403.303 319.567 411.139 322.714 412.712" stroke="#FF4F43" stroke-width="3" stroke-linecap="round"/>
<path d="M440.652 443.425C429.968 441.463 424.238 434.21 414.58 430.867C408.609 428.8 401.252 421.648 395.197 421.312C390.088 421.028 379.639 417.541 375.267 421.039C371.715 423.881 363.023 425.46 360.798 429.911" stroke="#FF4F43" stroke-width="3" stroke-linecap="round"/>
<path d="M385.369 461.854C394.583 461.854 403.797 461.854 413.011 461.854C418.18 461.854 425.657 461.167 430.21 463.696C437.884 467.96 454.166 469.33 454.166 480.282" stroke="#FF4F43" stroke-width="3" stroke-linecap="round"/>
<path d="M317.799 375.856C323.424 388.128 331.657 398.658 337.456 410.255" stroke="#FF4F43" stroke-width="3" stroke-linecap="round"/>
<path d="M320.256 366.028C328.492 377.228 335.692 388.733 343.598 400.154C346.338 404.11 349.346 411.9 353.427 413.941" stroke="#FF4F43" stroke-width="3" stroke-linecap="round"/>
<path d="M330.084 358.657C334.871 371.688 348.489 379.665 354.928 391.827C359.003 399.524 365.828 405.515 370.626 412.712" stroke="#FF4F43" stroke-width="3" stroke-linecap="round"/>
<path d="M338.684 353.743C342.515 362.468 350.62 366.873 354.928 374.628C356.813 378.02 361.969 384.41 365.098 386.913C369.95 390.795 371.333 399.027 376.154 402.884C379.729 405.743 381.217 413.094 385.368 415.169" stroke="#FF4F43" stroke-width="3" stroke-linecap="round"/>
<path d="M350.97 351.286C358.715 362.982 365.281 376.297 374.38 386.913C378.329 391.521 381.384 397.641 384.754 402.884C385.898 404.663 391.511 412.994 391.511 412.712" stroke="#FF4F43" stroke-width="3" stroke-linecap="round"/>
<path d="M363.255 351.286C374.174 366.104 386.075 382.043 394.924 397.97C400.367 407.768 406.456 415.777 409.939 426.226" stroke="#FF4F43" stroke-width="3" stroke-linecap="round"/>
<path d="M374.312 351.286C382.889 358.044 389.266 367.968 395.879 376.471C399.521 381.153 403.445 388.106 408.096 391.827C412.929 395.693 419.082 406.071 421.269 411.757C423.002 416.263 426.807 419.557 428.913 423.769C430.048 426.039 431.223 430.111 433.281 431.14" stroke="#FF4F43" stroke-width="3" stroke-linecap="round"/>
<path d="M320.256 363.571C320.256 357.435 320.723 353.499 316.571 348.828C314.355 346.335 311.277 344.668 309.2 342.071C307.079 339.42 304.669 336.214 301.282 335.246C299.234 334.661 296.487 332.429 295.413 330.4C292.708 325.292 292 317.262 292 311.358C292 307.851 290.005 293.174 292.614 291.087C293.772 290.161 295.37 283.602 295.754 281.873C296.44 278.786 298.216 275.517 299.644 272.659C301.205 269.538 302.956 266.3 304.286 263.309C305.373 260.862 305.575 255.076 307.016 253.276C312.225 246.764 312.885 262.309 312.885 264.674C312.885 267.057 315.412 271.154 316.298 273.615C317.253 276.268 321.37 272.078 323.396 271.499C326.44 270.629 324.595 266.104 328.174 264.059C330.979 262.456 333.367 262.601 336.227 261.329C338.901 260.141 342.285 260.687 344.554 258.872C346.609 257.228 347.083 252.501 348.513 250C350.156 247.125 364.484 248.304 364.484 253.003C364.484 260.52 367.402 266.044 366.941 273.888C366.799 276.296 363.689 280.617 362.027 282.487C359.796 284.996 360.025 290.477 357.727 292.316C355.17 294.361 355.884 307.894 355.884 311.358C355.884 317.768 361.591 324.507 364.211 330.4C365.334 332.927 366.941 335.563 366.941 338.386C366.941 340.077 368.678 345.863 369.398 345.143" stroke="#FF4F43" stroke-width="3" stroke-linecap="round"/>
<path d="M417.419 396.778C417.419 381.462 417.419 366.147 417.419 350.832C417.419 340.01 417.443 329.2 418.065 318.391C418.564 309.732 420.788 300.92 422.44 292.409C425.204 278.164 428.462 263.855 431.981 249.781C434.481 239.782 438.418 230.325 441.464 220.51C443.57 213.725 446.761 207.294 448.598 200.429C449.853 195.738 452.297 190.982 452.297 186.044C452.297 182.096 453.284 177.551 454 173.655C454.624 170.258 454.484 166.756 455.996 163.731" stroke="#FF4F43" stroke-width="3" stroke-linecap="round"/>
<path d="M455.996 163.731C444.931 163.731 434.029 160.155 423.115 158.447C409.319 156.288 395.472 151.317 382.424 146.41C376.355 144.128 369.906 143.104 363.635 141.537C359.72 140.558 355.912 139.042 351.892 138.483C343.969 137.383 336.005 135.813 328.112 134.432C319.147 132.863 309.948 133.338 300.926 132.289C294.54 131.546 288.452 130.639 282.166 129.382C277.247 128.399 272.308 125.683 267.34 125.683" stroke="#FF4F43" stroke-width="3" stroke-linecap="round"/>
<path d="M229.292 53.2856C232.934 55.9642 235.866 58.9613 237.218 63.4436C238.688 68.3169 238.814 72.789 239.449 77.7118C240.283 84.1751 238.731 90.1053 237.747 96.5011C236.206 106.518 235.104 116.326 235.104 126.476C235.104 136.265 237.006 144.562 239.596 153.926C241.523 160.89 244.113 167.375 244.881 174.594C245.954 184.683 245.86 194.831 244.851 204.921C244.337 210.067 243.56 215.103 243.56 220.276" stroke="#FF4F43" stroke-width="3" stroke-linecap="round"/>
<path d="M217.666 134.139C218.467 137.881 220.483 141.094 221.394 144.737C222.534 149.296 223.656 153.874 224.8 158.447C226.956 167.072 226.649 175.935 226.649 184.752C226.649 190.992 224.125 197.335 225.093 203.63C225.456 205.989 228.54 208.137 230.348 209.443C232.687 211.132 235.28 213.627 236.925 216.019C239.815 220.223 239.332 224.893 239.332 229.788C239.332 231.814 239.332 233.839 239.332 235.865C239.332 237.705 239.86 237.586 239.86 235.865C239.86 232.342 240.706 229.516 241.563 226.089C242.249 223.344 242.376 219.473 243.56 217.105" stroke="#FF4F43" stroke-width="3" stroke-linecap="round"/>
<path d="M201.812 256.21C202.983 246.403 206.568 236.618 206.568 226.735C206.568 224.889 206.89 222.119 205.247 220.804C204.297 220.045 202.656 217.072 202.37 215.784C201.333 211.116 204.787 206.093 205.922 201.78C206.689 198.868 207.097 196.912 207.097 193.853C207.097 191.264 207.516 188.324 206.451 185.927C205.616 184.05 204.28 182.406 203.397 180.642" stroke="#FF4F43" stroke-width="3" stroke-linecap="round"/>
<path d="M201.283 252.511C201.283 243.561 202.113 234.851 197.995 226.617C195.302 221.23 194.965 215.036 192.3 209.707" stroke="#FF4F43" stroke-width="3" stroke-linecap="round"/>
<path d="M210.267 151.577C212.844 157.943 213.966 163.991 213.966 170.866C213.966 175.33 214.532 179.896 212.645 184.047C211.686 186.158 211.668 188.335 211.882 190.682C212.153 193.667 214.495 196.577 214.495 199.402C214.495 201.956 214.495 204.51 214.495 207.064C214.495 209.494 215.552 205.682 215.552 204.951C215.552 201.253 216.867 197.335 217.548 193.677C218.316 189.55 216.461 185.11 215.552 181.17" stroke="#FF4F43" stroke-width="3" stroke-linecap="round"/>
<path d="M200.227 30.5625C200.227 34.8782 200.227 39.1938 200.227 43.5095C200.227 49.8233 197.209 56.0048 194.12 61.3887C189.408 69.6016 180.565 74.1099 174.098 80.7065C171.794 83.0566 168.652 87.5329 167.991 90.8351C167.491 93.3361 166.559 96.9546 165.466 99.2609C164.442 101.424 160.87 103.452 158.861 104.633C153.769 107.629 148.899 110.911 143.712 113.764C133.386 119.443 121.169 123.614 109.627 125.713C104.508 126.643 103.009 135.103 101.113 138.895C97.8639 145.393 87.5221 144.931 81.619 147.614C77.8355 149.334 74.4556 155.472 74.4556 159.504" stroke="#FF4F43" stroke-width="3" stroke-linecap="round"/>
<path d="M72.3416 162.146C70.0178 172.991 59.7038 179.337 51.7615 185.956C42.8052 193.42 35.4107 203.921 31.651 214.991C30.3074 218.948 29.8057 222.617 28.8914 226.617C28.4875 228.384 28.7814 231.779 27.6583 233.223C25.1233 236.482 22.3412 238.337 18.7334 240.357C17.7551 240.905 11.5655 244.047 11.0415 242.999" stroke="#FF4F43" stroke-width="3" stroke-linecap="round"/>
<path d="M220.308 338.12C220.308 331.111 225.516 324.212 228.234 317.804C232.659 307.374 235.559 296.362 239.743 285.803C244.711 273.264 247.239 259.64 250.928 246.727C253.36 238.215 255.28 229.683 258.121 221.274C261.034 212.651 264.112 204.136 266.811 195.438C271.021 181.873 274.197 167.881 276.734 153.926C277.418 150.166 278.437 146.681 278.437 142.858C278.437 138.186 277.909 124.182 277.909 128.854" stroke="#FF4F43" stroke-width="3" stroke-linecap="round"/>
<path d="M247.259 181.699C253.855 181.699 260.45 181.699 267.046 181.699C272.355 181.699 278.238 182.401 283.458 181.435C293.516 179.572 303.542 178.517 313.579 176.972C319.678 176.034 323.856 181.342 328.346 184.635C337.314 191.211 346.961 196.937 355.62 203.865C360.859 208.055 367.444 211.325 373.147 214.874C377.706 217.711 381.951 220.574 386.769 222.918C393.034 225.966 398.922 229.493 405.265 232.313C410.164 234.49 414.917 237.23 419.533 239.946C424.227 242.707 423.991 251.454 430.631 251.454" stroke="#FF4F43" stroke-width="3" stroke-linecap="round"/>
<path d="M393.83 9.60564C393.83 13.0911 393.83 16.5765 393.83 20.062C393.83 23.8545 392.771 27.4705 392.639 31.1801C392.503 34.9823 390.863 39.0001 390.289 42.7284C389.752 46.2205 389.534 49.6724 389.661 53.2178C389.987 62.3634 405.895 67.1389 412.889 67.3801C422.096 67.6976 431.378 69.7317 440.619 70.3582C451.628 71.1046 462.824 73.2843 473.642 75.3878C496.824 79.8954 519.232 87.5628 542.138 93.2893C559.944 97.741 578.661 97.6546 596.934 97.1608C600.48 97.0649 604.818 95.3385 607.655 93.2893C610.198 91.4527 613.58 90.168 615.861 88.0942C616.706 87.3266 617.783 87.2972 618.508 86.5721C619.506 85.5747 619.114 82.5507 619.269 81.2116C620.192 73.2746 620.896 65.6049 622.843 57.8172C624.156 52.567 623.737 46.9261 623.737 41.4709C623.737 30.7924 611.668 28.3781 603.42 26.8784C579.986 22.6179 556 21.4368 532.31 18.8046C520.738 17.5188 509.533 15.0783 498.195 12.7161C492.573 11.545 486.538 9.761 480.789 9.60564C478.525 9.54444 476.331 8.48621 474.105 8.41441C469.085 8.25246 464.035 7.8188 459.016 7.8188C453.325 7.8188 447.87 6.03196 442.207 6.03196C435.544 6.03196 428.973 3.05389 422.419 3.05389C416.168 3.05389 408.062 1.71114 401.871 3.08698C399.58 3.59608 397.197 6.83431 395.617 8.41441C393.802 10.2287 392.639 14.1797 392.639 16.753" stroke="#FF4F43" stroke-width="3" stroke-linecap="round"/>
<path d="M417.059 317.538C450.919 317.538 484.815 318.018 518.644 316.909C535.989 316.34 553.408 314.188 570.727 312.905C582.931 312.001 595.262 311.282 607.059 307.677C617.41 304.514 626.974 299.171 637.469 296.393C647.43 293.757 658.251 292.649 668.54 292.522C682.034 292.355 695.483 290.139 708.975 290.139C714.035 290.139 719.005 289.544 724.064 289.544C726.052 289.544 728.663 290.074 730.351 288.948" stroke="#FF4F43" stroke-width="3" stroke-linecap="round"/>
<path d="M672.577 483.118C670.929 472.317 665.751 462.073 663.973 451.153C662.445 441.764 661.889 432.12 660.962 422.663C660.201 414.904 660.664 406.93 660.664 399.137C660.664 388.681 661.381 380.052 665.694 370.349C674.849 349.749 683.177 328.515 697.03 310.622C705.819 299.27 718.089 290.953 731.542 285.97C737.29 283.841 743.774 281.63 749.08 278.558C751.925 276.911 755.477 276.458 758.577 275.448C763.278 273.914 767.874 272.122 772.64 270.782C785.015 267.301 797.785 265.719 810.627 265.719C817.631 265.719 824.635 265.719 831.638 265.719C837.368 265.719 842.452 267.054 847.952 268.102C850.462 268.58 860.208 271.703 861.386 274.058" stroke="#FF4F43" stroke-width="3" stroke-linecap="round"/>
<path d="M861.982 344.34C856.82 344.34 851.658 344.34 846.496 344.34C842.992 344.34 838.939 343.821 835.51 344.638C825.192 347.095 813.905 349.89 805.068 356.252C794.916 363.561 784.484 370.02 775.618 378.886C772.206 382.297 769.105 385.833 765.492 389.044C761.599 392.505 759.107 397.184 755.499 400.791C751.678 404.612 746.686 408.268 741.933 410.784C737.619 413.068 733.181 416.746 728.266 417.601C723.616 418.409 719.709 419.983 714.931 419.983C710.045 419.983 705.159 419.983 700.273 419.983C697.407 419.983 694.507 418.792 691.636 418.792C689.716 418.792 687.665 418.95 686.143 417.733C682.18 414.562 679.264 412.784 679.128 406.681C678.92 397.293 681.227 389.244 683.43 380.275C685.101 373.47 687.484 364.99 691.074 358.933C696.496 349.783 703.461 341.116 712.218 334.81C727.638 323.708 742.13 312.115 760.727 306.949C764.019 306.034 767.027 304.122 770.39 303.375C775.663 302.203 780.905 300.975 786.074 299.371C792.066 297.512 798.722 296.549 804.935 295.632C810.602 294.796 816.341 293.713 822.076 293.713C830.26 293.713 838.444 293.713 846.628 293.713C848.888 293.713 860.422 292.381 861.386 294.309" stroke="#FF4F43" stroke-width="3" stroke-linecap="round"/>
<path d="M661.855 503.369C667.72 498.506 672.887 492.712 678.5 487.552C686.919 479.812 694.972 471.947 703.648 464.489C713.528 455.995 723.583 448.238 734.024 440.532C742.646 434.168 752.456 428.636 760.264 421.307C766.424 415.524 774.519 410.442 781.64 405.953C787.354 402.351 793.141 398.354 799.31 395.563C809.003 391.178 818.524 387.82 829.256 387.82C834.319 387.82 839.381 387.82 844.444 387.82C847.69 387.82 850.996 387.991 854.239 387.82C856.704 387.69 859.504 386.629 861.982 386.629" stroke="#FF4F43" stroke-width="3" stroke-linecap="round"/>
<path d="M420.632 409.858C447.866 409.858 475.173 409.21 502.397 409.891C516.004 410.231 529.7 412.515 543.329 413.299C550.835 413.731 558.534 412.752 565.962 413.895C570.395 414.577 575.323 413.12 579.661 414.325C583.993 415.528 589.455 414.623 593.89 414.623C600.157 414.623 606.518 417.005 612.42 417.005" stroke="#FF4F43" stroke-width="3" stroke-linecap="round"/>
<path d="M613.611 510.516C613.611 495.824 613.611 481.133 613.611 466.441C613.611 459.775 612.83 452.373 614.935 446.058C617.766 437.564 619.237 428.444 619.567 419.52C619.636 417.659 620.454 417.601 618.078 417.601C616.788 417.601 615.497 417.601 614.207 417.601" stroke="#FF4F43" stroke-width="3" stroke-linecap="round"/>
</svg>
