<svg width="189" height="644" viewBox="0 0 189 644" fill="none" xmlns="http://www.w3.org/2000/svg">
<path d="M29.4481 403.331C32.876 402.596 36.7005 400.37 40.1813 400.37C42.6487 400.37 45.1161 400.37 47.5835 400.37C51.77 400.37 57.554 399.278 60.7019 402.426C62.0713 403.796 63.9948 404.981 64.9787 406.703C66.2242 408.883 65.7097 411.309 66.8292 413.324C68.002 415.435 67.1993 419.613 67.1993 422.001C67.1993 425.647 67.1993 429.294 67.1993 432.94C67.1993 446.229 66.6138 460.001 63.6627 472.912C63.1125 475.319 62.0178 479.008 62.0178 481.424C62.0178 483.956 59.7971 486.295 59.7971 488.826C59.7971 493.472 56.8363 498.025 56.8363 502.521C56.8363 506.94 54.848 513.624 49.8042 513.624C44.8635 513.624 40.3373 514.656 35.3699 514.364C32.5079 514.196 32.2954 501.341 31.2987 499.148C29.2233 494.583 29.4481 485.263 29.4481 480.314C29.4481 465.971 27.2274 451.829 27.2274 437.381C27.2274 431.426 26.4872 425.321 26.4872 419.246C26.4872 414.137 25.6232 408.144 27.2274 403.331" stroke="#FF4F43" stroke-width="3" stroke-linecap="round"/>
<path d="M158.987 555.076C161.251 549.614 166.211 546.038 168.609 540.642C170.063 537.371 172.236 532.408 174.367 529.744C176.806 526.695 176.683 521.15 178.602 517.695C180.695 513.928 180.315 509.431 182.303 505.851C183.202 504.235 182.965 502.425 183.455 500.711C183.888 499.197 184.154 496.246 184.154 499.56C184.154 504.248 184.154 508.936 184.154 513.624C184.154 523.87 186.375 533.888 186.375 544.343C186.375 549.154 186.375 553.966 186.375 558.777C186.375 563.021 187.253 568.334 186.334 572.471C185.466 576.377 184.649 581.063 182.838 584.685C180.845 588.671 178.874 594.481 175.847 597.844C173.837 600.078 172.947 604.162 170.46 606.151C167.276 608.698 165.331 614.846 161.577 616.514C159.541 617.42 159.173 620.05 157.136 620.956C155.615 621.632 152.298 624.78 151.42 626.137C149.38 629.29 142.945 631.032 139.741 632.635C135.99 634.51 133.33 636.5 129.008 636.5C125.519 636.5 119.984 637.139 116.794 638.557C113.527 640.009 108.16 640.845 104.58 641.641C100.753 642.491 96.8031 642.422 92.7368 642.422C83.8943 642.422 76.4079 639.46 68.6796 635.596C60.806 631.659 56.4958 624.378 51.2433 617.625C40.6869 604.052 42.0317 583.277 42.0317 566.755C42.0317 557.31 42.0317 547.866 42.0317 538.421C42.0317 534.257 44.201 516.929 40.5513 515.104" stroke="#FF4F43" stroke-width="3" stroke-linecap="round"/>
<path d="M50.9146 515.104C50.9146 521.456 51.6548 527.355 51.6548 533.61C51.6548 538.62 54.2372 543.936 55.3147 548.785C55.8268 551.089 56.1853 553.353 56.7952 555.488C57.4179 557.667 56.8465 560.868 57.9466 562.849C58.7665 564.324 59.057 568.563 59.057 570.251C59.057 572.893 60.5374 575.407 60.5374 578.023C60.5374 582.482 63.9775 587.535 65.8835 591.347C68.4176 596.416 74.2952 598.736 77.5625 602.821C80.0802 605.968 84.3729 608.447 87.5555 610.922C91.8683 614.276 97.3158 614.602 101.99 616.679C105.706 618.331 111.239 618.735 115.314 618.735C117.748 618.735 120.492 619.148 122.716 618.16C124.58 617.331 127.128 615.624 129.049 615.075C133.897 613.69 137.013 609.548 140.851 606.563C142.873 604.99 145.541 603.343 147.143 601.34C148.713 599.378 149.944 596.894 151.585 595.048C154.844 591.381 156.269 586.748 158.411 582.465C160.314 578.66 162.579 574.255 163.469 570.251C163.998 567.87 165.564 564.999 166.759 562.849C167.98 560.65 167.838 558.241 168.98 556.187C170.975 552.595 168.14 553.596 166.019 553.596C163.428 553.596 160.837 553.596 158.247 553.596" stroke="#FF4F43" stroke-width="3" stroke-linecap="round"/>
<path d="M41.2917 398.89C41.2917 382.496 44.2525 366.903 44.2525 350.405C44.2525 343.62 44.2525 336.834 44.2525 330.049C44.2525 327.749 45.3139 322.003 43.1422 320.796C40.5331 319.347 37.9552 317.181 36.1101 314.875C28.8349 305.781 23.5264 297.113 23.5264 284.896C23.5264 272.088 39.3352 269.351 49.4341 269.351C55.1296 269.351 59.5497 270.255 63.6628 274.368C67.9165 278.622 70.1603 285.233 70.1603 291.188C70.1603 297.282 70.9574 303.828 68.5153 309.323C67.2772 312.109 66.0339 315.67 63.8684 317.836C62.4826 319.221 56.8363 322.588 56.8363 324.497C56.8363 331.1 55.3558 337.224 55.3558 343.743C55.3558 350.035 55.3558 356.327 55.3558 362.619C55.3558 374.983 54.6156 387.653 54.6156 399.63" stroke="#FF4F43" stroke-width="3" stroke-linecap="round"/>
<path d="M47.9536 284.896C45.9881 284.129 37.8613 281.502 36.1101 284.567C34.4492 287.473 35.9518 290.348 36.1101 293.038C36.359 297.271 41.563 304.214 45.3217 306.362C49.5834 308.797 53.8753 300.871 53.8753 297.109C53.8753 295.272 56.0019 290.7 54.4511 288.761C52.7802 286.673 49.8822 287.273 48.6938 284.896" stroke="#FF4F43" stroke-width="3" stroke-linecap="round"/>
<path d="M53.1352 2.13135C53.1352 27.3173 52.395 52.594 52.395 77.6338C52.395 99.9207 50.1743 121.888 50.1743 144.254C50.1743 168.681 50.1743 193.108 50.1743 217.535C50.1743 226.448 50.9146 234.695 50.9146 243.443C50.9146 247.885 50.9146 252.326 50.9146 256.767C50.9146 258.219 50.0549 261.346 49.2696 262.524C47.4572 265.243 49.2287 270.645 49.7631 273.545C50.3307 276.627 49.9949 274.443 48.6939 273.792" stroke="#FF4F43" stroke-width="3" stroke-linecap="round"/>
<path d="M22.0459 303.401C10.5317 301.154 -2.13229 291.321 2.9647 278.069C4.25568 274.713 7.21713 272.929 8.88647 270.091C9.43819 269.153 11.7812 267.685 12.7521 267.13C14.1063 266.356 15.1614 264.137 16.4943 263.1C21.3686 259.309 25.8522 254.696 30.1884 250.105C35.2228 244.775 38.6217 237.971 43.8824 232.71C48.7738 227.819 54.6413 222.255 57.741 216.055C59.8027 211.932 66.2311 204.449 58.6868 202.772C53.5355 201.628 47.8868 201.991 42.402 201.991C37.7535 201.991 30.9286 204.316 30.9286 196.809C30.9286 194.084 31.2375 192.172 33.1492 190.147C34.9608 188.229 37.1469 184.773 39.4 183.485C41.485 182.294 43.079 179.943 45.3629 178.674C47.8545 177.29 50.4581 175.918 52.5595 174.027C54.4183 172.354 54.8694 170.584 56.2606 168.846C57.5909 167.183 57.3544 162.345 58.6868 161.279C62.6721 158.091 52.2461 152.396 50.1743 152.396C46.7804 152.396 34.6297 149.313 34.6297 144.624C34.6297 137.16 37.9734 131.461 42.4431 125.502C45.1614 121.877 46.8396 118.024 50.8734 115.755C53.4784 114.29 55.7599 112.222 58.3167 110.944" stroke="#FF4F43" stroke-width="3" stroke-linecap="round"/>
</svg>
