<svg width="344" height="581" viewBox="0 0 344 581" fill="none" xmlns="http://www.w3.org/2000/svg">
<path d="M2.35449 578.671C2.35449 565.037 11.5712 559.324 20.3644 550.53C26.0586 544.836 31.5226 538.431 35.2476 531.395C40.0239 522.373 40.6256 514.385 40.6256 504.38C40.6256 499.625 41.7512 495.262 41.7512 490.622C41.7512 486.222 41.2838 479.557 43.4396 475.677C45.0348 472.805 46.7194 468.797 47.4418 465.546C48.1734 462.254 52.1516 459.818 53.07 456.604C53.7262 454.307 55.6588 452.045 56.3217 449.725C57.146 446.84 56.3843 442.664 56.3843 439.657C56.3843 434.396 58.3687 423.981 55.8215 419.396C54.3093 416.674 54.3213 413.347 53.0074 410.391C51.4768 406.947 49.6995 403.281 48.5049 399.697" stroke="#FF4F43" stroke-width="3" stroke-linecap="round"/>
<path d="M48.5052 398.571C48.5052 386.05 47.3796 373.868 47.3796 361.426C47.3796 357.028 47.7684 354.757 44.8782 351.546C42.8262 349.266 41.0833 345.289 39.7504 342.29C36.3269 334.588 42.9835 328.07 46.0038 322.029C49.9098 314.217 45.1283 307.568 45.1283 300.08C45.1283 293.83 38.9341 288.812 37.3115 283.133C35.49 276.757 36.7481 266.374 41.3137 261.809C44.6225 258.5 48.5978 256.067 52.4449 253.929C56.5982 251.622 63.0528 252.789 67.0779 250.552C69.715 249.087 87.2678 247.596 87.9019 248.864" stroke="#FF4F43" stroke-width="3" stroke-linecap="round"/>
<path d="M161.067 244.362C179.102 244.362 196.653 243.236 214.534 243.236C221.507 243.236 228.003 244.362 234.795 244.362C239.968 244.362 248.625 247.872 253.931 244.924C255.749 243.914 261.434 243.351 263.498 243.236C267.009 243.041 270.213 242.11 273.629 242.11C282.323 242.11 288.419 243.627 296.141 247.488C303.039 250.937 313.356 254.073 320.905 254.492C325.006 254.72 329.178 254.492 333.287 254.492C336.703 254.492 339.237 256.743 342.292 256.743" stroke="#FF4F43" stroke-width="3" stroke-linecap="round"/>
<path d="M103.502 153.445C103.502 158.865 100.806 162.713 99.5387 167.784C98.8628 170.487 97.8533 173.243 96.9517 175.847C95.0219 181.423 91.657 186.327 89.0257 191.589C86.9436 195.753 86.1635 199.067 86.1635 203.864C86.1635 207.004 85.968 209.915 86.9065 212.918C87.7523 215.625 88.8703 218.238 90.0164 220.817C92.8348 227.158 94.88 234.614 95.0803 241.623C95.1774 245.021 96.5664 248.35 96.5664 251.75C96.5664 253.066 97.9973 257.689 96.9517 258.851C95.8957 260.024 93.0145 262.428 91.3649 262.428C90.2489 262.428 86.4109 263.532 85.558 264.3C84.0126 265.691 82.6958 265.562 82.6958 268.125C82.6958 270.715 82.6539 271.602 85.1727 272.721C87.7346 273.86 92.7062 272.831 95.5481 272.831C99.1534 272.831 102.759 272.831 106.364 272.831C111.871 272.831 111.923 268.451 111.923 263.914C111.923 249.987 111.428 236.233 111.428 222.303C111.428 215.836 111.751 209.351 111.923 202.983C112.103 196.313 114.758 189.086 116.492 182.673C117.663 178.338 120.525 174.589 122.326 170.536C123.404 168.11 124.495 165.73 125.684 163.353C127.625 159.469 130.359 155.6 131.738 151.464" stroke="#FF4F43" stroke-width="3" stroke-linecap="round"/>
<path d="M118.858 180.196C118.858 187.182 119.682 193.373 122.574 199.736C124.027 202.934 125.379 206.014 126.784 209.176C128.234 212.437 128.939 216.517 130.747 219.496C133.225 223.577 135.513 227.501 138.673 231.22C139.665 232.386 140.16 233.959 140.16 235.458C140.16 238.108 140.671 239.005 137.93 239.614C135.373 240.182 130.488 240.684 129.784 243.852C129.546 244.924 129.384 247.347 130.5 247.595C132.51 248.042 134.335 248.558 136.472 248.558C140.527 248.558 144.581 248.558 148.636 248.558C152.286 248.558 154.484 246.815 157.498 245.476C158.909 244.848 161.253 244.378 161.461 242.613C161.65 241.007 161.956 239.294 161.956 237.44C161.956 232.433 159.193 229.024 158.516 224.285C157.703 218.59 156.507 213.273 156.507 207.442C156.507 199.23 155.516 191.003 155.516 182.673C155.516 172.397 154.03 162.257 154.03 151.959" stroke="#FF4F43" stroke-width="3" stroke-linecap="round"/>
<path d="M98.0527 140.07C98.0527 143.446 98.3571 146.73 98.5481 149.978C98.668 152.015 102.914 152.954 104.245 153.693C106.745 155.082 110.667 154.436 113.409 154.436C117.194 154.436 120.879 153.445 124.555 153.445C129.705 153.445 135.045 151.658 140.27 151.464C145.023 151.288 150.957 150.524 155.021 148.492" stroke="#FF4F43" stroke-width="3" stroke-linecap="round"/>
<path d="M155.021 148.492C155.613 145.729 157.244 143.313 157.966 140.786C158.465 139.039 158.489 135.909 158.489 134.126C158.489 129.172 158.489 124.218 158.489 119.264C158.489 109.371 156.661 100.142 154.526 90.5326C152.553 81.6568 150.038 72.7443 145.609 64.9931C144.807 63.5897 143.969 62.2639 143.242 60.8099C142.679 59.6844 141.286 58.4975 141.15 57.3423C140.853 54.8117 139.557 50.9887 138.178 48.9209" stroke="#FF4F43" stroke-width="3" stroke-linecap="round"/>
<path d="M159.48 108.366C159.48 98.7577 163.443 90.1283 163.443 80.625C163.443 78.4409 165.322 71.9238 163.195 70.2221C162.203 69.4284 160.964 67.0818 160.223 66.0114C158.896 64.0947 156.644 62.6058 155.544 60.5897C155.059 59.7006 153.462 57.9237 152.654 57.3423C150.735 55.9599 150.169 53.276 148.086 52.0032C144.341 49.7149 142.588 44.964 139.059 42.4809C133.467 38.5461 125.933 33.4891 118.639 35.5732C116.901 36.0696 114.629 37.6721 113.3 38.9032C112.524 39.6214 111.357 39.9183 110.713 40.7471C110.327 41.243 109.988 42.0327 109.447 42.3709C106.279 44.3506 103.291 48.6363 100.53 51.3977C96.2357 55.6919 90.4459 59.6829 87.2647 64.7729C86.4458 66.0832 84.8047 67.1228 83.687 68.2406C82.0354 69.8921 81.9132 72.4206 81.3202 74.5704C80.1544 78.7962 81.3112 82.1947 82.2284 86.3218C82.7412 88.6296 83.4104 90.1473 83.1641 92.7342C82.9803 94.6638 82.3702 96.8428 81.9532 98.7613C79.8663 108.361 80.2193 138.005 80.2193 128.181" stroke="#FF4F43" stroke-width="3" stroke-linecap="round"/>
<path d="M80.2193 128.181C79.0856 130.849 76.7281 132.918 75.0729 135.309C73.3584 137.785 72.5391 140.816 70.7796 143.345C67.2925 148.358 65.358 151.944 65.358 157.904C65.358 159.565 64.6331 162.332 66.5689 162.885C68.8177 163.527 68.8631 164.259 71.3025 162.362C73.9251 160.322 76.1224 158.077 77.9626 155.317C80.4352 151.608 82.2084 147.627 84.6777 143.923C86.1583 141.702 87.8231 138.864 89.8517 137.125C91.614 135.615 93.467 132.728 95.3559 131.649C99.2167 129.442 99.539 121.614 99.539 117.778C99.539 113.146 100.034 108.438 100.034 103.715C100.034 97.2122 99.0437 90.964 99.0437 84.4777C99.0437 81.5023 98.903 78.6707 98.5758 75.7261C98.4558 74.646 97.8101 73.9593 97.5851 72.9465C97.4157 72.1842 97.2392 71.7085 97.0346 70.9925C96.854 70.3601 96.4972 71.8801 96.8145 72.4511C98.0957 74.7574 99.0186 76.1413 101.025 78.1479C102.837 79.9595 105.334 82.3372 106.584 84.5878C108.845 88.6563 114.416 92.1816 118.116 94.7431C120.047 96.0804 121.691 97.4179 123.317 98.9538C125.203 100.734 127.452 102.098 129.262 103.908C130.837 105.483 132.862 106.517 134.463 108.118C135.8 109.455 136.076 111.022 136.94 112.577C139.01 116.303 136.189 120.042 133.72 122.236C131.949 123.811 128.043 125.204 125.794 125.704C122.973 126.331 120.817 127.19 117.896 127.19C115.502 127.19 112.89 127.549 110.437 127.686C108.885 127.772 106.518 130.336 105.979 128.181" stroke="#FF4F43" stroke-width="3" stroke-linecap="round"/>
<path d="M108.456 41.4903C106.659 37.8409 105.21 34.5803 104.988 30.592C104.782 26.8809 103.987 22.6535 103.007 18.9781C101.514 13.3821 98.477 6.54586 92.3834 4.80483C90.337 4.22013 88.6227 2.85085 86.1912 2.85085C83.7328 2.85085 81.2665 2.35547 78.7331 2.35547C75.7302 2.35547 73.323 3.10869 70.5593 4.33698C67.4742 5.70815 66.4761 8.44772 64.257 10.6668C60.2766 14.6473 58.918 20.3601 58.918 25.8859C58.918 30.2244 62.2095 35.8147 66.0734 38.0226C67.9969 39.1218 69.2198 42.2752 71.5776 42.9489C74.1517 43.6843 76.9241 45.0039 79.6137 45.8386C85.6867 47.7233 92.2823 47.4616 94.5851 54.3701" stroke="#FF4F43" stroke-width="3" stroke-linecap="round"/>
</svg>
