<svg width="651" height="265" viewBox="0 0 651 265" fill="none" xmlns="http://www.w3.org/2000/svg">
<path d="M102.877 162.863C106.289 168.445 127 198.628 139.474 198.628C149.813 198.628 165.603 194.747 171.246 185.153C174.001 180.471 178.698 177.062 181.394 172.345C183.333 168.951 186.399 161.595 189.711 159.702C208.986 148.688 219.393 126.85 235.291 112.542C249.036 100.171 246.564 77.5645 245.77 60.891C245.046 45.6762 237.778 30.4415 227.056 19.7197C218.047 10.7104 214.524 3.99982 200.856 3.99982C177.5 3.99982 154.445 36.9368 144.5 36.9368C130.5 36.9368 121.508 8.99982 109 3.99982C96.4919 -1.0002 78.8982 5.61107 73.5998 12.2341C70.3565 16.2882 67.0929 18.4071 64.2843 23.4626C61.6969 28.1199 59.8255 32.2137 57.464 36.9368C46.6379 58.589 52.6116 94.3265 69.1084 111.794C75.9238 119.01 78.5041 130.181 84.8283 137.91C91.2747 145.789 97.5563 154.156 102.877 162.863Z" stroke="#FF4F43" stroke-width="3" stroke-linecap="round"/>
<path d="M440.897 134.083C444.04 126.923 455.967 113.646 464.851 113.123C471.94 112.706 485.213 110.761 491.799 107.467C507.533 99.6004 526.106 89.1691 544.199 89.1691C554.119 89.1691 564.238 88.5865 574.142 89.1691C578.52 89.4266 588.194 97.1176 591.775 99.9817C597.13 104.266 601.09 110.173 601.09 117.615C601.09 125.679 595.973 130.977 592.107 137.743C588.748 143.621 586.119 154.597 586.119 161.78C586.119 170.494 588.339 179.585 577.885 181.908C568.595 183.973 559.334 189.107 549.522 190.891C539.614 192.693 529.719 192.471 519.496 192.471C511.761 192.471 503.934 183.489 495.542 183.489C486.556 183.489 476.927 176.275 468.594 174.423C459.797 172.468 455.023 161.683 449.131 155.792C445.746 152.407 444.984 148.014 443.808 143.898C442.733 140.137 437.902 138.187 437.902 134.083" stroke="#FF4F43" stroke-width="3" stroke-linecap="round"/>
<path d="M442.393 149.055C433.098 150.869 424.882 155.043 415.445 155.043C409.162 155.043 405.707 150.303 400.474 147.225C389.072 140.518 376.933 123.178 373.442 110.961C371.968 105.802 366.099 100.982 364.625 95.8232C362.798 89.428 361.334 79.012 363.378 72.3681C367.666 58.4307 373.393 29.7492 387.914 23.2953C391.214 21.8287 396.225 19.6649 399.725 18.887C402.478 18.2752 407.481 19.0271 409.456 16.5582C411.944 13.4485 425.454 10.8406 429.668 9.90423C447.47 5.94818 465.294 5.32965 483.98 5.32965C498.535 5.32965 513.469 4.57014 526.898 8.40709C536.503 11.1512 552.813 13.1119 560.334 20.6337C569.011 29.3099 572.677 40.4621 581.294 49.0793C586.023 53.8081 589.478 59.9282 593.937 64.8824C597.696 69.0595 599.065 75.2728 603.336 78.6893C613.014 86.4317 618.078 101.168 626.541 110.129C629.952 113.741 637.729 122.943 643.01 123.603C649.264 124.385 648.998 138.06 648.998 142.318C648.998 147.443 649.137 157.924 642.261 159.452C638.776 160.226 636.17 158.719 633.278 161.032C631.643 162.34 631.425 166.16 628.704 166.937C607.314 173.049 628.248 138.575 614.564 138.575C609.348 138.575 618.237 154.114 608.576 153.546C604.701 153.318 604.084 139.497 604.084 136.329C604.084 130.254 609.897 125.341 611.487 119.777C612.275 117.019 606.238 117.898 604.833 115.369C603.131 112.307 600.928 111.545 598.096 110.129" stroke="#FF4F43" stroke-width="3" stroke-linecap="round"/>
<path d="M502 185.5C512.74 196.24 511.697 203.354 504.441 212.683C499.153 219.481 494.717 226.896 489.47 233.643C481.653 243.693 469.179 268.337 493.961 261.257C500.993 259.248 507.796 249.683 512.426 244.539C517.705 238.673 522.125 232.431 527.397 226.573C529.833 223.866 539.521 213.602 539.707 210.437C539.916 206.875 538.834 203.358 536.713 200.706C534.457 197.886 528.705 195.116 527.397 192.5" stroke="#FF4F43" stroke-width="3" stroke-linecap="round"/>
<path d="M464.851 174.506C461.16 183.406 455.086 191.713 448.715 198.793C445.899 201.921 439.857 209.541 439.399 213.431C439.048 216.415 432.275 229.981 431.914 226.906C431.267 221.406 419.266 216.959 414.696 214.929C403.582 209.989 393.931 200.65 380.345 204.532C370.711 207.285 394.49 226.345 397.147 228.735C405.903 236.616 415.244 242.786 425.925 247.533C429.517 249.129 435.552 252.357 439.399 252.357C443.074 252.357 453.197 241.869 454.287 238.051C455.057 235.358 455.171 231.911 455.785 229.151C456.299 226.838 458.171 225.206 458.779 223.08C460.283 217.815 464.851 210.265 464.851 205.197C464.851 200.235 467.738 192.964 470.091 188.729C472.096 185.118 475.33 173.37 475.33 177.5" stroke="#FF4F43" stroke-width="3" stroke-linecap="round"/>
<path d="M373.525 117.616C370.274 118.312 332.477 134.517 331.688 131.755C329.831 125.254 330.629 121.264 324.868 116.784C320.033 113.024 318.066 107.5 312 107.5" stroke="#FF4F43" stroke-width="3" stroke-linecap="round"/>
<path d="M311 146C320.497 146 332.723 147.106 339.424 140.405C341.89 137.939 350.323 134.291 354.062 134.084C365.35 133.456 368.912 125.5 380 125.5" stroke="#FF4F43" stroke-width="3" stroke-linecap="round"/>
<path d="M246.269 66.7127C254.003 66.7127 265.914 64.6315 273.217 67.8771C275.368 68.8333 286.592 71.0186 286.691 72.7012C287.079 79.2904 301.328 88.2323 306.154 93.6612C312.695 101.02 310.865 111.747 314.804 120.61C317.11 125.798 319.628 129.765 319.628 135.581C319.628 144.078 317.688 141.816 311.394 145.312C308.325 147.017 298.971 146.057 297.171 148.307C293.259 153.197 287.573 146.75 285.943 143.815C283.127 138.746 280.544 134.494 279.289 128.844C278.01 123.089 282.981 117.356 285.194 112.375C288.446 105.058 285.866 90.4566 278.374 86.1755C268.455 80.5078 257.584 81.6841 246.269 81.6841" stroke="#FF4F43" stroke-width="3" stroke-linecap="round"/>
<path d="M56 89.5C52.9891 104.931 43.2188 133.57 37.0022 147.558C32.7279 157.175 30.9382 164.026 18.7039 164.026C15.594 164.026 6.46131 162.335 5.31282 166.355C4.09978 170.601 2.23537 176.374 2.23537 180.495C2.23537 189.93 1.69355 201.455 14.2125 201.455C18.2887 201.455 28.3897 203.302 30.681 199.292C32.6483 195.849 35.5012 190.564 37.834 187.648C39.7504 185.252 38.8485 176.985 39.747 173.841C40.925 169.717 43.6049 165.709 44.1552 161.032C45.1362 152.693 49.2456 142.093 52.8053 134.083C56.7548 125.197 63.9601 118.428 68.1094 110.129" stroke="#FF4F43" stroke-width="3" stroke-linecap="round"/>
<path d="M119 184.5C119 190.132 118.39 209.019 121.258 214.18C122.252 215.97 124.789 226.452 123.171 228.07C118.117 233.124 102.027 225.409 96.5548 225.409C88.8261 225.409 79.5423 232.055 75.9276 238.883C70.4381 249.252 77.9934 253.854 88.3205 253.854C96.5046 253.854 106.349 257.25 115.269 255.268C119.752 254.272 138.475 252.433 138.475 247.117C138.475 229.211 137 215.69 137 197.5" stroke="#FF4F43" stroke-width="3" stroke-linecap="round"/>
<path d="M174.406 180.495C178.85 191.882 184.085 201.485 192.704 210.105C196.783 214.184 197.826 216.684 193.037 219.42C187.56 222.55 183.836 228.195 178.232 231.397C170.611 235.752 160.932 240.535 160.932 250.112C160.932 261.589 174.259 263.243 183.389 258.679C191.872 254.437 199.554 248.834 206.178 242.21C209.48 238.908 214.894 238.28 216.243 233.56C217.079 230.633 211.283 223.853 210.254 220.252C207.898 212.005 202.033 202.982 198.36 194.718C194.777 186.655 186.383 175.822 186.383 167.021" stroke="#FF4F43" stroke-width="3" stroke-linecap="round"/>
<path d="M529.503 78.3847C528.604 74.3896 526.224 70.7018 522.759 68.5362C520.952 67.4071 519.504 61.4509 518.959 59.5441C517.383 54.0284 516.75 44.2152 519.119 38.8837C522.023 32.3501 519.149 25.5279 516.015 20.0432C513.723 16.0321 507.616 10.1164 503.49 8.05371" stroke="#FF4F43" stroke-width="3" stroke-linecap="round"/>
<path d="M507.344 84.1651C507.178 77.3746 499.915 69.5635 495.033 64.6822C492.633 62.2819 490.172 60.4316 487.112 58.9016C485.382 58.0369 476.9 56.9471 475.55 58.634C474.645 59.7657 472.361 61.0892 471.215 62.006C469.537 63.3483 470.23 64.646 469.288 66.3415C467.486 69.5846 469.163 74.6596 467.361 77.9027C466.402 79.6288 467.175 81.1459 465.916 82.7199C464.782 84.138 463.206 84.4062 461.581 85.1285C459.273 86.1542 452.05 89.1906 450.501 86.092" stroke="#FF4F43" stroke-width="3" stroke-linecap="round"/>
<path d="M465.916 63.9329C458.311 62.2217 456.988 54.6519 450.501 51.4082" stroke="#FF4F43" stroke-width="3" stroke-linecap="round"/>
<path d="M473.624 57.1882C473.624 52.6599 473.584 49.4005 471.697 45.627" stroke="#FF4F43" stroke-width="3" stroke-linecap="round"/>
<path d="M490.002 59.1153C490.002 56.6149 489.282 47.2499 491.18 44.8778C493.01 42.5897 490.133 38.4791 491.18 37.1703C495.868 31.3094 488.381 26.3584 483.258 26.3584C480.589 26.3584 476.067 25.4866 473.624 26.5725C470.87 27.7961 467.005 29.2487 463.989 29.2487C459.753 29.2487 448.404 27.2933 445.684 30.6939C441.424 36.0188 434.689 39.9483 433.106 47.0723C432.526 49.681 431.232 53.2827 431.232 55.7433C431.232 59.5945 432.306 62.0056 427.86 62.0056C421.116 62.0056 414.372 62.0056 407.628 62.0056C400.729 62.0056 403.293 72.1821 403.293 77.4206" stroke="#FF4F43" stroke-width="3" stroke-linecap="round"/>
<path d="M362.828 74.5302C365.922 76.8744 367.549 78.4254 370.964 79.401C371.695 79.6097 374.937 80.2727 375.353 80.7926C377.101 82.9777 384.024 83.3946 384.024 79.8292C384.024 71.309 382.591 62.3986 386.914 54.8333C390.511 48.5388 395.386 43.3642 400.616 38.1337C402.935 35.815 406.672 33.9834 408.324 31.1755C410.183 28.0156 411 23.4114 411 19.6143" stroke="#FF4F43" stroke-width="3" stroke-linecap="round"/>
<path d="M369.572 104.397C370.685 104.397 385.482 105.317 385.897 103.862C386.806 100.681 384.023 91.1533 383.114 94.3345C381.859 98.728 385.019 102.852 385.897 106.806C386.807 110.899 389.648 113.725 390.714 117.457C391.857 121.456 395.585 124.99 395.585 129.446C395.585 132.093 396.407 138.004 398.69 139.83C401.637 142.189 405.893 141.78 408.859 145.076C411.366 147.862 412.676 151.201 416.781 152.569" stroke="#FF4F43" stroke-width="3" stroke-linecap="round"/>
<path d="M394.622 116.922C399.908 116.922 404.332 116.909 409.287 114.995C413.484 113.373 417.213 110.297 421.544 109.214C426.441 107.99 429.643 105.976 434.604 108.733C437.991 110.614 442.261 111.47 445.684 113.282C447.716 114.358 448.574 115.063 448.574 117.404C448.574 118.147 449.538 121.619 449.538 120.776" stroke="#FF4F43" stroke-width="3" stroke-linecap="round"/>
<path d="M439.903 111.142C441.219 107.771 445.684 102.269 445.684 98.6172" stroke="#FF4F43" stroke-width="3" stroke-linecap="round"/>
<path d="M418.707 110.177C418.707 105.002 418.527 100.148 419.617 95.2439C420.299 92.1749 421.598 90.6202 421.598 87.0547" stroke="#FF4F43" stroke-width="3" stroke-linecap="round"/>
<path d="M586.346 145.825C571.55 145.825 556.523 145.983 542.028 146.789C536.309 147.106 530.449 150.836 524.686 151.659C518.552 152.536 512.696 153.533 506.38 153.533" stroke="#FF4F43" stroke-width="3" stroke-linecap="round"/>
<path d="M461 169.415C473.204 169.415 485.407 169.415 497.611 169.415C503.242 169.415 508.821 169.999 513.989 167.702C517.817 166.001 524.13 164.113 528.441 163.634C533.501 163.072 537.845 160.078 542.892 159.781C547.281 159.522 552.453 158.817 557.344 158.817C562.567 158.817 567.675 157.173 572.759 156.89C575.648 156.73 585.006 156.481 586.247 154" stroke="#FF4F43" stroke-width="3" stroke-linecap="round"/>
<path d="M592.126 110.178C583.902 118.402 569.485 124.629 557.924 124.629C555.884 124.629 551.885 123.867 550.217 125.165C548.272 126.677 546.632 128.222 544.49 129.447C539.597 132.243 534.801 133.622 529.503 135.976C519.033 140.63 505.308 134.77 494.338 137.208C490.562 138.047 484.895 139.202 482.295 142.453C479.364 146.117 476.501 151.935 472.66 154.496" stroke="#FF4F43" stroke-width="3" stroke-linecap="round"/>
<path d="M564.187 114.031V126.556" stroke="#FF4F43" stroke-width="3" stroke-linecap="round"/>
<path d="M549.735 77.4207C549.735 70.742 549.763 68.9446 546.631 63.9326C545.488 62.1037 542.689 59.3487 541.279 57.9379C535.698 52.3574 543.221 45.0636 544.865 39.3114C548.448 26.7692 530.425 18.5681 525.649 9.0166" stroke="#FF4F43" stroke-width="3" stroke-linecap="round"/>
<path d="M565.15 71.641C565.15 66.164 565.82 62.2687 563.223 57.7246C562.222 55.9722 560.909 51.215 559.37 50.4453" stroke="#FF4F43" stroke-width="3" stroke-linecap="round"/>
<path d="M569.004 71.6406C560.852 71.6406 569.119 71.6406 571.894 71.6406C574.98 71.6406 579.656 72.5213 582.492 73.7816C587.396 75.9612 591.844 79.1914 596.462 81.7567C605.297 86.6651 611.933 94.158 620.066 99.5803" stroke="#FF4F43" stroke-width="3" stroke-linecap="round"/>
<path d="M589.236 65.8597C587.216 65.8597 579.008 67.0856 577.247 65.3245C575.739 63.8166 575.657 61.8241 574.785 60.0791" stroke="#FF4F43" stroke-width="3" stroke-linecap="round"/>
</svg>
