<svg width="876" height="650" viewBox="0 0 876 650" fill="none" xmlns="http://www.w3.org/2000/svg">
<path d="M4.3933 8.75391C4.3933 15.6606 3.67187 23.1391 4.65072 29.9911C5.81453 38.1377 8.5476 46.3439 10.1852 54.4459C14.1883 74.2504 17.6403 93.9877 23.8285 113.266C32.121 139.101 39.6507 165.044 51.6299 189.463C57.8161 202.073 61.2402 216.183 66.9463 229.105C72.1312 240.847 78.9629 254.284 81.748 266.817C82.8757 271.892 86.639 276.849 86.639 282.134C86.639 291.827 87.1324 301.524 88.6983 311.094C93.0786 337.862 102.54 363.531 109.807 389.607C112.684 399.932 115.553 409.811 119.074 419.982C120.484 424.056 122.549 426.943 122.549 431.309C122.549 435.55 122.914 439.586 124.222 443.665C131.027 464.881 134.255 488.339 138.509 510.079C140.173 518.586 141.943 526.409 144.301 534.663C146.246 541.471 149.964 546.58 152.41 552.94C154.251 557.727 158.232 561.367 160.518 565.939C163.582 572.067 166.395 577.897 169.786 583.83C177.331 597.035 187.439 608.208 197.844 619.225C200.9 622.461 197.961 625.124 199.26 630.809C200.361 635.626 201.539 640.471 203.894 644.71C208.371 652.769 216.184 643.365 222.428 639.819C249.071 624.688 275.927 610.774 303.258 596.958C323.182 586.887 340.422 573.077 359.118 561.306C369.73 554.624 383.307 553.414 393.87 546.247C408.167 536.545 424.265 530.307 439.948 523.336C442.941 522.006 447.452 523.794 450.116 521.663C452.506 519.751 456.809 521.019 459.64 519.604" stroke="#FF4F43" stroke-width="3" stroke-linecap="round"/>
<path d="M580.113 473.268C592.933 472.794 603.404 466.988 615.637 464.001C624.606 461.811 634.135 459.124 642.601 455.313C647.421 453.145 652.452 449.208 657.21 447.848C662.822 446.245 674.74 435.376 675.101 429.25C675.237 426.941 676.494 424.698 677.16 422.299C679.706 413.135 683.392 403.499 686.685 394.562C690.621 383.878 692.297 372.257 694.793 361.162C697.137 350.748 699.891 340.402 700.521 329.693C701.278 316.829 703.398 302.833 706.12 290.243C707.339 284.604 712.169 268.256 712.169 274.025" stroke="#FF4F43" stroke-width="3" stroke-linecap="round"/>
<path d="M2.07666 8.75405C28.3335 8.75405 54.5903 8.75405 80.8472 8.75405C92.6027 8.75405 104.358 8.75405 116.114 8.75405C131.502 8.75405 147.938 7.09511 163.157 9.33324C179.899 11.7952 197.247 10.4279 214.062 13.1302C234.183 16.364 254.752 17.7037 274.556 22.6547C287.207 25.8177 300.739 26.5934 313.684 28.1893C324.231 29.4897 334.923 31.3396 345.539 31.8575C363.013 32.7099 381.617 32.7895 398.825 35.9762C446.795 44.8595 498.47 42.6769 546.52 35.1396C556.025 33.6485 565.749 33.0339 574.9 30.2486C588.868 25.9977 606.994 23.1777 618.919 13.9024C628.815 6.2055 641.463 7.03869 651.933 1.80371" stroke="#FF4F43" stroke-width="3" stroke-linecap="round"/>
<path d="M651.933 1.80371C651.933 21.1425 660.859 36.7432 665.576 55.0896C669.67 71.0107 675.263 86.3754 681.15 101.683C683.71 108.337 687.363 114.669 690.417 121.118C692.788 126.123 698.813 131.808 699.427 137.335C700.442 146.47 709.853 154.99 709.853 163.978" stroke="#FF4F43" stroke-width="3" stroke-linecap="round"/>
<path d="M385.503 37.7139C385.503 51.4743 388.037 62.6596 391.553 75.9407C395.22 89.7957 396.834 104.029 401.206 117.771C409.217 142.95 415.955 168.247 423.73 193.517C426.47 202.42 430.681 213.108 430.681 222.477C430.681 226.417 432.997 230.077 432.997 234.061C432.997 236.032 434.389 243.331 435.572 244.808C438.111 247.983 439.948 258.675 439.948 263.021C439.948 268.535 441.057 278.56 443.423 283.292" stroke="#FF4F43" stroke-width="3" stroke-linecap="round"/>
<path d="M460.799 408.399C471.312 406.091 480.495 395.656 491.496 395.656C502.66 395.656 513.818 396.409 524.768 396.815C534.724 397.183 544.109 397.973 554.049 397.973C565.141 397.973 570.846 399.608 570.846 411.295C570.846 416.761 571.949 421.181 573.098 426.354C574.13 430.995 573.851 437.748 575.737 441.992C577.921 446.907 578.653 455.104 578.955 460.526C579.139 463.849 580.259 472.141 581.851 475.006C586.88 484.06 586.772 496.368 591.439 505.703C596.507 515.839 594.014 524.197 594.014 534.663" stroke="#FF4F43" stroke-width="3" stroke-linecap="round"/>
<path d="M460.799 410.716C459.864 418.299 456.578 426.447 456.165 433.884C455.961 437.553 452.884 440.817 452.69 444.309C452.193 453.265 451.532 462.574 451.532 471.853C451.532 481.68 456.619 494.56 460.541 503.387C464.517 512.332 464.274 522.564 464.274 532.347C464.274 540.251 462.589 549.459 459.383 556.673C454.854 566.863 456.165 580.372 456.165 591.425C456.165 599.717 462.006 606.852 467.749 612.276C469.132 613.581 475.247 617.846 477.016 618.068C479.836 618.42 480.94 622.926 482.808 623.86" stroke="#FF4F43" stroke-width="3" stroke-linecap="round"/>
<path d="M627.607 621.542C625.399 608.019 616.897 598.325 610.489 586.79C606.78 580.116 603.262 574.379 606.756 566.518C608.344 562.944 610.231 560.065 610.231 556.093C610.231 553.658 605.765 549.025 603.924 548.499C602.974 548.227 598.03 545.185 597.489 544.509C594.934 541.315 594.014 542.279 594.014 536.979" stroke="#FF4F43" stroke-width="3" stroke-linecap="round"/>
<path d="M594.013 536.98C578.301 532.375 564.968 526.555 548.257 526.555C537.832 526.555 527.406 526.555 516.981 526.555C507.259 526.555 492.73 528.866 483.966 533.248C479.573 535.444 475.267 537.159 470.774 539.233C467.701 540.651 465.332 545.089 461.957 545.089" stroke="#FF4F43" stroke-width="3" stroke-linecap="round"/>
<path d="M751.554 330.787C745.385 334.104 736.713 336.886 732.119 342.628C730.951 344.088 730.159 345.747 728.644 347.262C726.008 349.897 723.66 357.43 728.966 357.43C732.764 357.43 739.965 353.893 743.446 352.153C749.791 348.98 758.673 348.101 764.039 343.272C767.915 339.784 773.206 337.893 777.039 334.262C784.057 327.614 791.648 321.227 798.92 314.762C802.371 311.695 823.903 295.72 812.949 290.243" stroke="#FF4F43" stroke-width="3" stroke-linecap="round"/>
<path d="M812.949 290.243C822.482 293.202 832.656 298.576 841.008 304.144C844.762 306.646 848.577 310.521 852.334 312.51C856.314 314.617 859.911 317.457 863.918 319.46C866.656 320.829 873.059 323.584 874.344 326.153" stroke="#FF4F43" stroke-width="3" stroke-linecap="round"/>
<path d="M726.07 357.43C745.704 371.866 766.228 384.974 786.049 399.132C791.123 402.756 796.016 408.537 802.009 410.716C806.801 412.458 811.869 414.856 816.167 417.666C821.569 421.198 827.024 424.815 832.642 428.091C838.394 431.447 846.324 434.449 851.176 439.032C853.349 441.085 858.516 445.827 861.087 446.561C863.113 447.14 867.722 449.6 868.552 451.259" stroke="#FF4F43" stroke-width="3" stroke-linecap="round"/>
<path d="M759.663 337.737C747.414 332.658 737.415 319.479 728.129 310.193C724.323 306.387 721.318 302.625 717.704 298.609C714.779 295.36 712.409 290.243 707.536 290.243" stroke="#FF4F43" stroke-width="3" stroke-linecap="round"/>
<path d="M814.107 292.56C805.458 286.007 799.108 279.462 793.836 269.971C790.285 263.58 785.872 257.455 782.573 250.858C780.928 247.566 778.075 244.347 777.103 240.947C776.149 237.606 775.79 232.393 774.143 229.428C771.269 224.255 773.564 212.208 773.564 206.26C773.564 202.585 774.722 199.132 774.722 195.255C774.722 191.014 772.607 190.783 769.831 188.562C764.972 184.675 756.445 183 750.911 181.419C736.741 177.37 725.767 162.82 711.011 162.82" stroke="#FF4F43" stroke-width="3" stroke-linecap="round"/>
<path d="M708.694 184.829C715.905 184.976 721.365 187.552 726.649 191.779C729.182 193.805 726.121 195.255 724.333 195.255C721.691 195.255 719.99 193.132 717.961 191.779" stroke="#FF4F43" stroke-width="3" stroke-linecap="round"/>
<path d="M714.486 196.414C708.007 192.621 701.91 188.894 695.373 185.988C693.608 185.204 682.392 170.843 680.957 177.3C678.275 189.368 681.789 199.561 689.259 208.898C692.449 212.886 697.488 216.483 701.165 220.161C705.44 224.436 708.694 231.671 708.694 237.536C708.694 244.294 708.694 251.051 708.694 257.808C708.694 263.337 712.169 279.554 712.169 274.026" stroke="#FF4F43" stroke-width="3" stroke-linecap="round"/>
<path d="M426 420.5C420 424.5 403.523 410.363 401.785 404.28C400.187 398.688 400.562 392.506 400.562 386.389C400.562 379.195 399.344 370.936 402.622 364.38C405.013 359.597 409.233 352.374 409.83 347.004C410.582 340.234 418.643 332.209 421.671 326.153C424.17 321.154 428.481 316.886 434.156 316.886" stroke="#FF4F43" stroke-width="3" stroke-linecap="round"/>
<path d="M434.156 316.886C433.019 311.705 431.249 308.443 428.621 304.144C426.862 301.265 423.575 296.494 420.834 294.362C417.006 291.384 411.911 286.552 409.572 282.134C405.965 275.321 392.767 260.125 408.092 260.125C412.554 260.125 420.887 264.174 424.889 266.174C429.977 268.718 434.53 272.598 438.532 276.6C445.787 283.854 452.767 290.755 459.126 298.931C463.455 304.497 467.811 308.743 473.284 313.668C476.411 316.483 480.795 321.011 484.546 322.678C491.189 325.63 494.634 335.426 501.343 339.153C507.582 342.619 512.401 348.551 518.718 351.895C527.465 356.526 535.859 363.489 543.624 369.528C550.549 374.915 559.262 388.197 559.262 396.815" stroke="#FF4F43" stroke-width="3" stroke-linecap="round"/>
<path d="M651.933 26.1299C648.734 30.2245 644.961 34.3714 640.349 36.8128C637.44 38.3528 633.043 37.9985 630.825 39.7731C622.391 46.5197 611.88 48.8071 603.86 56.8272C596.086 64.6005 590.407 74.1983 582.43 81.7326C575.584 88.1981 569.089 92.8765 560.999 97.3708C556.763 99.7243 554.933 102.21 552.891 106.702C547.852 117.788 546.827 131.78 544.782 143.642C543.799 149.342 541.425 158.6 543.109 164.493C544.049 167.784 550.014 170.944 552.569 172.988C555.479 175.316 558.668 177.285 561.579 180.196C566.449 185.066 567.608 189.921 570.266 195.77C570.961 197.297 571.258 199.892 570.781 201.562C570.246 203.436 567.37 200.946 567.37 203.943C567.37 208.835 568.608 212.808 570.588 217.264C575.493 228.299 565.48 242.273 568.786 253.432C572.036 264.399 568.322 272.945 560.935 280.332C554.948 286.319 549.011 292.56 539.569 292.56C536.273 292.56 530.555 293.686 527.985 291.401C525.065 288.805 520.379 286.356 517.045 284.451C509.307 280.029 499.823 277.928 492.654 272.352C489.522 269.916 486.554 270.572 483.387 268.813C479.687 266.757 476.542 264.117 473.541 261.283C467.148 255.245 460.109 254.447 452.175 256.714C447.713 257.989 439.519 264.457 437.631 268.233" stroke="#FF4F43" stroke-width="3" stroke-linecap="round"/>
<path d="M399.404 260.124C387.327 260.124 375.872 256.93 366.326 249.12C362.425 245.928 358.087 243.916 355.643 239.273C354.512 237.126 351.659 233.481 349.014 233.481C342.482 233.481 336.949 233.581 331.059 236.699C326.105 239.322 325.657 248.16 320.634 251.115C314.017 255.007 309.846 262.05 302.614 265.337C295.766 268.45 286.169 267.075 278.932 267.075C266.568 267.075 251.983 269.29 240.126 265.337C238.249 264.712 215.706 257.156 215.22 261.283C214.377 268.447 208.545 275.344 208.27 283.035C207.962 291.669 207.75 300.98 205.889 309.356C205.434 311.404 200.261 315.788 199.003 317.786C196.824 321.247 193.687 325.371 192.053 329.049C189.661 334.429 182.232 338.124 179.053 343.528C177.368 346.393 171.763 348.525 168.885 349.964C164.808 352.002 161.435 355.334 157.301 357.172C144.394 362.908 138.767 373.736 138.767 388.062C138.767 390.618 139.257 393.74 138.702 396.235C137.827 400.174 132.618 404.696 130.658 408.398C127.859 413.685 126.134 418.604 123.708 423.457" stroke="#FF4F43" stroke-width="3" stroke-linecap="round"/>
<path d="M53.0454 199.888C59.973 184.493 71.157 170.03 73.8964 152.909C75.0923 145.434 75.0548 138.207 75.0548 130.642C75.0548 124.225 65.0492 106.772 73.3816 103.742C87.3217 98.6726 100.261 89.6611 114.183 84.3065C118.463 82.6602 120.814 79.1197 124.351 77.0988C127.375 75.3707 130.78 67.8316 134.712 67.8316C140.054 67.8316 145.2 65.5149 150.608 65.5149C153.105 65.5149 164.792 67.1556 166.568 64.9357C167.473 63.8035 169.909 63.3321 171.201 62.0397C174.111 59.1303 176.727 55.9757 179.567 53.03C183.88 48.5574 187.019 43.2458 189.478 37.7135C191.253 33.7207 189.308 30.9709 193.725 28.4464C196.293 26.9791 198.092 24.7045 200.74 23.2336C204.595 21.092 217.001 19.0925 218.695 15.7041" stroke="#FF4F43" stroke-width="3" stroke-linecap="round"/>
<path d="M426.293 420.557C429.311 416.694 433.442 415.377 431.86 409.839C431.117 407.24 428.094 401.769 425.824 399.954C423.914 398.425 421.358 394.154 420.725 391.941C419.215 386.653 426.573 391.789 427.75 392.461C430.976 394.305 434.104 394.476 437.531 395.999C439.751 396.986 443.656 398.746 445.96 399.017C452.279 399.76 460.945 402.078 460.945 409.319" stroke="#FF4F43" stroke-width="3" stroke-linecap="round"/>
<path d="M711.937 195.788C722.5 200.168 730.512 206.837 740.033 212.438C743.024 214.197 745.281 216.541 747.733 218.993C751.544 222.805 750.335 213.006 750.335 210.773" stroke="#FF4F43" stroke-width="3" stroke-linecap="round"/>
<path d="M754.08 196.725C750.538 197.416 747.874 198.163 744.715 199.742C743.189 200.505 740.77 202.869 739.512 203.228C736.564 204.071 734.333 207.535 731.604 208.9" stroke="#FF4F43" stroke-width="3" stroke-linecap="round"/>
<path d="M718.492 217.329C722.754 220.658 729.632 226.517 732.332 231.377C734.638 235.527 739.288 238.428 742.374 242.199C749.311 250.678 749.527 263.364 756.89 271.648C764.914 280.676 774.656 288.969 787.276 291.264C795.668 292.789 802.496 297.152 810.273 299.744" stroke="#FF4F43" stroke-width="3" stroke-linecap="round"/>
</svg>
