<svg width="758" height="581" viewBox="0 0 758 581" fill="none" xmlns="http://www.w3.org/2000/svg">
<path d="M11.135 275.207C11.135 284.628 10.9668 294.067 11.135 303.486C11.2381 309.256 12.9075 319.432 16.9858 323.963C19.6166 326.887 21.474 330.66 24.0283 333.498C27.38 337.222 30.0366 333.828 33.5087 330.789C37.8831 326.962 43.605 324.648 47.7022 320.551C50.3964 317.856 53.5569 314.968 56.4783 312.695C63.6722 307.1 71.2489 305.842 79.6105 303.269C89.974 300.08 102.145 300.56 112.981 300.56C123.401 300.56 133.82 300.56 144.24 300.56C148.308 300.56 151.044 300.305 154.858 298.61C159.847 296.393 160.196 281.206 160.763 277.32C162.955 262.284 164.23 247.723 164.23 232.518C164.23 229.219 164.423 225.845 164.23 222.55C164.09 220.181 154.157 223.05 152.962 223.309C145.34 224.957 139.029 229.038 131.509 230.406C119.185 232.646 105.742 232.1 94.0206 227.914C91.8375 227.134 86.7992 224.609 84.757 224.609C83.1392 224.609 77.2276 233.926 76.2517 235.227C64.575 250.796 48.8796 260.265 30.1499 264.427C24.3201 265.722 18.4196 270.067 12.5977 271.361C7.48392 272.497 2.35889 277.54 2.35889 283.008" stroke="#FF4F43" stroke-width="3" stroke-linecap="round"/>
<path d="M86.2192 223.526C93.1704 220.813 97.8376 219.217 104.963 217.892C109.484 217.05 115.003 217.498 119.59 217.675C130.402 218.091 132.05 225.261 132.05 234.252" stroke="#FF4F43" stroke-width="3" stroke-linecap="round"/>
<path d="M72.4612 308.123C72.4612 361.172 70.7806 414.034 70.7806 467.128C70.7806 480.794 69.9754 494.546 68.4464 508.116C67.7338 514.441 67.4194 521.077 67.4194 527.443C67.4194 531.66 67.9648 536.188 66.7658 540.235C64.6708 547.305 66.5791 557.835 66.5791 565.257" stroke="#FF4F43" stroke-width="3" stroke-linecap="round"/>
<path d="M131.283 303.922C131.283 318.996 132.603 334.705 130.863 349.672C129.185 364.102 127.922 379.125 127.922 393.648C127.922 416.386 127.081 439.192 127.081 461.993C127.081 483.654 127.081 505.315 127.081 526.977C127.081 532.454 127.081 537.932 127.081 543.409C127.081 546.116 126.084 551.616 127.735 553.68C128.97 555.224 128.762 564.047 128.762 566.097C128.762 571.214 130.735 571.98 124.56 571.98C121.095 571.98 115.474 574.332 112.329 575.761C108.885 577.326 102.282 578.702 98.5108 578.702C91.0881 578.702 83.6653 578.702 76.2426 578.702C73.6436 578.702 70.9188 576.354 69.2868 574.314C67.733 572.372 69.1905 566.563 66.5791 565.257" stroke="#FF4F43" stroke-width="3" stroke-linecap="round"/>
<path d="M163.449 222.412C168.721 225.498 174.252 227.84 179.56 230.633C183.179 232.538 192.09 235.719 192.09 240.611C192.09 242.102 192.552 243.572 192.72 245.087C192.94 247.067 192.859 249.901 193.416 251.783C194.508 255.467 193.881 259.901 193.881 263.717C193.881 271.032 193.881 278.347 193.881 285.661C193.881 290.391 193.881 295.12 193.881 299.849C193.881 302.184 194.551 305.872 193.582 308.004C192.711 309.921 193.217 312.845 191.626 314.435C190.033 316.028 184.691 314.662 182.411 315.363C175.239 317.57 176.808 309.234 172.101 307.142C169.566 306.016 166.021 304.784 163.913 303.098C161.936 301.516 158.777 301.974 157.482 299.385" stroke="#FF4F43" stroke-width="3" stroke-linecap="round"/>
<path d="M132.421 314.899H177.77" stroke="#FF4F43" stroke-width="3" stroke-linecap="round"/>
<path d="M390.191 260.004C405.738 260.004 421.071 254.343 436.468 252.877C449.622 251.624 462.738 248.371 475.982 248.07C482.551 247.921 489.016 246.238 495.54 245.716C505.155 244.947 514.979 242.871 524.181 240.015C528.279 238.743 532.419 237.871 536.513 236.6C538.357 236.028 540.727 234.943 542.646 234.943C543.669 234.943 546.107 234.38 544.602 233.285C543.13 232.215 538.457 231.959 536.679 231.959C523.732 231.959 510.72 230.658 497.728 233.02C494.406 233.624 490.912 232.707 487.584 233.285C483.525 233.991 479.302 233.987 475.187 234.379C471.755 234.706 468.036 235.069 464.645 235.672C463.346 235.903 457.24 235.415 456.424 236.435C455.677 237.368 451.53 236.733 450.424 236.733C447.054 236.733 443.684 236.733 440.313 236.733C434.177 236.733 428.005 237.926 421.816 237.926C418.202 237.926 414.617 238.923 411.076 239.12C409.572 239.203 403.91 239.727 403.319 240.91" stroke="#FF4F43" stroke-width="3" stroke-linecap="round"/>
<path d="M403.319 237.33C399.423 242.934 395.373 249.241 392.578 255.529C390.773 259.59 386.969 262.543 384.821 266.302C381.092 272.828 376.805 280.34 369.904 283.407C366.283 285.017 362.851 285.065 358.865 285.065C356.83 285.065 354.454 285.425 352.6 284.601C351.212 283.984 350.584 282.824 349.285 282.081C345.853 280.12 346.036 271.359 346.036 268.059C346.036 262.962 345.608 256.479 348.125 251.949C349.043 250.295 349.169 247.249 349.583 245.385C350.023 243.405 350.587 241.128 350.81 239.12C351.572 232.259 355.099 226.545 356.909 220.026C357.649 217.363 359.585 214.74 360.821 212.269C361.535 210.842 362.201 208.932 363.672 208.092C366.686 206.37 370.934 205.705 374.379 205.705C382.493 205.705 389.138 211.504 394.368 217.042C395.837 218.597 396.733 220.6 398.247 222.114C399.278 223.146 401.956 225.749 402.125 227.186C402.295 228.631 403.526 230.655 403.882 232.258C404.265 233.98 403.915 236.16 403.915 237.926" stroke="#FF4F43" stroke-width="3" stroke-linecap="round"/>
<path d="M343.053 279.098C337.684 280.146 332.134 282.081 326.644 282.081C324.462 282.081 320.041 282.405 318.589 280.59C317.729 279.516 314.518 279.249 313.218 278.634C311.939 278.028 310.647 277.042 309.373 276.678C307.29 276.083 305.83 272.251 305.428 270.446C304.189 264.867 304.268 259.578 304.268 253.772C304.268 248.984 306.629 244.902 307.285 240.313C308.534 231.568 313.218 223.126 313.218 214.092C313.218 211.91 313.815 209.748 313.815 207.495C313.815 205.637 313.258 202.655 313.948 200.932C314.927 198.482 313.109 193.019 314.876 191.252C316.34 189.788 321.438 188.401 323.495 188.401C326.589 188.401 329.685 187.804 332.909 187.804C336.229 187.804 339.385 188.155 342.589 188.401C346.522 188.704 349.338 191.23 352.6 193.042C357.272 195.638 363.34 202.985 363.34 208.689" stroke="#FF4F43" stroke-width="3" stroke-linecap="round"/>
<path d="M311.428 191.981C304.479 190.456 298.802 186.611 291.439 186.611C285.596 186.611 279.092 185.427 274.433 189.595C268.052 195.304 260.561 203.69 259.549 212.799C259.128 216.592 258.753 220.598 257.594 224.335C256.212 228.786 253.811 233.807 253.549 238.523C253.241 244.074 252.953 249.602 252.953 255.23C252.953 259.367 254.433 262.898 256.268 266.568C257.558 269.149 258.116 272.872 260.246 274.789C262.912 277.188 268.075 277.111 271.317 278.037C277.283 279.742 286.666 278.799 292.036 275.816C295.455 273.917 303.442 275.381 305.461 271.341" stroke="#FF4F43" stroke-width="3" stroke-linecap="round"/>
<path d="M270.257 188.998C263.108 183.719 255.44 181.837 246.687 181.837C243.505 181.837 240.323 181.837 237.14 181.837C234.006 181.837 231.468 183.874 228.488 184.224C225.257 184.604 221.732 188.618 218.941 190.324C215.919 192.171 214.511 196.046 212.709 198.876C209.166 204.444 209.727 211.54 215.958 214.655" stroke="#FF4F43" stroke-width="3" stroke-linecap="round"/>
<path d="M230.875 336.38C233.149 325.768 238.069 314.122 243.273 304.756C246.786 298.432 246.517 286.131 243.107 279.993C240.27 274.886 236.895 264.497 242.51 260.004C244.95 258.052 246.289 255.504 248.046 253.308C249.979 250.892 252.356 241.993 252.356 245.087" stroke="#FF4F43" stroke-width="3" stroke-linecap="round"/>
<path d="M255.936 224.799C255.936 219.838 255.1 215.18 252.654 210.777C251.228 208.21 249.201 203.568 246.124 202.689C244.39 202.193 242.371 200.443 240.422 200.335C238.348 200.22 236.234 200.335 234.157 200.335C230.558 200.335 224.3 202.203 221.66 204.843C215.601 210.902 212.598 219.107 207.008 225.396C203.563 229.271 200.523 234.062 199.118 239.12C197.839 243.724 196.474 248.85 194.477 252.844" stroke="#FF4F43" stroke-width="3" stroke-linecap="round"/>
<path d="M193.284 303.562C193.457 307.894 195.99 312.667 198.654 316.093C200.436 318.384 201.277 321.254 203.129 323.518C205.939 326.953 208.512 330.898 210.886 334.59C213.749 339.043 218.901 341.604 222.522 345.331C225.684 348.586 229.085 353.253 233.262 355.342C236.058 356.74 238.43 358.965 241.317 360.248C243.531 361.232 246.851 363.866 248.478 365.618C250.03 367.289 252.657 368.018 254.444 369.53C258.155 372.67 265.692 376.984 267.273 381.729" stroke="#FF4F43" stroke-width="3" stroke-linecap="round"/>
<path d="M267.87 382.325C267.99 387.135 271.235 391.465 272.776 395.917C273.612 398.333 274.87 403.009 276.356 404.867C277.879 406.771 277.175 410.284 278.345 412.458C279.668 414.914 280.824 417.774 281.727 420.381C282.813 423.52 285.627 425 286.964 427.674" stroke="#FF4F43" stroke-width="3" stroke-linecap="round"/>
<path d="M272.047 389.486C280.396 389.486 287.121 386.167 294.423 382.922C298.494 381.113 302.639 379.201 306.655 377.088C310.218 375.212 312.515 372.115 315.738 369.795C318.22 368.008 319.399 364.661 320.71 362.038C322.295 358.868 321.639 355.64 323.031 352.458C325.884 345.936 325.403 338.487 325.152 331.474C324.917 324.893 320.143 318.89 317.097 313.408C314.85 309.363 312.791 305.548 310.235 301.64C307.004 296.698 302.715 291.221 298.003 287.452C294.71 284.817 292.546 282.187 288.754 280.291" stroke="#FF4F43" stroke-width="3" stroke-linecap="round"/>
<path d="M332.313 364.425C332.313 368.188 331.312 373.245 333.208 376.657C334.54 379.056 335.897 380.54 337.815 382.458C341.454 386.096 347.162 389.911 352.368 390.712C355.169 391.143 357.533 392.469 360.357 392.469C363.042 392.469 365.727 392.469 368.412 392.469C371.656 392.469 378.454 390.883 380.048 387.695" stroke="#FF4F43" stroke-width="3" stroke-linecap="round"/>
<path d="M402.125 261.794C406.216 272.278 407.495 283.417 407.495 294.612C407.495 304.425 404.698 313.735 401.827 322.988C397.422 337.179 397.2 352.358 394.235 366.811C393.731 369.271 390.242 385.036 393.175 386.502" stroke="#FF4F43" stroke-width="3" stroke-linecap="round"/>
<path d="M260.71 379.342C260.71 384.668 260.71 389.994 260.71 395.32C260.71 399.323 261.263 403.767 260.411 407.685C259.864 410.201 259.516 414.074 259.516 416.635C259.516 419.728 259.028 422.726 258.92 425.751C258.71 431.615 258.323 437.286 258.323 443.188C258.323 451.604 255.983 459.834 254.179 467.95C252.99 473.3 252.806 479.163 251.03 484.492C249.804 488.171 247.709 491.133 245.925 494.503C243.987 498.165 240.893 501.133 239.229 504.879C238.589 506.319 236.718 507.617 236.279 509.155C236.003 510.119 236.386 510.957 236.71 511.807C237.368 513.536 237.387 517.059 237.439 518.967C237.573 523.922 238.036 528.86 238.036 533.885" stroke="#FF4F43" stroke-width="3" stroke-linecap="round"/>
<path d="M383.031 390.082C385.454 388.192 388.066 386.838 390.192 384.712" stroke="#FF4F43" stroke-width="3" stroke-linecap="round"/>
<path d="M394.965 375.165C395.851 379.4 398.092 383.013 399.009 387.231C400.127 392.375 400.697 397.682 401.529 402.878C402.813 410.906 402.722 418.901 402.722 427.044C402.722 436.16 401.18 445.001 400.932 454.193C400.672 463.812 400.335 473.481 400.335 483.166C400.335 489.133 400.335 495.1 400.335 501.067C400.335 506.033 400.882 511.419 400.004 516.315C398.415 525.166 396.552 533.924 393.639 542.371C392.17 546.632 390.943 551.475 388.998 555.365" stroke="#FF4F43" stroke-width="3" stroke-linecap="round"/>
<path d="M390.191 388.889C390.191 400.99 383.185 408.233 377.926 418.458C375.542 423.094 373.501 429.03 372.854 434.204C372.556 436.591 372.291 443.803 372.291 441.398" stroke="#FF4F43" stroke-width="3" stroke-linecap="round"/>
<path d="M288.157 434.237C305.148 444.969 323.692 444.978 343.053 444.978C346.02 444.978 348.814 444.381 351.738 444.381C353.993 444.381 358.669 444.589 360.655 443.486C362.614 442.397 371.694 443.656 371.694 441.398" stroke="#FF4F43" stroke-width="3" stroke-linecap="round"/>
<path d="M423.009 559.542C423.009 552.57 423.009 545.597 423.009 538.625C423.009 532.785 424.203 526.824 424.203 521.056C424.203 515.887 424.622 510.538 423.307 505.542C421.729 499.542 420.108 493.621 418.534 487.641C415.837 477.392 413.462 466.01 409.153 456.315C406.248 449.78 405.863 442.311 402.722 436.027" stroke="#FF4F43" stroke-width="3" stroke-linecap="round"/>
<path d="M289.351 434.834C288.498 433.093 287.16 428.667 285.174 427.674" stroke="#FF4F43" stroke-width="3" stroke-linecap="round"/>
<path d="M236.842 534.481V554.172" stroke="#FF4F43" stroke-width="3" stroke-linecap="round"/>
<path d="M566.475 4.35522C566.475 15.5684 567.492 25.1165 561.937 35.1162C559.05 40.3133 554.613 48.8247 558.855 54.2788C564.566 61.6212 565.467 72.5754 565.467 81.5098C565.467 93.3733 559.727 104.177 554.877 114.848C551.284 122.752 549.968 135.141 549.33 143.76C548.937 149.064 545.915 154.983 543.839 159.729C541.644 164.745 542.27 171.433 542.27 176.818C542.27 185.357 542.731 193.46 544.511 201.472C546.089 208.57 547.313 216.428 547.313 223.716C547.313 225.927 546.304 232.483 546.304 230.272" stroke="#FF4F43" stroke-width="3" stroke-linecap="round"/>
<path d="M540.253 252.46C540.253 268.237 540.432 284.468 534.705 299.358C532.521 305.037 530.005 311.119 525.628 315.495C523.266 317.858 521.303 318.889 518.625 320.594C515.445 322.617 517.056 330.21 517.056 333.369C517.056 340.612 517.348 347.309 519.297 354.324C520.454 358.491 523.438 362.108 524.9 366.203C525.732 368.533 528.017 370.965 528.15 373.487C528.458 379.342 527.141 385.152 527.141 391.025C527.141 399.947 526.673 408.961 527.141 417.863C527.371 422.221 533.505 427.655 535.994 430.975C538.234 433.961 540.046 437.733 541.709 441.06C542.023 441.687 545.113 445.717 544.231 442.629C543.43 439.825 542.292 440.377 543.278 443.582C545.39 450.445 550.166 457.3 555.381 462.24C560.061 466.674 570.109 469.771 570.509 477.368C570.837 483.587 567.484 488.465 567.484 494.57C567.484 498.467 566.987 502.748 567.54 506.616C567.951 509.499 569.501 508.553 569.501 511.715C569.501 519.239 570.102 526.513 570.509 533.847C570.73 537.823 575.648 555.987 571.518 558.053" stroke="#FF4F43" stroke-width="3" stroke-linecap="round"/>
<path d="M571.518 477.368C582.294 477.165 592.457 473.114 603.12 471.541C613.721 469.977 624.124 468.263 634.833 467.059C653.622 464.945 673.062 466.274 691.985 466.274C695.56 466.274 701.337 464.459 705.152 463.753C713.132 462.275 721.197 462.24 729.301 462.24C735.539 462.24 741.777 462.24 748.015 462.24C750.703 462.24 753.734 465.099 756.084 466.274" stroke="#FF4F43" stroke-width="3" stroke-linecap="round"/>
<path d="M721.793 459.214C721.793 437.475 722.988 410.826 703.639 395.899C698.206 391.709 693.167 386.486 688.51 381.555C685.036 377.877 685.485 373.209 685.485 368.388C685.485 356.923 697.556 343.682 704.703 335.106C711.37 327.106 715.143 318.304 719.215 308.995C721.683 303.354 721.793 298.406 721.793 292.354C721.793 288.911 720.139 276.988 722.801 275.657" stroke="#FF4F43" stroke-width="3" stroke-linecap="round"/>
<path d="M670.356 159.673C670.356 142.621 670.356 125.569 670.356 108.517C670.356 101.407 669.927 94.1297 670.805 87.0569C671.783 79.1719 674.498 71.6004 676.184 63.8601C677.687 56.9544 679.015 49.7867 678.369 42.6804C677.658 34.858 665.184 30.0859 668.787 21.2766C669.967 18.3924 673.382 16.202 673.382 12.8719C673.382 9.19123 673.501 5.89723 674.391 2.33813" stroke="#FF4F43" stroke-width="3" stroke-linecap="round"/>
</svg>
