<svg width="667" height="507" viewBox="0 0 667 507" fill="none" xmlns="http://www.w3.org/2000/svg">
<path d="M212.136 360.234C206.899 360.234 202.199 359.622 197.555 361.964C194.141 363.686 192.357 366.657 189.407 368.8C184.817 372.134 183.63 378.895 181.449 383.596C178.791 389.328 180.26 398.688 182.974 404.233C185.83 410.068 189.095 413.967 196.268 413.967C202.419 413.967 209.967 410.368 213.184 405.401C216.463 400.34 220.966 393.658 222.381 387.879C223.786 382.137 224.537 376.432 224.144 370.357C223.855 365.909 214.313 362.57 210.42 362.57" stroke="black" stroke-width="3" stroke-linecap="round"/>
<path d="M204.417 372.694C196.179 378.074 192.409 382.815 192.409 391.773C192.409 394.842 191.671 397.841 193.934 400.123C195.35 401.552 200.674 404.198 202.701 401.897C204.558 399.789 206.398 397.804 208.229 395.667C209.382 394.32 212.033 389.072 212.136 387.49C212.494 381.963 215.236 374.251 206.132 374.251" stroke="black" stroke-width="3" stroke-linecap="round"/>
<path d="M314.202 301.049C309.811 301.049 304.838 300.382 301.336 303.385C299.842 304.666 297.949 305.393 296.667 306.889C295.799 307.902 295.123 309.611 294.046 310.394C289.957 313.364 289.329 321.899 289.329 326.358C289.329 332.894 290.605 338.809 295.761 343.491C299.888 347.238 307.253 350.059 312.915 347.774C322.454 343.924 332.213 331.326 332.213 322.075C332.213 316.364 333.869 309.104 328.973 305.548C326.733 303.921 323.383 304.821 320.682 304.12C317.923 303.405 316.344 301.049 313.344 301.049" stroke="black" stroke-width="3" stroke-linecap="round"/>
<path d="M313.344 311.172C303.899 311.367 299.621 317.411 299.621 325.19C299.621 331.211 300.029 337.65 308.198 337.65C313.971 337.65 320.206 332.397 320.206 326.747C320.206 320.968 322.627 311.951 314.202 311.951" stroke="black" stroke-width="3" stroke-linecap="round"/>
<path d="M310.771 319.739C310.771 321.021 309.663 326.747 312.058 326.747C313.677 326.747 315.917 325.625 315.917 324.022C315.917 322.96 316.546 319.907 315.06 319.739C314.257 319.648 310.902 317.711 310.771 319.739C310.673 321.25 311.238 322.585 311.676 323.979C312.602 326.919 313.399 323.125 313.773 322.854C315.61 321.52 312.608 319.415 312.486 321.296C312.281 324.465 312.486 318.9 312.486 322.075" stroke="black" stroke-width="3" stroke-linecap="round"/>
<path d="M204.416 382.039C200.808 384.52 198.811 387.392 200.176 391.73C200.866 393.924 206.132 393.418 206.132 390.994C206.132 388.522 207.406 384.375 203.988 384.375C200.658 384.375 200.212 387.562 201.033 390.172C201.701 392.295 207.691 388.623 207.847 387.49C208.271 384.411 210.056 383.017 206.132 381.433C201.067 379.389 201.566 393.205 204.416 394.499" stroke="black" stroke-width="3" stroke-linecap="round"/>
<path d="M205.274 394.499C205.466 393.584 208.88 384.88 207.657 383.769C204.161 380.595 203.559 387.238 203.559 388.658C203.559 392.723 206.132 388.058 206.132 386.322C206.132 382.51 205.274 389.561 205.274 390.605" stroke="black" stroke-width="3" stroke-linecap="round"/>
<path d="M147.809 357.897C147.809 367.856 146.951 377.551 146.951 387.49C146.951 391.651 147.809 404.111 147.809 399.95" stroke="black" stroke-width="3" stroke-linecap="round"/>
<path d="M148.667 358.676C158.32 355.128 167.867 348.751 176.113 342.928C182.205 338.626 188.979 333.314 195.84 330.035C198.246 328.885 199.829 326.817 202.273 325.622C205.31 324.138 208.51 323.023 211.469 321.296C219.833 316.414 228.541 311.895 237.2 307.452C242.48 304.742 248.741 303.553 254.163 301.092C257.642 299.513 261.581 297.49 265.313 296.549C272.573 294.718 279.109 290.879 285.231 287.031C290.676 283.608 298.458 279.544 304.767 277.859C309.834 276.506 314.446 273.603 319.539 272.062C323.723 270.795 328.153 269.421 331.547 266.957C332.224 266.464 334.442 265.482 335.263 265.269C337.722 264.632 337.026 266.6 338.027 267.735C341.831 272.053 345.937 280.953 345.937 286.252C345.937 291.811 349.256 301.081 346.604 306.5C345.186 309.396 346.204 312.73 341.648 312.73C338.114 312.73 334.663 315.066 331.356 315.066" stroke="black" stroke-width="3" stroke-linecap="round"/>
<path d="M308.198 299.491C308.198 296.627 309.677 281.862 305.625 280.022" stroke="black" stroke-width="3" stroke-linecap="round"/>
<path d="M224.144 376.588C227.311 374.774 235.198 371.332 237.009 367.632C238.049 365.508 242.022 362.948 244.252 361.791C248.824 359.419 254.518 355.239 258.451 351.667C263.082 347.463 270.084 346.352 275.177 342.755C279.196 339.917 284.079 338.086 288.471 336.092" stroke="black" stroke-width="3" stroke-linecap="round"/>
<path d="M257.594 354.783C257.594 343.889 257.377 332.544 256.736 322.075C256.536 318.8 253.808 304.942 249.875 304.942" stroke="black" stroke-width="3" stroke-linecap="round"/>
<path d="M204.417 325.969C204.417 338.018 202.862 351.328 206.99 362.57" stroke="black" stroke-width="3" stroke-linecap="round"/>
<path d="M148.666 358.676C132.069 358.676 119.247 352.836 105.353 345.827C99.3629 342.805 92.0602 341.026 86.9121 336.871C83.4541 334.08 72.3313 330.17 72.3313 325.19" stroke="black" stroke-width="3" stroke-linecap="round"/>
<path d="M72.3313 325.19C74.5483 320.335 78.0386 318.018 81.9566 314.46C84.2165 312.409 87.6404 309.183 90.3429 307.884C95.2345 305.533 100.259 301.647 105.4 300.313C107.993 299.641 110.592 298.934 113.072 297.934C114.326 297.427 118.888 296.686 119.505 295.987C120.397 294.974 122.79 298.514 124.651 298.756C127.97 299.186 131.954 301.076 134.943 302.433C147.959 308.342 163.126 311.475 176.97 315.066C181.836 316.328 188.496 317.159 192.838 319.349C196.509 321.201 203.559 320.024 203.559 325.19" stroke="black" stroke-width="3" stroke-linecap="round"/>
<path d="M203.559 325.19C203.559 315.463 202.701 305.896 202.701 296.376C202.701 293.131 202.701 289.886 202.701 286.642C202.701 283.295 204.038 280.604 204.417 277.686C204.903 273.936 210.27 273.906 213.375 272.624C216.344 271.399 221.092 268.687 224.144 268.341C227.182 267.996 231.788 264.7 234.912 263.669C239.083 262.292 244.837 260.119 248.159 257.439C251.294 254.909 256.154 252.265 259.69 250.43C261.738 249.367 264.678 246.803 267.028 246.536C268.767 246.339 274.863 244.331 276.463 246.147C277.459 247.277 281.714 249.05 283.325 249.824C288.338 252.234 291.566 259.042 295.332 262.89C299.469 267.115 303.052 272.656 303.052 278.465" stroke="black" stroke-width="3" stroke-linecap="round"/>
<path d="M334.787 266.005C325.688 262.58 319.729 255.102 309.056 255.102C304.767 255.102 300.915 253.545 296.619 253.545C292.188 253.545 287.756 253.545 283.325 253.545" stroke="black" stroke-width="3" stroke-linecap="round"/>
<path d="M271.317 245.757C267.97 245.757 260.826 246.82 257.594 245.584C254.608 244.443 250.391 244.374 247.73 243.032C242.41 240.348 234.938 236.903 228.861 235.677C221.633 234.218 215.494 232.518 207.847 232.518C196.99 232.518 190.433 237.877 180.401 240.479C175.727 241.691 169.532 246.008 165.82 248.872C164.54 249.86 161.475 251.5 159.864 251.987C157.832 252.602 156.131 254.678 154.241 255.059C149.412 256.033 143.066 262.523 139.66 265.615C130.173 274.23 122.935 287.524 122.935 299.491" stroke="black" stroke-width="3" stroke-linecap="round"/>
<path d="M150.382 258.217C156.861 258.217 164.113 257.449 170.49 258.607C175.464 259.51 180.481 260.432 185.547 260.554C191.067 260.685 196.157 261.953 200.986 264.274C203.125 265.303 205.08 267.732 206.799 269.293C207.522 269.949 213.309 273.936 211.278 273.014" stroke="black" stroke-width="3" stroke-linecap="round"/>
<path d="M118.647 332.977C124.175 329.762 128.589 326.086 133.657 322.507C136.708 320.353 140.937 319.229 144.378 317.575C149.464 315.131 156.517 311.951 162.39 311.951" stroke="black" stroke-width="3" stroke-linecap="round"/>
<path d="M146.093 260.553C146.093 269.899 146.093 279.244 146.093 288.589C146.093 290.146 146.093 291.704 146.093 293.261C146.093 294.105 147.106 291.217 147.618 290.752C151.758 286.993 158.548 285.933 163.438 283.137C167.034 281.082 171.857 279.842 175.064 277.513C177.516 275.732 181.105 276.055 183.832 274.744C185.265 274.055 182.288 269.898 181.449 268.947C179.757 267.025 182.38 262.111 177.828 262.111" stroke="black" stroke-width="3" stroke-linecap="round"/>
<path d="M183.832 274.571C192.361 276.082 197.039 279.788 204.417 283.137" stroke="black" stroke-width="3" stroke-linecap="round"/>
<path d="M147.809 292.482C152.026 295.061 156.273 297.897 160.245 300.702C162.363 302.198 164.983 303.408 166.678 305.332C168.236 307.1 171.526 308.133 173.349 309.788C175.111 311.388 176.454 314.053 178.686 315.066" stroke="black" stroke-width="3" stroke-linecap="round"/>
<path d="M93.7737 348.552C93.7737 352.187 93.7737 355.821 93.7737 359.455C93.7737 362.356 97.1927 361.872 99.3487 362.959C102.624 364.611 109.024 367.242 112.643 367.242" stroke="black" stroke-width="3" stroke-linecap="round"/>
<path d="M94.6313 356.34C100.931 360.5 108.664 361.932 115.216 364.906" stroke="black" stroke-width="3" stroke-linecap="round"/>
<path d="M92.916 351.667C96.3207 351.667 99.8034 351.496 103.208 351.667C105.193 351.768 107.228 353.125 109.212 353.225C112.669 353.399 116.046 354.782 119.505 354.782" stroke="black" stroke-width="3" stroke-linecap="round"/>
<path d="M103.208 348.552C103.208 354.348 102.351 359.16 102.351 364.906" stroke="black" stroke-width="3" stroke-linecap="round"/>
<path d="M97.2043 350.889V363.349" stroke="black" stroke-width="3" stroke-linecap="round"/>
<path d="M71.4735 345.437C70.1708 350.826 65.4721 361.918 71.6641 366.291C71.9233 366.474 79.8265 351.972 76.1908 349.331C68.3086 343.606 68.9333 353.434 71.9024 358.287C72.1127 358.63 73.7373 363.259 74.0466 361.012C74.24 359.607 74.9043 358.446 74.9043 356.729C74.9043 355.091 75.5876 353.097 73.1889 353.225C71.6887 353.305 72.3312 356.87 72.3312 357.897" stroke="black" stroke-width="3" stroke-linecap="round"/>
<path d="M136.658 368.8C131.149 372.708 131.512 379.139 131.512 385.154C131.512 386.787 131.214 390.605 133.656 390.605C136.408 390.605 136.658 387.793 136.658 385.543C136.658 382.727 138.374 380.237 138.374 377.366C138.374 375.334 136.792 371.101 133.704 373.905C132.936 374.602 132.618 380.361 133.418 381.087C134.479 382.05 136.99 376.738 134.943 375.809" stroke="black" stroke-width="3" stroke-linecap="round"/>
<path d="M80.0505 358.676C84.6718 368.549 94.363 369.963 103.637 374.641C106.754 376.213 111.046 376.349 113.691 378.751C115.632 380.513 115.216 387.977 115.216 390.605" stroke="black" stroke-width="3" stroke-linecap="round"/>
<path d="M177.828 397.614C169.341 401.05 161.006 405.407 152.955 409.468C148.659 411.635 145.96 413.967 140.947 413.967C127.637 413.967 117.437 406.349 106.639 400.902C101.948 398.535 96.9366 395.395 92.7252 392.336C89.5235 390.01 83.5381 389.307 80.908 386.322C77.9939 383.014 71.8234 381.578 68.4714 378.534C65.3128 375.666 60.6261 373.244 58.6079 369.579" stroke="black" stroke-width="3" stroke-linecap="round"/>
<path d="M58.6079 369.579C58.6079 363.551 58.6079 357.522 58.6079 351.494C58.6079 347.132 60.3233 342.927 60.3233 338.818C60.3233 335.52 61.5325 330.845 63.3252 327.915C64.2861 326.345 70.6157 320.416 70.6157 325.19" stroke="black" stroke-width="3" stroke-linecap="round"/>
<path d="M146.093 402.286C148.988 401.774 157.243 399.549 157.243 404.233C157.243 407.32 157.382 409.516 154.861 411.804C151.237 415.095 141.632 413.809 139.422 409.295C137.997 406.383 139.481 403.285 142.234 401.897C142.524 401.751 145.709 400.729 144.378 400.729C142.482 400.729 141.064 400.048 139.232 399.95C136.582 399.809 134.544 397.404 131.941 396.878C128.867 396.258 125.301 394.74 122.507 393.331C117.818 390.966 111.439 388.123 106.163 386.755C99.2649 384.965 92.6334 381.16 85.6256 379.746C78.4324 378.294 73.1606 374.386 67.614 370.358C63.3008 367.225 64.612 350.546 64.612 355.561" stroke="black" stroke-width="3" stroke-linecap="round"/>
<path d="M64.6122 355.561C64.6122 349.237 63.1555 340.031 66.7564 334.146C67.6865 332.625 68.4457 330.335 68.9483 328.738C69.2195 327.876 72.1328 325.19 71.4737 325.19" stroke="black" stroke-width="3" stroke-linecap="round"/>
<path d="M268.744 307.279C265.99 308.254 258.497 311.865 261.453 311.865C262.425 311.865 265.642 308.579 266.647 308.057C269.791 306.426 265.738 307.742 264.646 309.615C262.616 313.096 267.281 308.943 268.744 308.057" stroke="black" stroke-width="3" stroke-linecap="round"/>
<path d="M219.855 334.535C214.775 334.535 214.236 335.397 211.088 338.256C207.663 341.365 213.411 339.125 215.138 338.429C217.449 337.496 224.433 335.314 221.904 335.314C219.674 335.314 214.709 334.284 214.709 336.871" stroke="black" stroke-width="3" stroke-linecap="round"/>
<path d="M248.159 262.111C248.159 273.599 247.693 284.454 250.923 295.597C251.887 298.924 252.727 303.062 254.592 306.11C255.181 307.074 255.878 310.603 255.878 308.057" stroke="black" stroke-width="3" stroke-linecap="round"/>
<path d="M119.505 505.081C126.387 491.022 140.7 479.221 150.572 466.75C156.268 459.554 163.15 453.604 170.109 447.454C178.224 440.282 185.769 432.829 194.982 426.817C201.35 422.661 208.285 419.022 213.851 413.968C219.409 408.922 225.372 404.002 231.863 399.95C246.328 390.921 259.272 379.938 274.557 371.915C305.153 355.855 338.057 344.14 365.664 323.632C372.877 318.274 377.609 311.229 384.104 305.332C388.347 301.48 392.29 301.816 397.399 300.27" stroke="black" stroke-width="3" stroke-linecap="round"/>
<path d="M2.85742 287.81C16.6004 284.507 29.2733 277.679 41.7397 271.629C55.6125 264.897 69.8168 259.105 84.291 253.545C97.384 248.515 109.69 242.055 122.935 237.191C133.898 233.165 145.303 230.163 156.766 227.5C207.745 215.659 257.726 199.89 309.055 189.298C316.285 187.806 323.772 185.794 331.165 185.794C336.299 185.794 340.898 184.236 345.936 184.236C350.648 184.236 355.002 182.679 359.659 182.679C361.59 182.679 372.853 183.308 370.809 184.236" stroke="black" stroke-width="3" stroke-linecap="round"/>
<path d="M608.392 173.333C620.622 173.333 632.852 173.333 645.082 173.333C650.162 173.333 657.922 172.067 662.427 174.112" stroke="black" stroke-width="3" stroke-linecap="round"/>
<path d="M604.961 234.076C618.309 234.076 631.928 233.297 645.082 233.297C648.839 233.297 663.573 233.552 665 230.961" stroke="black" stroke-width="3" stroke-linecap="round"/>
<path d="M415.41 292.482C419.042 292.332 428.88 289.849 431.706 286.642C433.516 284.588 436.611 283.137 439.426 283.137" stroke="black" stroke-width="3" stroke-linecap="round"/>
<path d="M404.26 279.244C404.26 291.682 405.118 304.404 405.118 316.667C405.118 324.07 405.975 331.576 405.975 338.818C405.975 348.091 405.975 357.364 405.975 366.637C405.975 370.886 405.118 375.176 405.118 379.313C405.118 381.181 406.036 386.684 404.26 387.49" stroke="black" stroke-width="3" stroke-linecap="round"/>
<path d="M413.695 278.465C413.695 288.453 414.139 298.464 414.553 308.23C414.881 315.991 417.126 323.544 417.126 331.463C417.126 340.906 418.841 350.002 418.841 359.455C418.841 367.242 418.841 375.03 418.841 382.818" stroke="black" stroke-width="3" stroke-linecap="round"/>
<path d="M544.065 298.712C544.065 333.449 543.207 368.766 543.207 403.065" stroke="black" stroke-width="3" stroke-linecap="round"/>
<path d="M556.072 301.049C556.072 335.418 556.93 369.501 556.93 403.844" stroke="black" stroke-width="3" stroke-linecap="round"/>
<path d="M376.814 143.741C376.814 147.043 376.948 150.389 376.814 153.692C376.698 156.534 375.098 159.47 375.098 162.431C375.098 168.863 375.098 175.295 375.098 181.727C375.098 192.653 374.24 203.527 374.24 214.564C374.24 234.307 374.24 254.049 374.24 273.792" stroke="black" stroke-width="3" stroke-linecap="round"/>
<path d="M374.24 273.792C386.457 275.83 397.967 278.046 410.264 279.287C420.339 280.303 430.595 283.137 440.712 283.137C447.345 283.137 454.309 285.474 460.916 285.474C465.117 285.474 472.794 285.814 476.688 287.42C480.522 289.003 487.515 289.676 491.745 290.103C496.35 290.567 501.421 292.482 505.897 292.482C509.879 292.482 514.145 294.637 518.334 294.819C521.18 294.942 523.829 295.442 526.911 295.597C535.907 296.051 545.172 299.491 554.166 299.491C557.375 299.491 560.583 299.491 563.792 299.491C567.001 299.491 570.107 300.891 573.226 301.049C575.887 301.183 587.612 303.031 588.665 304.942" stroke="black" stroke-width="3" stroke-linecap="round"/>
<path d="M588.665 304.943C588.729 302.632 589.159 300.04 590.19 297.934C591.096 296.082 590.032 293.681 590.809 291.704C592.161 288.268 591.896 282.101 592.096 278.465C592.783 265.986 592.954 253.581 592.954 241.085C592.954 234.111 591.326 225.222 593.382 218.501C594.867 213.648 595.527 207.337 595.527 202.32C595.527 194.906 598.1 187.642 598.1 180.342" stroke="black" stroke-width="3" stroke-linecap="round"/>
<path d="M598.1 180.342C598.1 176.628 600.261 161.199 593.811 160.874C590.254 160.694 585.437 159.407 581.994 158.364C576.51 156.705 569.357 157.951 564.173 155.812C559.912 154.053 554.644 152.789 550.021 152.264C544.299 151.615 538.46 149.378 532.724 149.192C525.539 148.959 518.476 147.787 511.282 147.635C507.909 147.564 504.653 146.856 501.18 146.856C497.447 146.856 492.729 147.62 489.172 146.467C485.991 145.435 479.206 145.299 475.878 145.299C470.219 145.299 464.819 144.52 459.2 144.52C449.45 144.52 439.819 142.962 429.991 142.962C416.044 142.962 402.085 141.405 387.964 141.405" stroke="black" stroke-width="3" stroke-linecap="round"/>
<path d="M387.964 141.405C384.049 141.405 378.464 141.704 375.098 143.741" stroke="black" stroke-width="3" stroke-linecap="round"/>
<path d="M588.665 304.942C593.021 302.066 596.384 300.444 596.384 295.208C596.384 291.694 597.242 287.255 597.242 283.31C597.242 274.234 598.1 265.387 598.1 256.227C598.1 239.839 598.957 223.956 598.957 207.598" stroke="black" stroke-width="3" stroke-linecap="round"/>
<path d="M598.957 207.599C598.957 196.615 599.815 185.671 599.815 174.891C599.815 171.257 599.815 167.623 599.815 163.989C599.815 159.127 598.081 158.876 593.811 157.153C591.291 156.136 585.236 155.56 582.661 155.422C578.666 155.209 574.575 153.865 570.653 153.865C562.963 153.865 555.524 152.307 547.496 152.307" stroke="black" stroke-width="3" stroke-linecap="round"/>
<path d="M2 150.749C35.4206 138.753 72.6869 136.498 107.783 130.502C127.099 127.202 146.597 124.656 165.868 121.157C184.392 117.793 203.362 117.404 221.952 114.538C241.442 111.532 261.567 111.94 281.228 110.254C306.502 108.087 331.741 105.585 357.039 103.635C394.244 100.767 431.248 98.5732 468.587 98.5732C481.495 98.5732 494.284 100.909 507.279 100.909C525.036 100.909 542.794 100.909 560.551 100.909C572.391 100.909 584.462 100.41 595.908 103.635C602.049 105.366 608.352 107.876 614.777 108.654C622.187 109.551 629.783 107.918 637.172 107.918C640.783 107.918 653.85 109.981 653.85 104.803" stroke="black" stroke-width="3" stroke-linecap="round"/>
<path d="M665 86.8921C614.639 86.8921 564.035 88.3469 513.712 86.8488C495.86 86.3174 479.197 83.2402 462.584 77.374C452.384 73.7728 444.573 69.2724 433.374 68.2021C416.456 66.5852 398.554 66.7348 381.579 67.5964C370.722 68.1474 360.004 69.7374 349.225 70.9277C336.409 72.3429 323.24 73.236 310.676 75.9896C276.29 83.5256 241.855 91.8312 206.561 94.6796C194.937 95.6178 183.349 95.4584 171.681 95.4584C161.089 95.4584 150.711 93.9009 140.089 93.9009C129.524 93.9009 117.82 92.5993 107.545 95.069C97.8963 97.3879 88.2289 100.232 78.3352 101.515C65.4283 103.189 52.8906 102.81 39.9294 103.246C37.1112 103.341 33.9599 104.353 31.5431 105.582C27.8374 107.466 23.5745 108.016 19.5353 109.043C14.8265 110.24 9.45873 111.033 4.57324 111.033" stroke="black" stroke-width="3" stroke-linecap="round"/>
<path d="M160.674 61.9721C156.826 44.0636 129.402 50.5046 115.883 54.0115C110.2 55.486 104.08 56.3224 98.2528 57.4726C92.2401 58.6595 86.4817 60.9301 80.4318 61.9288C78.347 62.273 73.189 62.8865 73.189 65.4765C73.189 67.7281 72.3321 72.1064 74.9044 73.4803C82.5547 77.5663 90.292 73.7018 98.0622 72.9179C108.111 71.9041 119.115 72.6937 128.939 70.7114C132.62 69.9687 136.978 69.7596 140.756 69.7596C144.397 69.7596 154.14 71.3353 157.243 67.8127C158.18 66.7501 160.667 65.7857 161.913 64.6545C162.686 63.9528 160.211 59.933 159.816 58.8571" stroke="black" stroke-width="3" stroke-linecap="round"/>
<path d="M459.153 29.2645C458.991 23.2602 454.715 20.6038 449.241 19.184C447.525 18.7388 445.072 19.1407 443.285 19.1407C440.794 19.1407 439.694 13.7981 439.235 12.1319C437.848 7.09599 437.603 3.50855 431.706 2.74367C424.959 1.86845 418.075 2.00818 411.122 2.00818C402.694 2.00818 395.302 3.56111 387.106 4.34444C382.533 4.78155 383.827 10.2368 380.245 11.9589C376.499 13.7595 367.74 12.1319 363.519 12.1319C357.063 12.1319 351.021 12.7315 345.508 16.069C339.494 19.7091 334.324 25.1318 330.498 30.6489C327.98 34.2795 327.48 39.0139 324.065 42.1139C322.265 43.7483 312.602 47.7226 312.486 49.512C311.959 57.6596 328.216 57.991 333.929 57.1265C346.933 55.1586 359.085 47.9893 371.239 43.6714C379.306 40.8051 386.49 36.7346 395.207 35.3214C403.388 33.995 411.738 32.3795 420.08 32.3795C423.811 32.3795 462.583 34.6103 462.583 28.4857" stroke="black" stroke-width="3" stroke-linecap="round"/>
<path d="M597.242 63.5295C593.586 58.9657 591.037 57.2849 585.663 54.5739C582.541 52.9993 575.537 54.1845 571.987 54.1845C566.059 54.1845 559.656 54.9632 553.499 54.9632C549.599 54.9632 548.668 59.8644 550.736 61.3663C554.571 64.1522 562.078 63.4 566.794 64.3515C572.389 65.4804 578.997 66.6445 584.805 66.6445C588.565 66.6445 593.925 69.0267 597.242 70.3652C600.008 71.4815 598.1 68.0626 598.1 67.0339C598.1 65.541 595.921 64.2873 594.669 63.5295" stroke="black" stroke-width="3" stroke-linecap="round"/>
</svg>
