<svg width="652" height="477" viewBox="0 0 652 477" fill="none" xmlns="http://www.w3.org/2000/svg">
<path d="M5.25122 2C13.585 8.70765 20.8626 16.9715 27.6032 25.2099C32.0121 30.5986 37.5873 36.2814 41.0143 42.2787C43.3045 46.2865 46.6582 51.55 49.7745 55.0125C52.5357 58.0805 56.2674 63.3924 58.0831 67.0238" stroke="black" stroke-width="3" stroke-linecap="round"/>
<path d="M60.5213 103.6C60.5213 93.7395 56.4573 84.4235 56.4573 74.339C56.4573 71.455 55.9637 64.3314 58.8957 62.7792C62.358 60.9462 67.9908 60.5214 71.9005 60.5214C76.3995 60.5214 80.2464 59.886 84.4989 58.941C86.9832 58.3889 94.5998 58.0358 96.4651 59.528C99.1387 61.6669 103.28 62.0535 106.219 64.4048C107.389 65.3414 109.19 65.9688 110.508 67.0238C111.698 67.9755 112.57 69.3233 113.76 70.275C121.154 76.1907 120.668 83.9768 120.668 92.6269C120.668 95.5795 121.267 102.674 117.869 103.645C114.264 104.675 112.579 107.436 108.476 107.664C105.971 107.803 103.414 109.662 100.845 110.057C97.837 110.52 94.4518 110.102 91.4077 110.102C87.2082 110.102 83.0088 110.102 78.8093 110.102C74.627 110.102 70.6228 109.289 66.6173 109.289C60.9162 109.289 59.7085 106.165 59.7085 101.161" stroke="black" stroke-width="3" stroke-linecap="round"/>
<path d="M67.024 71.9006C67.024 75.6165 64.9008 90.6332 69.1011 93.0334C73.2429 95.4001 79.1825 97.9102 84.0927 97.9102C86.9375 97.9102 89.7823 97.9102 92.6271 97.9102C95.8492 97.9102 97.9178 96.8699 100.755 96.2394C104.176 95.4791 111.592 89.2065 108.657 85.5376C106.386 82.699 105.902 73.1971 101.523 71.9458C96.8695 70.6163 92.2666 68.2292 87.1633 67.8366C81.0616 67.3673 76.1478 64.5854 69.8688 64.5854C63.6956 64.5854 64.5856 72.0872 64.5856 76.7774" stroke="black" stroke-width="3" stroke-linecap="round"/>
<path d="M38.5758 95.472C38.5758 78.1817 37.2042 60.5781 29.4544 45.0785C26.9339 40.0376 22.0451 34.5987 18.0752 30.6287C13.9607 26.5143 13.1719 20.1846 7.68945 17.4434" stroke="black" stroke-width="3" stroke-linecap="round"/>
<path d="M8.50244 83.2799C11.6406 85.5699 18.1826 87.8618 20.6944 91.0015C21.6495 92.1953 26.0602 94.7861 27.6032 95.4719C30.1665 96.6111 31.6083 98.7231 34.512 98.7231C37.5792 98.7231 39.1933 95.2764 36.9504 93.0335" stroke="black" stroke-width="3" stroke-linecap="round"/>
<path d="M88.1567 112.541C96.4632 120.847 102.864 130.978 112.134 138.189C119.429 143.863 127.699 147.513 135.705 151.961C140.437 154.59 145.984 157.281 151.149 158.87C154.355 159.857 157.29 161.411 160.496 162.302C164.905 163.527 170.055 164.168 174.313 165.824C180.874 168.375 188.294 170.148 194.272 173.952C199.965 177.575 205.773 181.232 211.747 184.518C222.592 190.483 231.637 198.557 241.143 206.374C249.922 213.592 256.273 222.383 263.902 230.577C275.821 243.379 282.833 260.021 287.473 276.726C289.775 285.015 294.063 292.701 296.414 300.929C298.352 307.712 299.484 315.174 299.484 322.242C299.484 333.118 298.671 343.182 298.671 353.942" stroke="black" stroke-width="3" stroke-linecap="round"/>
<path d="M299.484 356.38C296.274 373.858 282.053 391.297 266.159 398.826C259.572 401.946 250.983 403.522 243.762 403.522C240.552 403.522 234.94 404.638 232.022 403.342C228.257 401.668 225.606 401.084 221.456 401.084" stroke="black" stroke-width="3" stroke-linecap="round"/>
<path d="M185.692 296.233C171.101 302.434 160.671 316.388 155.799 331.003C150.319 347.445 149.929 364.17 149.929 381.532C149.929 389.831 151.143 395.631 153.813 403.342C155.361 407.816 157.989 417.61 161.715 420.591C169.559 426.866 176.578 435.221 187.318 435.221C194.024 435.221 196.731 433.512 200.774 428.313C204.676 423.296 210.367 415.102 210.889 408.58C211.153 405.276 213.327 402.244 213.327 398.826C213.327 394.985 214.14 391.524 214.14 387.673C214.14 378.19 214.14 368.707 214.14 359.225C214.14 345.512 209.872 330.652 203.167 318.585C200.659 314.069 199.192 308.962 196.891 304.361C195.511 301.602 194.834 298.873 192.601 296.639C191.17 295.209 186.16 292.859 184.88 295.42" stroke="black" stroke-width="3" stroke-linecap="round"/>
<path d="M206.012 418.965C206.012 398.34 219.83 380.565 219.83 359.992C219.83 343.57 222.725 326.713 217.572 310.683C213.26 297.268 210.181 280.082 199.916 269.817C193.866 263.767 182.23 252.102 173.681 260.65C169.882 264.45 165.002 267.802 162.302 272.662C158.598 279.329 154.459 285.755 150.336 292.169C145.303 299.998 145.457 309.324 142.208 317.772C139.431 324.991 139.363 335.542 139.363 343.195C139.363 355.188 137.889 369.658 143.833 380.357C146.512 385.179 147.736 390.308 150.336 394.988C152.07 398.11 154.387 406.97 157.244 408.399" stroke="black" stroke-width="3" stroke-linecap="round"/>
<path d="M138.55 335.247C138.55 359.863 135.1 383.781 139.543 408.218C140.885 415.599 144.231 422.968 147.897 429.487C150.246 433.662 153.843 436.771 156.432 440.73C160.052 446.267 163.734 451.061 169.03 455.18C181.115 464.579 196.889 468.854 209.263 457.167C215.838 450.957 219.839 445.837 222.449 437.027C225.802 425.711 227.958 415.779 227.958 403.929C227.958 385.921 224.707 368.827 224.707 350.69C224.707 343.694 223.081 336.574 223.081 329.512C223.081 325.39 223.303 321.928 221.636 318.178C219.483 313.335 220.391 306.795 218.836 301.742C216.923 295.522 214.581 286.227 210.257 281.422C208.522 279.494 205.933 274.414 205.199 271.849C204.201 268.356 200.991 265.835 199.51 262.502C198.362 259.918 194.332 256.57 191.382 256.406C188.67 256.255 186.119 254.78 183.66 254.78C175.9 254.78 169.024 253.842 164.56 261.282" stroke="black" stroke-width="3" stroke-linecap="round"/>
<path d="M132.861 284.041C132.861 279.977 132.861 275.913 132.861 271.849C132.861 267.509 135.23 262.922 136.518 258.799C137.916 254.326 140.365 250.79 142.434 246.652C146.044 239.431 154.576 230.437 161.76 226.332C170.078 221.579 181.417 215.263 191.563 218.385C199.741 220.901 207.731 223.921 214.547 229.222C218.071 231.963 224.178 233.741 226.513 237.711C228.433 240.975 232.185 245.189 234.867 247.871C241.843 254.848 247.58 268.764 248.278 278.532C248.709 284.573 249.904 290.051 249.904 296.233C249.904 303.428 249.904 310.622 249.904 317.817C249.904 322.852 249.257 330.563 247.284 335.247C245.413 339.691 246.77 344.303 242.588 347.439" stroke="black" stroke-width="3" stroke-linecap="round"/>
<path d="M168.624 245.839C176.803 242.529 184.926 236.899 193.82 236.899C202.669 236.899 210.576 236.52 217.798 242.137C233.213 254.126 235.518 272.596 240.782 290.363C242.061 294.679 242.588 300.179 242.588 304.722C242.588 308.919 244.214 313.132 244.214 317.366C244.214 325.06 245.027 332.675 245.027 340.53C245.027 348.503 245.042 355.7 243.356 363.289C242.265 368.196 238.82 373.288 238.524 378.326C238.442 379.724 237.807 381.479 237.711 383.202C237.502 386.975 235.164 386.453 232.022 386.453" stroke="black" stroke-width="3" stroke-linecap="round"/>
<path d="M71.0879 404.335C71.0879 415.053 71.3249 425.581 76.1453 435.221C79.0489 441.029 84.8286 446.535 86.5762 452.651C87.3651 455.413 90.8483 458.468 92.2206 460.87C93.7015 463.461 95.2454 465.012 97.0974 467.327C98.8193 469.479 101.584 471.047 104.051 471.752C105.905 472.282 107.839 473.032 109.741 473.378C112.102 473.807 115.21 472.623 117.417 473.604C123.363 476.246 133.585 474.236 140.176 474.236C147.413 474.236 154.702 473.423 161.715 473.423C167.308 473.423 173.987 472.186 179.596 470.939C183.611 470.047 193.57 468.234 195.446 464.482" stroke="black" stroke-width="3" stroke-linecap="round"/>
<path d="M5.25122 390.517C40.4332 390.517 76.3643 390.517 110.915 390.517" stroke="black" stroke-width="3" stroke-linecap="round"/>
<path d="M111.728 391.33C111.728 377.86 112.131 365.462 115.972 352.497C118.823 342.877 122.564 333.017 124.687 323.462C125.245 320.952 126.245 316.694 127.803 314.747C129.944 312.07 129.754 305.661 131.235 302.329C133.796 296.567 136.47 289.633 133.673 284.041" stroke="black" stroke-width="3" stroke-linecap="round"/>
<path d="M93.0334 389.705C93.0334 377.513 93.0334 365.321 93.0334 353.129C93.0334 347.216 95.8707 341.43 96.2846 335.428C96.8481 327.257 102.345 319.631 102.787 311.676C103.056 306.834 105.544 301.285 107.664 297.046" stroke="black" stroke-width="3" stroke-linecap="round"/>
<path d="M107.664 297.046C107.664 273.066 108.477 248.965 108.477 225.113C108.477 207.957 111.513 189.753 107.257 172.733C103.801 158.906 100.002 147.158 93.6657 134.486C91.8691 130.893 90.7279 125.94 89.8275 121.888C89.1576 118.873 87.6643 113.107 84.9055 111.728" stroke="black" stroke-width="3" stroke-linecap="round"/>
<path d="M7.68945 288.918C16.0748 288.918 24.5031 288.691 32.8862 288.918C38.8753 289.08 45.3095 291.14 51.2193 292.214C62.559 294.276 74.6791 295.396 85.8987 298.491C93.9061 300.7 103.162 298.747 110.915 301.516C114.863 302.926 119.432 303.253 123.468 304.406C125.978 305.123 128.878 307.247 131.235 308.425" stroke="black" stroke-width="3" stroke-linecap="round"/>
<path d="M112.541 362.882C84.5046 362.882 55.9902 365.219 29.6351 354.122C25.4801 352.373 2 349.092 2 345.001" stroke="black" stroke-width="3" stroke-linecap="round"/>
<path d="M69.4623 406.773C69.4623 404.456 70.3614 399.449 69.2816 397.02C68.6971 395.704 67.8367 394.364 67.8367 392.956" stroke="black" stroke-width="3" stroke-linecap="round"/>
<path d="M171.062 317.366C171.062 323.241 170.249 328.71 170.249 334.434C170.249 339.043 169.61 342.736 173.094 346.22C176.069 349.195 179.637 351.589 182.622 354.574C186.894 358.846 184.092 348.106 183.254 346.22C179.435 337.628 181.628 325.17 181.628 315.74C181.628 312.718 179.186 305.537 174.719 308.018C170.744 310.227 173.5 314.748 173.5 318.178" stroke="black" stroke-width="3" stroke-linecap="round"/>
<path d="M163.747 377.513C163.747 385.528 166.112 390.799 167.766 398.239C168.06 399.564 172.558 401.661 172.688 399.458C172.863 396.478 173.5 393.682 173.5 390.517C173.5 387.705 173.681 385.44 174.268 382.796C174.732 380.709 175.716 377.749 175.081 375.526C174.223 372.522 164.678 381.813 162.934 378.326" stroke="black" stroke-width="3" stroke-linecap="round"/>
<path d="M192.195 326.306C192.195 330.998 191.112 335.797 191.382 340.124C191.432 340.93 194.411 336.82 194.814 336.06C195.515 334.735 196.311 329.42 195.265 328.113C194.058 326.604 192.233 325.57 191.382 323.868" stroke="black" stroke-width="3" stroke-linecap="round"/>
<path d="M188.944 374.262C188.944 379.255 189.756 384.551 189.756 389.298C189.756 394.827 194.826 388.708 195.852 386.86C199.438 380.406 191.273 376.482 188.944 371.823" stroke="black" stroke-width="3" stroke-linecap="round"/>
<path d="M186.505 392.143C186.505 398.149 185.27 402.374 184.022 407.993C183.618 409.807 182.342 411.756 181.448 413.276C180.09 415.583 177.281 414.901 181.628 414.901C184.215 414.901 185.593 416.745 187.318 413.727C188.346 411.927 188.131 410.179 188.131 407.993C188.131 404.211 187.78 398.526 185.692 395.394" stroke="black" stroke-width="3" stroke-linecap="round"/>
<path d="M190.569 361.257C193.025 358.016 197.072 352.451 201.136 350.871C204.499 349.563 203.67 361.15 203.574 362.882C203.201 369.595 196.771 363.821 194.633 363.695C189.642 363.402 186.429 362.184 189.756 357.193" stroke="black" stroke-width="3" stroke-linecap="round"/>
<path d="M91.4076 141.801C70.5548 141.801 48.7555 138.173 30.8993 126.81C27.7445 124.802 23.4143 123.899 20.6942 121.481C18.4097 119.451 14.9047 117.417 11.7534 117.417" stroke="black" stroke-width="3" stroke-linecap="round"/>
<path d="M471.797 367.759C471.797 358.066 471.797 348.372 471.797 338.679C471.797 331.194 472.418 323.002 470.804 315.74C469.438 309.594 470.818 303.268 470.126 297.046C469.728 293.458 470.632 286.5 469.178 283.228C467.6 279.677 470.534 269.592 466.92 267.785" stroke="black" stroke-width="3" stroke-linecap="round"/>
<path d="M466.92 267.785C456.244 267.785 445.614 266.346 437.253 259.657C428.82 252.911 431.97 236.203 431.97 226.739C431.97 213.091 430.345 199.754 430.345 186.099C430.345 181.56 429.175 171.87 432.602 168.443C435.83 165.216 443.359 165.372 447.775 165.372C454.762 165.372 455.687 166.298 458.386 172.236C459.627 174.967 458.792 179.539 458.792 182.486C458.792 187.89 458.792 193.294 458.792 198.697C458.792 212.786 458.792 226.874 458.792 240.963C458.792 246.643 458.852 249.383 464.03 252.342C469.294 255.349 471.015 245.524 472.791 241.775C474.59 237.977 474.533 233.039 475.229 228.951C476.398 222.083 476.928 214.979 477.442 208.044C478.556 193.003 479.112 178.038 479.112 162.934" stroke="black" stroke-width="3" stroke-linecap="round"/>
<path d="M479.112 162.934C479.112 152.639 479.112 142.343 479.112 132.048C479.112 124.327 477.046 117.077 480.738 110.102C482.506 106.764 484.011 103.812 488.053 103.6C490.389 103.477 495.154 102.749 496.813 104.593C502.001 110.357 505.122 119.53 505.122 127.352C505.122 142.305 505.762 158.022 502.503 172.688C500.954 179.66 499.9 186.66 498.439 193.64C496.856 201.202 494.727 209.036 494.556 216.759C494.441 221.896 487.014 271.036 495.775 271.036C498.212 271.036 501.851 271.874 503.496 269.817C504.981 267.962 505.122 263.371 505.122 260.921C505.122 256.68 506.748 252.544 506.748 248.233C506.748 243.945 508.239 239.735 509.141 235.679C510.364 230.173 512.564 224.871 514.108 219.469C514.483 218.156 517.068 212.179 518.578 211.747C520.316 211.251 523.283 215.785 523.816 216.985C525.371 220.484 527.88 222.528 527.88 226.739C527.88 230.818 527.88 234.897 527.88 238.976C527.88 244.919 527.837 250.656 527.113 256.451C526.723 259.568 526.306 262.723 525.623 265.798C525.148 267.933 525.95 270.289 525.036 272.301C523.687 275.268 522.947 279.622 522.236 282.822C521.416 286.51 516.656 286.671 513.656 287.337C510.977 287.933 507.444 288.918 504.716 288.918C501.496 288.918 499.951 290.284 497.807 291.356" stroke="black" stroke-width="3" stroke-linecap="round"/>
<path d="M497.807 291.356C497.807 314.175 497.807 336.993 497.807 359.812C497.807 368.015 497.807 376.218 497.807 384.422C497.807 387.217 498.066 389.854 498.665 392.55C498.91 393.654 500.245 401.024 500.245 397.02" stroke="black" stroke-width="3" stroke-linecap="round"/>
<path d="M412.463 397.833C422.229 384.551 431.763 371.871 439.692 357.599C445.219 347.65 456.319 340.124 467.733 340.124" stroke="black" stroke-width="3" stroke-linecap="round"/>
<path d="M499 332C525.639 332 554.113 329.433 575.332 319.173C584.359 314.808 595.667 307.965 607.521 306.408C612.226 305.79 631.377 304.918 633 303" stroke="black" stroke-width="3" stroke-linecap="round"/>
<path d="M441.724 407.586C440.507 403.252 437.363 393.769 444.568 393.769C446.623 393.769 448.048 394.259 449.852 395.214C452 396.351 450.073 391.883 449.897 390.472C449.247 385.275 448.056 374.446 453.509 371.417C455.692 370.204 456.224 374.216 456.354 370.83C456.463 367.984 458.993 363.389 460.418 360.896C461.956 358.204 466.03 368.801 466.108 370.198C466.201 371.885 466.557 380.653 468.546 380.764C469.208 380.801 474.502 380.551 472.204 382.39C471.398 383.034 470.984 387.651 470.984 388.711C470.984 391.442 470.172 393.876 470.172 396.613C470.172 397.995 470.984 402.066 470.984 398.645" stroke="black" stroke-width="3" stroke-linecap="round"/>
<path d="M524.629 404.335C520.823 395.156 520.565 385.823 520.565 375.887C520.565 367.665 520.04 361.196 529.551 358.818C532.292 358.133 535.557 358.586 537.995 357.193C539.99 356.053 539.359 349.58 540.072 347.62C540.69 345.921 541.891 338.269 543.775 337.731C546.263 337.02 548.324 340.247 549.826 341.75C552.384 353.333 562.7 373.9 583.5 363.5C609.5 350.5 601.5 344.962 623.5 337.731C641.1 331.946 648.833 338 650.5 341.75" stroke="black" stroke-width="3" stroke-linecap="round"/>
<path d="M340.937 386.454C340.937 393.859 340.124 390.685 340.124 386.454C340.124 383.811 340.225 381.146 340.124 378.506C339.923 373.271 337.685 367.798 337.685 362.476C337.685 357.734 336.74 351.801 338.679 347.439C341.399 341.318 347.533 340.124 353.535 340.124C364.728 340.124 366.946 357.723 366.946 366.134C366.946 377.671 364.508 388.572 364.508 400.271" stroke="black" stroke-width="3" stroke-linecap="round"/>
<path d="M366.133 384.015C374.432 382.396 375.887 387.007 375.887 394.175C375.887 396.26 376.536 399.663 375.255 401.264C374.263 402.504 373.449 406.05 373.449 407.586" stroke="black" stroke-width="3" stroke-linecap="round"/>
<path d="M374.261 407.586C377.302 403.573 383.533 399.701 388.485 398.6C392.601 397.686 395.158 395.506 398.465 399.639C400.863 402.637 397.874 409.514 394.898 410.837C390.93 412.601 387.764 415.917 383.925 417.837C381.868 418.865 376.926 420.951 375.887 423.029" stroke="black" stroke-width="3" stroke-linecap="round"/>
<path d="M375.074 423.029C368.511 415.085 361.838 407.522 355.974 399.052C353.869 396.012 354.222 393.521 353.174 398.239C352.399 401.725 352.634 405.039 351.323 408.58C350.602 410.524 347.439 419.106 347.439 413.908C347.439 408.685 347.439 403.462 347.439 398.239C347.439 394.155 339.604 404.963 338.95 405.915C338.432 406.669 336.5 410.595 335.428 410.476C335.031 410.432 335.247 405.841 335.247 405.328C335.247 400.241 335.247 395.153 335.247 390.066C335.247 386.065 336.033 381.528 334.028 377.919C332.595 375.339 330.316 372.65 329.512 369.836C329.217 368.803 327.932 364.275 327.932 366.946C327.932 370.337 328.745 373.271 328.745 376.7C328.745 378.559 326.896 384.112 325.494 379.906C325.035 378.529 322.242 371.44 322.242 375.526C322.242 380.572 320.617 385.398 320.617 390.337C320.617 394.816 318.178 391.375 318.178 388.892" stroke="black" stroke-width="3" stroke-linecap="round"/>
<path d="M292.982 371.01C292.982 382.681 299.912 393.919 304.541 404.335C308.496 413.233 313.302 422.344 313.302 432.377C313.302 436.9 311.676 440.918 311.676 445.788C311.676 450.592 313.024 447.191 315.559 449.22C317.103 450.455 320.234 449.852 322.242 449.852C331.592 449.852 340.724 446.601 350.284 446.601C355.136 446.601 359.976 447.59 359.631 441.724C359.611 441.379 350.018 437.196 348.658 436.441C344.846 434.323 339.657 433.542 336.06 430.345C332.299 427.002 323.723 423.348 323.055 417.34C322.823 415.252 321.078 412.708 320.572 410.431C319.969 407.719 318.738 405.023 318.133 402.303C317.094 397.626 315.988 390.964 313.708 386.86C310.449 380.993 311.676 370.973 311.676 364.508C311.676 359.223 312.489 354.186 312.489 349.065" stroke="black" stroke-width="3" stroke-linecap="round"/>
<path d="M299.484 355.567C301.936 353.652 303.965 351.405 306.393 349.516C308.086 348.2 311.239 347.782 312.489 346.22C314.637 343.535 323.415 343.944 324.636 339.672C325.043 338.249 323.276 336.014 322.423 335.067C321.604 334.156 321.223 332.695 320.617 331.635C319.99 330.539 318.313 331.77 317.546 331.003C315.821 329.277 318.31 326.365 314.927 324.862C312.191 323.645 311.461 324.25 310.051 321.43" stroke="black" stroke-width="3" stroke-linecap="round"/>
<path d="M303.548 199.51C304.743 205.632 308.108 207.331 310.863 212.153C312.883 215.688 316.553 218.449 316.553 222.675C316.553 226.917 316.139 230.743 317.998 234.46C320.175 238.815 323.598 241.053 326.939 244.394C332.936 250.392 335.056 257.199 338.905 264.127C340.847 267.623 341.789 270.755 343.556 274.287C344.906 276.988 347.889 280.322 348.252 283.228C348.667 286.547 352.316 289.728 352.316 293.388C352.316 297.016 356.38 299.791 356.38 303.954C356.38 308.006 355.379 311.413 352.497 314.295C351.8 314.992 349.24 316.495 348.252 316.553C345.421 316.719 344.064 319.134 341.75 320.436C340.951 320.885 342.985 317.687 343.375 317.004C344.404 315.204 344.188 313.456 344.188 311.27C344.188 307.003 342.608 302.817 340.53 299.078C338.007 294.536 335.376 294.385 331.815 291.537C330.691 290.637 327.797 289.643 326.306 289.73C324.174 289.856 324.964 293.794 322.242 293.794" stroke="black" stroke-width="3" stroke-linecap="round"/>
<path d="M322.242 293.795C315.695 294.842 311.089 297.497 305.128 299.484C303.801 299.927 296.569 304.678 299.484 302.735" stroke="black" stroke-width="3" stroke-linecap="round"/>
<path d="M301.11 322.242C309.172 322.242 315.804 320.738 323.462 319.036C326.48 318.366 338 320.801 339.311 318.178" stroke="black" stroke-width="3" stroke-linecap="round"/>
<path d="M320.617 293.795C317.895 291.733 315.277 288.403 312.489 286.66C311.017 285.74 309.14 285.073 307.793 283.86C306.043 282.286 304.286 280.908 302.735 279.164C302.289 278.663 301.11 277.413 301.11 276.726C301.11 274.783 302.144 277.391 302.329 277.539C305.002 279.678 306.239 285.016 308.876 287.653C311.152 289.929 313.302 299.451 313.302 296.233" stroke="black" stroke-width="3" stroke-linecap="round"/>
<path d="M285.667 149.929C285.667 162.071 286.92 170.8 294.607 180.409C297.215 183.669 298.418 187.61 300.929 190.75C302.039 192.137 302.372 194.18 303.954 195.446C305.661 196.811 307.865 198.2 309.238 199.916C311.945 203.301 314.33 204.387 318.585 204.387C322.885 204.387 321.43 195.402 321.43 192.195C321.43 189.472 322.242 187.216 322.242 184.473C322.242 181.694 321.228 180.519 320.662 177.971C319.759 173.909 319.123 168.074 317.366 164.56" stroke="black" stroke-width="3" stroke-linecap="round"/>
<path d="M279.164 103.6C279.164 109.441 279.266 114.192 281.602 119.449C282.799 122.141 287.228 127.907 290.182 128.751C292.278 129.35 292.98 128.632 294.201 130.828C294.778 131.867 295.896 134.704 296.639 135.299C298.189 136.539 300.297 143.585 300.297 145.459C300.297 148.677 303.169 151.772 303.548 154.806C303.823 157.004 306.358 162.585 307.793 164.379C309.21 166.151 312.202 171.208 312.489 173.5C312.762 175.684 314.927 182.395 314.927 176.752" stroke="black" stroke-width="3" stroke-linecap="round"/>
<path d="M282.415 124.733C280.934 133.808 271.551 145.053 261.689 145.053C258.594 145.053 258.031 144.49 258.031 141.395C258.031 138.959 257.219 136.767 257.219 134.486C257.219 130.142 256.406 126.078 256.406 121.481" stroke="black" stroke-width="3" stroke-linecap="round"/>
<path d="M247.465 132.861C247.465 141.026 247.838 149.326 248.278 157.245C248.621 163.413 251.457 169.883 253.967 175.532C256.739 181.768 259.176 188.24 262.502 194.227C263.832 196.621 267.222 206.012 269.411 206.012" stroke="black" stroke-width="3" stroke-linecap="round"/>
<path d="M262.908 204.387C262.237 207.446 255.787 223.585 259.657 225.519" stroke="black" stroke-width="3" stroke-linecap="round"/>
<path d="M284.854 152.368C284.854 149.241 283.554 140.784 285.847 137.918C287.457 135.905 288.105 133.073 288.105 130.422" stroke="black" stroke-width="3" stroke-linecap="round"/>
<path d="M242.588 70.2751C242.588 75.7547 242.994 77.486 245.027 82.0607C246.436 85.2313 248.593 87.5351 250.716 90.1887C252.744 92.7232 255.327 94.8441 257.399 96.9169C258.846 98.3635 261.162 100.743 261.283 102.787C261.651 109.044 262.934 113.671 259.657 119.404C257.169 123.758 253.078 126.86 249.904 130.829C246.549 135.022 243.401 140.231 243.401 145.865C243.401 148.605 241.776 151.38 241.776 154.4C241.776 156.653 240.834 162.19 239.744 164.153C238.568 166.269 237.849 171.831 237.712 174.313C237.527 177.627 235.455 180.803 235.273 184.067C235.087 187.411 234.46 190.383 234.46 193.82C234.46 195.994 234.169 201.803 236.086 202.761" stroke="black" stroke-width="3" stroke-linecap="round"/>
<path d="M243.401 69.4623C239.37 62.8508 237.739 58.5684 239.382 51.1744C240.503 46.1284 250.13 45.0784 253.967 45.0784C258.936 45.0784 265.846 47.5047 264.489 53.6127C264.2 54.9098 263.14 55.6186 262.863 56.8639C262.593 58.0805 262.408 60.2241 261.915 61.3343C260.635 64.2137 259.299 65.4327 255.999 66.166C253.582 66.7031 250.029 67.8574 247.871 69.0559C246.891 69.6005 244.952 69.7314 243.852 69.4172C242.617 69.064 247.015 68.2066 247.465 68.0173C250.146 66.8883 252.36 64.7953 254.599 62.7793C257.148 60.4859 254.271 58.7721 253.155 56.8188C252.613 55.8709 252.902 52.7495 252.297 53.6579C251.531 54.8064 251.529 55.3839 251.529 56.8639C251.529 59.7037 250.339 61.2596 248.458 63.1405C245.861 65.7379 244.214 62.3722 244.214 60.1151C244.214 59.0634 244.619 56.9527 243.807 56.1415C243.722 56.0557 242.944 58.2612 244.214 58.8959" stroke="black" stroke-width="3" stroke-linecap="round"/>
<path d="M262.908 54.019C268.121 54.019 283.61 51.5105 287.924 55.8253C291.358 59.2587 296.233 63.3806 296.233 68.6494" stroke="black" stroke-width="3" stroke-linecap="round"/>
<path d="M287.292 79.2157C284.581 79.7446 281.603 78.9792 281.603 82.0605C281.603 83.7259 281.394 84.8474 282.415 86.1245C284.079 88.2035 286.077 88.9781 287.292 91.4077" stroke="black" stroke-width="3" stroke-linecap="round"/>
<path d="M264.534 101.161C266.442 98.5373 266.972 97.2756 266.972 94.2527C266.972 93.2876 266.441 90.6742 267.785 90.5951C270.965 90.408 271.849 95.2073 271.849 89.6017C271.849 87.9008 271.849 86.2 271.849 84.4991C271.849 82.2469 271.448 83.2401 272.481 84.2733C273.935 85.7276 276.219 87.3993 276.771 89.3307C277.696 92.5675 277.539 82.6274 277.539 79.2611C277.539 77.3573 277.12 72.6589 279.616 71.9459C282.155 71.2202 285.862 71.9007 288.511 71.9007C292.598 71.9007 290.39 67.3534 292.982 68.6495" stroke="black" stroke-width="3" stroke-linecap="round"/>
<path d="M283.228 110.915C286.411 108.6 290.122 106.911 292.801 104.232C294.883 102.15 295.201 99.8099 296.865 97.7294C299.777 94.089 295.338 83.9284 293.794 80.8413" stroke="black" stroke-width="3" stroke-linecap="round"/>
<path d="M293.795 73.5264C302.093 73.5264 299.657 74.7579 303.729 79.8481C306.967 83.8955 303.2 86.5311 299.484 86.5311" stroke="black" stroke-width="3" stroke-linecap="round"/>
<path d="M192.195 88.9693C194.71 78.4054 206.568 71.0877 216.579 71.0877C221.034 71.0877 225.707 71.1815 229.99 70.2298C234.041 69.3295 237.429 67.8365 241.776 67.8365" stroke="black" stroke-width="3" stroke-linecap="round"/>
<path d="M237.712 61.3343C233.211 62.069 230.514 62.8948 226.739 64.9919C224.22 66.3913 223.34 64.5895 221.456 63.5921C217.201 61.3395 212.722 54.9469 207.277 56.5027C203.607 57.5513 197.488 61.8889 194.633 64.5855C190.665 68.3336 188.131 70.8203 188.131 76.3711C188.131 80.6807 188.944 85.5164 188.944 89.3759C188.944 94.2433 194.06 94.7215 197.072 97.9102C199.389 100.364 203.574 105.547 203.574 108.883C203.574 111.766 204.286 113.168 201.136 113.353C198.93 113.483 197.884 116.478 197.884 118.23" stroke="black" stroke-width="3" stroke-linecap="round"/>
<path d="M196.259 121.481C200.919 119.514 207.939 116.958 212.108 113.714C214.705 111.695 217.823 110.051 221.049 109.334C226.433 108.138 232.096 108.476 237.711 108.476" stroke="black" stroke-width="3" stroke-linecap="round"/>
<path d="M193.82 123.107C196.501 126.645 197.592 128.146 201.542 125.952C203.9 124.642 206.892 124.092 208.902 122.294C211.51 119.961 218.417 116.021 221.907 115.024C225.314 114.051 229.9 112.541 233.241 112.541C234.349 112.541 238.44 113.166 238.524 111.728C238.669 109.274 237.896 108.032 236.899 106.038" stroke="black" stroke-width="3" stroke-linecap="round"/>
<path d="M197.884 127.984C194.906 132.079 192.497 136.195 188.537 139.363C186.002 141.391 190.109 148.875 190.614 151.149C191.643 155.776 191.306 161.138 193.188 165.373C194.864 169.142 196.259 172.643 196.259 176.752" stroke="black" stroke-width="3" stroke-linecap="round"/>
<path d="M238.524 110.102C241.534 107.093 247.928 103.947 242.182 100.755C238.169 98.526 239.949 94.8168 240.15 91.408C240.6 83.7588 239.337 76.4728 239.337 68.6497" stroke="black" stroke-width="3" stroke-linecap="round"/>
<path d="M231.209 112.541C234.103 114.801 241.027 118.19 242.769 121.481C243.989 123.785 245.555 131.093 247.465 132.048" stroke="black" stroke-width="3" stroke-linecap="round"/>
<path d="M225.519 130.422C225.519 134.661 225.628 138.266 224.752 142.208C224.305 144.218 222.492 146.512 222.268 148.304C222.085 149.773 220.56 151.542 219.83 152.819C218.865 154.508 219.123 157.315 218.024 158.689C215.414 161.952 220.428 158.293 221.094 158.102C223.177 157.507 224.758 157.244 227.145 157.244C231.826 157.244 235.4 157.714 239.337 159.683" stroke="black" stroke-width="3" stroke-linecap="round"/>
<path d="M239.337 152.368C232.186 150.798 226.424 149.929 219.017 149.929" stroke="black" stroke-width="3" stroke-linecap="round"/>
<path d="M220.643 161.308C220.417 170.562 214.14 178.678 214.14 188.131" stroke="black" stroke-width="3" stroke-linecap="round"/>
<path d="M164.56 114.166C164.56 120.734 167.634 126.054 172.868 130.241C174.187 131.296 179.94 131.954 181.628 132.048C184.593 132.212 189.273 133.19 191.382 135.299" stroke="black" stroke-width="3" stroke-linecap="round"/>
<path d="M184.88 171.875C184.88 166.473 182.288 154.806 189.756 154.806" stroke="black" stroke-width="3" stroke-linecap="round"/>
<path d="M129.609 145.865C132.758 139.664 136.627 135.193 142.614 131.867C145.477 130.277 149.997 127.91 151.555 125.184C155.037 119.091 145.829 113.281 143.427 108.477" stroke="black" stroke-width="3" stroke-linecap="round"/>
<path d="M119.856 100.349C122.857 102.531 126.126 105.111 126.358 109.29C126.52 112.199 128.114 115.363 131.416 112.721C132.211 112.085 134.711 112.541 135.705 112.541C137.104 112.541 138.365 111.044 139.363 110.102C142.117 107.501 144.151 106.038 147.897 106.038C150.618 106.038 154.806 105.091 154.806 101.568C154.806 100.025 154.918 99.1966 153.813 98.091C152.897 97.1758 151.389 97.5 150.742 96.6911C148.731 94.1771 149.116 91.702 149.116 88.5632C149.116 86.0488 145.177 84.5918 145.052 82.4672C144.843 78.9132 149.1 77.8245 151.555 76.597C152.029 76.3597 157.938 72.9554 157.696 72.7136C155.877 70.8948 142.627 72.7136 139.769 72.7136C137.013 72.7136 131.148 74.5559 130.467 71.4944C129.926 69.0567 127.957 66.9911 126.358 64.992C125.079 63.3935 120.401 63.1992 118.637 64.1792C117.36 64.8885 115.856 65.1846 114.798 66.0306C114.194 66.5137 112.541 67.3934 112.541 67.024" stroke="black" stroke-width="3" stroke-linecap="round"/>
<path d="M158.87 73.5264C167.303 73.5264 169.057 78.8365 174.313 84.0927C176.19 85.9693 178.35 87.3224 180.409 88.9695C182.559 90.6893 181.628 95.4763 181.628 97.9103C181.628 101.129 180.821 103.016 181.583 106.445C181.968 108.177 184.577 112.106 183.073 113.986C181.01 116.565 180.747 117.417 177.113 117.417C173.47 117.417 169.828 117.417 166.185 117.417" stroke="black" stroke-width="3" stroke-linecap="round"/>
<path d="M156.432 84.0925C150.608 86.5674 152.003 88.966 155.438 92.4011C157.24 94.2032 160.817 97.6645 162.934 98.7229" stroke="black" stroke-width="3" stroke-linecap="round"/>
<path d="M152.368 126.358H165.372" stroke="black" stroke-width="3" stroke-linecap="round"/>
<path d="M139.363 136.924C139.363 142.119 139.935 147.159 137.737 151.555" stroke="black" stroke-width="3" stroke-linecap="round"/>
<path d="M145.052 132.048C147.841 139.194 150.368 144.24 158.464 144.24C161.91 144.24 163.66 143.122 164.605 139.814C165.41 136.997 169.436 135.241 169.436 132.048" stroke="black" stroke-width="3" stroke-linecap="round"/>
<path d="M180.003 134.486C180.003 140.26 180.076 146.311 177.745 151.555C176.089 155.281 176.752 167.824 176.752 163.747" stroke="black" stroke-width="3" stroke-linecap="round"/>
</svg>
