<svg width="1200" height="630" viewBox="0 0 1200 630" xmlns="http://www.w3.org/2000/svg">
  <!-- Gradient Background -->
  <defs>
    <linearGradient id="bgGradient" x1="0%" y1="0%" x2="100%" y2="100%">
      <stop offset="0%" style="stop-color:#4F46E5;stop-opacity:1" />
      <stop offset="100%" style="stop-color:#3B82F6;stop-opacity:1" />
    </linearGradient>

    <!-- Subtle pattern overlay -->
    <pattern id="dots" x="0" y="0" width="40" height="40" patternUnits="userSpaceOnUse">
      <circle cx="20" cy="20" r="1.5" fill="white" opacity="0.1"/>
    </pattern>
  </defs>

  <!-- Background -->
  <rect width="1200" height="630" fill="url(#bgGradient)"/>
  <rect width="1200" height="630" fill="url(#dots)"/>

  <!-- Decorative circles -->
  <circle cx="100" cy="100" r="120" fill="white" opacity="0.05"/>
  <circle cx="1100" cy="530" r="100" fill="white" opacity="0.05"/>
  <circle cx="950" cy="150" r="80" fill="white" opacity="0.08"/>

  <!-- Main Title -->
  <text x="600" y="240" font-family="Arial, sans-serif" font-size="72" font-weight="bold" fill="white" text-anchor="middle" letter-spacing="2">
    GEO ECOSYSTEM
  </text>
  <text x="600" y="310" font-family="Arial, sans-serif" font-size="72" font-weight="bold" fill="white" text-anchor="middle" letter-spacing="2">
    2025
  </text>

  <!-- Subtitle -->
  <text x="600" y="390" font-family="Arial, sans-serif" font-size="28" fill="white" text-anchor="middle" opacity="0.95">
    15+ Tools • New Metrics • $33.9B Invested
  </text>

  <!-- Icon representations -->
  <!-- Tool icon 1 -->
  <g transform="translate(200, 450)">
    <rect x="-30" y="-30" width="60" height="60" rx="12" fill="white" opacity="0.15"/>
    <rect x="-20" y="-15" width="40" height="4" rx="2" fill="white" opacity="0.9"/>
    <rect x="-20" y="-5" width="30" height="4" rx="2" fill="white" opacity="0.9"/>
    <rect x="-20" y="5" width="35" height="4" rx="2" fill="white" opacity="0.9"/>
    <rect x="-20" y="15" width="25" height="4" rx="2" fill="white" opacity="0.9"/>
  </g>

  <!-- Tool icon 2 -->
  <g transform="translate(400, 450)">
    <rect x="-30" y="-30" width="60" height="60" rx="12" fill="white" opacity="0.15"/>
    <circle cx="0" cy="-8" r="10" stroke="white" stroke-width="3" fill="none" opacity="0.9"/>
    <path d="M 7 -1 L 15 7 M 13 4 L 15 7 L 12 9" stroke="white" stroke-width="3" fill="none" stroke-linecap="round" opacity="0.9"/>
    <rect x="-12" y="8" width="24" height="3" rx="1.5" fill="white" opacity="0.9"/>
  </g>

  <!-- Tool icon 3 -->
  <g transform="translate(600, 450)">
    <rect x="-30" y="-30" width="60" height="60" rx="12" fill="white" opacity="0.15"/>
    <path d="M -15 10 L -5 -10 L 5 10 L 15 -5" stroke="white" stroke-width="3" fill="none" stroke-linecap="round" stroke-linejoin="round" opacity="0.9"/>
  </g>

  <!-- Tool icon 4 -->
  <g transform="translate(800, 450)">
    <rect x="-30" y="-30" width="60" height="60" rx="12" fill="white" opacity="0.15"/>
    <rect x="-15" y="-15" width="30" height="30" rx="4" stroke="white" stroke-width="3" fill="none" opacity="0.9"/>
    <circle cx="0" cy="0" r="5" fill="white" opacity="0.9"/>
  </g>

  <!-- Tool icon 5 -->
  <g transform="translate(1000, 450)">
    <rect x="-30" y="-30" width="60" height="60" rx="12" fill="white" opacity="0.15"/>
    <circle cx="-8" cy="0" r="6" fill="white" opacity="0.9"/>
    <circle cx="8" cy="0" r="6" fill="white" opacity="0.9"/>
    <circle cx="0" cy="0" r="6" fill="white" opacity="0.9"/>
    <path d="M -8 0 L 0 0 M 0 0 L 8 0" stroke="white" stroke-width="2" opacity="0.9"/>
  </g>

  <!-- Bottom text -->
  <text x="600" y="550" font-family="Arial, sans-serif" font-size="18" fill="white" text-anchor="middle" opacity="0.7" letter-spacing="1">
    From Academic Research to Billion-Dollar Industry in 18 Months
  </text>
</svg>
